<svg width="680" height="611" viewBox="0 0 680 611" fill="none" xmlns="http://www.w3.org/2000/svg">
<g clip-path="url(#clip0_1135_3117)">
<rect width="680" height="610.368" rx="17.408" fill="#F1F2F3"/>
<rect width="680" height="27.2" fill="#C7C9D0"/>
<circle cx="17.9522" cy="13.6" r="4.896" fill="#9194A2"/>
<circle cx="34.272" cy="13.6" r="4.896" fill="#9194A2"/>
<circle cx="50.5918" cy="13.6" r="4.896" fill="#9194A2"/>
<rect x="17.4082" y="44.608" width="645.184" height="40.256" rx="8.704" fill="#A6CCFF"/>
<path d="M318.869 65.9147C318.869 64.9394 318.714 64.2034 318.404 63.7067C318.094 63.21 317.636 62.9616 317.03 62.9616C316.419 62.9616 315.957 63.2122 315.642 63.7135C315.328 64.2103 315.171 64.944 315.171 65.9147C315.171 66.8808 315.328 67.6146 315.642 68.1159C315.957 68.6172 316.419 68.8678 317.03 68.8678C317.636 68.8678 318.094 68.6195 318.404 68.1227C318.714 67.626 318.869 66.89 318.869 65.9147ZM315.171 63.0573C315.371 62.6836 315.647 62.3965 315.998 62.196C316.353 61.9954 316.763 61.8952 317.228 61.8952C318.149 61.8952 318.873 62.2506 319.402 62.9616C319.931 63.668 320.195 64.6432 320.195 65.8874C320.195 67.1497 319.928 68.1409 319.395 68.861C318.866 69.5765 318.14 69.9342 317.214 69.9342C316.759 69.9342 316.355 69.8363 316.004 69.6403C315.658 69.4398 315.38 69.1504 315.171 68.7721V69.736H313.913V59.0993H315.171V63.0573ZM326.668 65.8874H326.251C325.517 65.8874 324.963 66.0172 324.59 66.277C324.22 66.5322 324.036 66.915 324.036 67.4254C324.036 67.8857 324.175 68.2435 324.453 68.4987C324.731 68.7539 325.116 68.8815 325.608 68.8815C326.301 68.8815 326.845 68.6422 327.242 68.1637C327.638 67.6807 327.839 67.0153 327.844 66.1676V65.8874H326.668ZM329.108 65.3678V69.736H327.844V68.6012C327.575 69.057 327.235 69.3942 326.825 69.6129C326.419 69.8271 325.925 69.9342 325.342 69.9342C324.562 69.9342 323.94 69.7155 323.475 69.278C323.011 68.8359 322.778 68.2458 322.778 67.5075C322.778 66.6553 323.063 66.0081 323.633 65.5661C324.207 65.124 325.048 64.903 326.155 64.903H327.844V64.7047C327.839 64.0941 327.684 63.652 327.379 63.3786C327.073 63.1006 326.586 62.9616 325.916 62.9616C325.487 62.9616 325.054 63.0231 324.617 63.1461C324.179 63.2692 323.753 63.4492 323.339 63.6862V62.4284C323.803 62.2506 324.248 62.1185 324.672 62.0319C325.1 61.9407 325.515 61.8952 325.916 61.8952C326.549 61.8952 327.089 61.9886 327.536 62.1754C327.987 62.3623 328.352 62.6426 328.63 63.0163C328.803 63.2441 328.926 63.5267 328.999 63.8639C329.072 64.1966 329.108 64.6979 329.108 65.3678ZM338.329 64.9919V69.736H337.064V64.9919C337.064 64.3037 336.944 63.7978 336.702 63.4743C336.461 63.1507 336.082 62.9889 335.567 62.9889C334.979 62.9889 334.526 63.1986 334.207 63.6178C333.892 64.0325 333.735 64.6295 333.735 65.4088V69.736H332.477V62.0797H333.735V63.2282C333.959 62.7907 334.262 62.4603 334.644 62.237C335.027 62.0091 335.481 61.8952 336.005 61.8952C336.784 61.8952 337.365 62.1527 337.748 62.6676C338.135 63.178 338.329 63.9528 338.329 64.9919ZM347.605 64.9919V69.736H346.34V64.9919C346.34 64.3037 346.219 63.7978 345.978 63.4743C345.736 63.1507 345.358 62.9889 344.843 62.9889C344.255 62.9889 343.802 63.1986 343.483 63.6178C343.168 64.0325 343.011 64.6295 343.011 65.4088V69.736H341.753V62.0797H343.011V63.2282C343.234 62.7907 343.537 62.4603 343.92 62.237C344.303 62.0091 344.756 61.8952 345.28 61.8952C346.06 61.8952 346.641 62.1527 347.024 62.6676C347.411 63.178 347.605 63.9528 347.605 64.9919ZM357.352 65.279V65.8942H351.904V65.9352C351.867 66.9788 352.065 67.7285 352.498 68.1842C352.936 68.64 353.551 68.8678 354.344 68.8678C354.745 68.8678 355.164 68.804 355.602 68.6764C356.039 68.5488 356.506 68.3551 357.003 68.0954V69.3463C356.525 69.5423 356.062 69.6881 355.615 69.7838C355.173 69.8841 354.745 69.9342 354.33 69.9342C353.141 69.9342 352.211 69.5788 351.541 68.8678C350.871 68.1523 350.536 67.168 350.536 65.9147C350.536 64.6933 350.864 63.7181 351.521 62.9889C352.177 62.2598 353.052 61.8952 354.146 61.8952C355.121 61.8952 355.889 62.2256 356.449 62.8864C357.015 63.5472 357.315 64.3447 357.352 65.279ZM356.094 64.9098C356.039 64.3812 355.846 63.9254 355.513 63.5426C355.185 63.1553 354.711 62.9616 354.091 62.9616C353.485 62.9616 352.986 63.1621 352.594 63.5631C352.202 63.9642 351.988 64.4154 351.951 64.9167L356.094 64.9098ZM366.867 63.6588C366.598 63.4492 366.324 63.2965 366.046 63.2008C365.768 63.1051 365.463 63.0573 365.13 63.0573C364.346 63.0573 363.747 63.3034 363.332 63.7956C362.918 64.2878 362.71 64.9987 362.71 65.9284V69.736H361.446V62.0797H362.71V63.5768C362.92 63.0345 363.241 62.6198 363.674 62.3327C364.112 62.041 364.629 61.8952 365.226 61.8952C365.536 61.8952 365.825 61.9339 366.094 62.0114C366.363 62.0889 366.621 62.2096 366.867 62.3737V63.6588Z" fill="#004390"/>
<rect x="17.4082" y="97.92" width="645.184" height="54.4" rx="8.704" fill="#A6CCFF"/>
<path d="M319.778 125.376V130.12H318.513V125.376C318.513 124.688 318.393 124.182 318.151 123.858C317.909 123.535 317.531 123.373 317.016 123.373C316.428 123.373 315.975 123.583 315.656 124.002C315.341 124.417 315.184 125.014 315.184 125.793V130.12H313.926V119.483H315.184V123.612C315.407 123.175 315.711 122.844 316.093 122.621C316.476 122.393 316.93 122.279 317.454 122.279C318.233 122.279 318.814 122.537 319.197 123.052C319.584 123.562 319.778 124.337 319.778 125.376ZM329.525 125.663V126.278H324.077V126.319C324.04 127.363 324.239 128.113 324.672 128.568C325.109 129.024 325.724 129.252 326.517 129.252C326.918 129.252 327.338 129.188 327.775 129.06C328.213 128.933 328.68 128.739 329.177 128.479V129.73C328.698 129.926 328.235 130.072 327.789 130.168C327.347 130.268 326.918 130.318 326.504 130.318C325.314 130.318 324.385 129.963 323.715 129.252C323.045 128.536 322.71 127.552 322.71 126.299C322.71 125.077 323.038 124.102 323.694 123.373C324.35 122.644 325.225 122.279 326.319 122.279C327.294 122.279 328.062 122.61 328.623 123.27C329.188 123.931 329.489 124.729 329.525 125.663ZM328.267 125.294C328.213 124.765 328.019 124.309 327.686 123.927C327.358 123.539 326.884 123.346 326.264 123.346C325.658 123.346 325.159 123.546 324.767 123.947C324.375 124.348 324.161 124.799 324.125 125.301L328.267 125.294ZM335.943 126.271H335.526C334.793 126.271 334.239 126.401 333.865 126.661C333.496 126.916 333.311 127.299 333.311 127.809C333.311 128.27 333.45 128.627 333.728 128.883C334.006 129.138 334.392 129.266 334.884 129.266C335.576 129.266 336.121 129.026 336.517 128.548C336.914 128.065 337.115 127.399 337.119 126.552V126.271H335.943ZM338.384 125.752V130.12H337.119V128.985C336.85 129.441 336.511 129.778 336.101 129.997C335.695 130.211 335.2 130.318 334.617 130.318C333.838 130.318 333.216 130.099 332.751 129.662C332.286 129.22 332.054 128.63 332.054 127.891C332.054 127.039 332.338 126.392 332.908 125.95C333.482 125.508 334.323 125.287 335.431 125.287H337.119V125.089C337.115 124.478 336.96 124.036 336.654 123.763C336.349 123.485 335.861 123.346 335.191 123.346C334.763 123.346 334.33 123.407 333.892 123.53C333.455 123.653 333.029 123.833 332.614 124.07V122.812C333.079 122.635 333.523 122.502 333.947 122.416C334.376 122.325 334.79 122.279 335.191 122.279C335.825 122.279 336.365 122.373 336.811 122.559C337.263 122.746 337.627 123.027 337.905 123.4C338.078 123.628 338.201 123.911 338.274 124.248C338.347 124.581 338.384 125.082 338.384 125.752ZM346.285 123.441V119.483H347.543V130.12H346.285V129.156C346.076 129.534 345.795 129.824 345.444 130.024C345.098 130.22 344.697 130.318 344.241 130.318C343.316 130.318 342.587 129.96 342.054 129.245C341.525 128.525 341.261 127.534 341.261 126.271C341.261 125.027 341.527 124.052 342.061 123.346C342.594 122.635 343.321 122.279 344.241 122.279C344.702 122.279 345.107 122.379 345.458 122.58C345.809 122.776 346.085 123.063 346.285 123.441ZM342.587 126.299C342.587 127.274 342.742 128.01 343.052 128.507C343.362 129.003 343.82 129.252 344.426 129.252C345.032 129.252 345.492 129.001 345.807 128.5C346.126 127.999 346.285 127.265 346.285 126.299C346.285 125.328 346.126 124.594 345.807 124.098C345.492 123.596 345.032 123.346 344.426 123.346C343.82 123.346 343.362 123.594 343.052 124.091C342.742 124.587 342.587 125.323 342.587 126.299ZM357.352 125.663V126.278H351.904V126.319C351.867 127.363 352.065 128.113 352.498 128.568C352.936 129.024 353.551 129.252 354.344 129.252C354.745 129.252 355.164 129.188 355.602 129.06C356.039 128.933 356.506 128.739 357.003 128.479V129.73C356.525 129.926 356.062 130.072 355.615 130.168C355.173 130.268 354.745 130.318 354.33 130.318C353.141 130.318 352.211 129.963 351.541 129.252C350.871 128.536 350.536 127.552 350.536 126.299C350.536 125.077 350.864 124.102 351.521 123.373C352.177 122.644 353.052 122.279 354.146 122.279C355.121 122.279 355.889 122.61 356.449 123.27C357.015 123.931 357.315 124.729 357.352 125.663ZM356.094 125.294C356.039 124.765 355.846 124.309 355.513 123.927C355.185 123.539 354.711 123.346 354.091 123.346C353.485 123.346 352.986 123.546 352.594 123.947C352.202 124.348 351.988 124.799 351.951 125.301L356.094 125.294ZM366.867 124.043C366.598 123.833 366.324 123.681 366.046 123.585C365.768 123.489 365.463 123.441 365.13 123.441C364.346 123.441 363.747 123.687 363.332 124.18C362.918 124.672 362.71 125.383 362.71 126.312V130.12H361.446V122.464H362.71V123.961C362.92 123.418 363.241 123.004 363.674 122.717C364.112 122.425 364.629 122.279 365.226 122.279C365.536 122.279 365.825 122.318 366.094 122.395C366.363 122.473 366.621 122.594 366.867 122.758V124.043Z" fill="#004390"/>
<rect x="17.4082" y="165.376" width="645.184" height="40.26" rx="8.704" fill="#A6CCFF"/>
<path d="M305.331 183.116V184.347C304.971 184.137 304.609 183.98 304.244 183.875C303.88 183.77 303.508 183.718 303.13 183.718C302.561 183.718 302.134 183.811 301.852 183.998C301.574 184.18 301.435 184.461 301.435 184.839C301.435 185.181 301.54 185.436 301.749 185.605C301.959 185.773 302.481 185.937 303.315 186.097L303.821 186.193C304.445 186.311 304.917 186.548 305.236 186.903C305.559 187.259 305.721 187.721 305.721 188.291C305.721 189.048 305.452 189.64 304.914 190.068C304.377 190.492 303.629 190.704 302.672 190.704C302.294 190.704 301.897 190.663 301.483 190.581C301.068 190.504 300.619 190.385 300.136 190.226V188.927C300.605 189.168 301.054 189.351 301.483 189.474C301.911 189.592 302.317 189.651 302.7 189.651C303.256 189.651 303.686 189.54 303.992 189.317C304.297 189.089 304.45 188.772 304.45 188.366C304.45 187.783 303.891 187.38 302.775 187.156L302.72 187.143L302.248 187.047C301.524 186.906 300.995 186.669 300.662 186.336C300.33 185.999 300.163 185.541 300.163 184.962C300.163 184.228 300.412 183.663 300.909 183.267C301.405 182.866 302.114 182.665 303.035 182.665C303.445 182.665 303.839 182.704 304.217 182.781C304.595 182.854 304.967 182.966 305.331 183.116ZM309.289 187.608V182.863H310.546V187.608C310.546 188.296 310.667 188.802 310.909 189.125C311.155 189.449 311.533 189.61 312.043 189.61C312.636 189.61 313.089 189.403 313.404 188.988C313.718 188.569 313.876 187.97 313.876 187.191V182.863H315.14V190.506H313.876V189.358C313.652 189.8 313.347 190.135 312.959 190.362C312.577 190.59 312.128 190.704 311.613 190.704C310.829 190.704 310.246 190.449 309.863 189.939C309.48 189.424 309.289 188.647 309.289 187.608ZM323.507 186.685C323.507 185.709 323.352 184.973 323.042 184.477C322.732 183.98 322.274 183.732 321.668 183.732C321.057 183.732 320.594 183.982 320.28 184.484C319.966 184.98 319.808 185.714 319.808 186.685C319.808 187.651 319.966 188.385 320.28 188.886C320.594 189.387 321.057 189.638 321.668 189.638C322.274 189.638 322.732 189.389 323.042 188.893C323.352 188.396 323.507 187.66 323.507 186.685ZM319.808 183.827C320.009 183.454 320.285 183.166 320.635 182.966C320.991 182.765 321.401 182.665 321.866 182.665C322.786 182.665 323.511 183.021 324.04 183.732C324.568 184.438 324.833 185.413 324.833 186.657C324.833 187.92 324.566 188.911 324.033 189.631C323.504 190.346 322.777 190.704 321.852 190.704C321.396 190.704 320.993 190.606 320.642 190.41C320.296 190.21 320.018 189.92 319.808 189.542V190.506H318.55V179.869H319.808V183.827ZM333.691 185.762V190.506H332.427V185.762C332.427 185.074 332.306 184.568 332.064 184.244C331.823 183.921 331.445 183.759 330.93 183.759C330.342 183.759 329.888 183.969 329.569 184.388C329.255 184.803 329.097 185.4 329.097 186.179V190.506H327.84V179.869H329.097V183.998C329.321 183.561 329.624 183.23 330.007 183.007C330.389 182.779 330.843 182.665 331.367 182.665C332.146 182.665 332.727 182.923 333.11 183.438C333.498 183.948 333.691 184.723 333.691 185.762ZM343.438 186.049V186.664H337.99V186.705C337.954 187.749 338.152 188.498 338.585 188.954C339.022 189.41 339.638 189.638 340.431 189.638C340.832 189.638 341.251 189.574 341.688 189.446C342.126 189.319 342.593 189.125 343.09 188.865V190.116C342.611 190.312 342.149 190.458 341.702 190.554C341.26 190.654 340.832 190.704 340.417 190.704C339.228 190.704 338.298 190.349 337.628 189.638C336.958 188.922 336.623 187.938 336.623 186.685C336.623 185.463 336.951 184.488 337.607 183.759C338.264 183.03 339.139 182.665 340.232 182.665C341.208 182.665 341.976 182.996 342.536 183.656C343.101 184.317 343.402 185.115 343.438 186.049ZM342.181 185.68C342.126 185.151 341.932 184.695 341.6 184.313C341.271 183.925 340.798 183.732 340.178 183.732C339.572 183.732 339.073 183.932 338.681 184.333C338.289 184.734 338.075 185.185 338.038 185.687L342.181 185.68ZM349.857 186.657H349.44C348.706 186.657 348.152 186.787 347.778 187.047C347.409 187.302 347.225 187.685 347.225 188.195C347.225 188.656 347.364 189.013 347.642 189.269C347.92 189.524 348.305 189.651 348.797 189.651C349.49 189.651 350.034 189.412 350.431 188.934C350.827 188.451 351.028 187.785 351.032 186.938V186.657H349.857ZM352.297 186.138V190.506H351.032V189.371C350.764 189.827 350.424 190.164 350.014 190.383C349.608 190.597 349.114 190.704 348.53 190.704C347.751 190.704 347.129 190.485 346.664 190.048C346.199 189.606 345.967 189.016 345.967 188.277C345.967 187.425 346.252 186.778 346.821 186.336C347.396 185.894 348.236 185.673 349.344 185.673H351.032V185.475C351.028 184.864 350.873 184.422 350.568 184.149C350.262 183.871 349.775 183.732 349.105 183.732C348.676 183.732 348.243 183.793 347.806 183.916C347.368 184.039 346.942 184.219 346.528 184.456V183.198C346.992 183.021 347.437 182.888 347.861 182.802C348.289 182.711 348.704 182.665 349.105 182.665C349.738 182.665 350.278 182.759 350.725 182.945C351.176 183.132 351.541 183.413 351.819 183.786C351.992 184.014 352.115 184.297 352.188 184.634C352.261 184.967 352.297 185.468 352.297 186.138ZM360.199 183.827V179.869H361.456V190.506H360.199V189.542C359.989 189.92 359.709 190.21 359.358 190.41C359.011 190.606 358.61 190.704 358.155 190.704C357.229 190.704 356.5 190.346 355.967 189.631C355.438 188.911 355.174 187.92 355.174 186.657C355.174 185.413 355.441 184.438 355.974 183.732C356.507 183.021 357.234 182.665 358.155 182.665C358.615 182.665 359.02 182.765 359.371 182.966C359.722 183.162 359.998 183.449 360.199 183.827ZM356.5 186.685C356.5 187.66 356.655 188.396 356.965 188.893C357.275 189.389 357.733 189.638 358.339 189.638C358.945 189.638 359.406 189.387 359.72 188.886C360.039 188.385 360.199 187.651 360.199 186.685C360.199 185.714 360.039 184.98 359.72 184.484C359.406 183.982 358.945 183.732 358.339 183.732C357.733 183.732 357.275 183.98 356.965 184.477C356.655 184.973 356.5 185.709 356.5 186.685ZM371.265 186.049V186.664H365.817V186.705C365.78 187.749 365.979 188.498 366.412 188.954C366.849 189.41 367.464 189.638 368.257 189.638C368.658 189.638 369.078 189.574 369.515 189.446C369.953 189.319 370.42 189.125 370.916 188.865V190.116C370.438 190.312 369.975 190.458 369.529 190.554C369.087 190.654 368.658 190.704 368.244 190.704C367.054 190.704 366.124 190.349 365.455 189.638C364.785 188.922 364.45 187.938 364.45 186.685C364.45 185.463 364.778 184.488 365.434 183.759C366.09 183.03 366.965 182.665 368.059 182.665C369.034 182.665 369.802 182.996 370.363 183.656C370.928 184.317 371.229 185.115 371.265 186.049ZM370.007 185.68C369.953 185.151 369.759 184.695 369.426 184.313C369.098 183.925 368.624 183.732 368.004 183.732C367.398 183.732 366.899 183.932 366.507 184.333C366.115 184.734 365.901 185.185 365.865 185.687L370.007 185.68ZM380.78 184.429C380.511 184.219 380.238 184.067 379.96 183.971C379.682 183.875 379.376 183.827 379.044 183.827C378.26 183.827 377.66 184.073 377.246 184.566C376.831 185.058 376.624 185.769 376.624 186.698V190.506H375.359V182.85H376.624V184.347C376.833 183.804 377.155 183.39 377.588 183.103C378.025 182.811 378.542 182.665 379.139 182.665C379.449 182.665 379.739 182.704 380.007 182.781C380.276 182.859 380.534 182.98 380.78 183.144V184.429Z" fill="#004390"/>
<rect x="17.4082" y="218.692" width="645.184" height="306.812" rx="6.528" fill="#F1F2F3"/>
<rect x="17.4082" y="218.692" width="109.536" height="54.4" rx="8.704" fill="#A6CCFF"/>
<path d="M33.4031 238.148V242.892H32.1385V238.148C32.1385 237.46 32.0177 236.954 31.7762 236.63C31.5346 236.307 31.1564 236.145 30.6414 236.145C30.0535 236.145 29.6 236.355 29.281 236.774C28.9666 237.189 28.8094 237.786 28.8094 238.565V242.892H27.5515V235.236H28.8094V236.384C29.0327 235.947 29.3357 235.616 29.7185 235.393C30.1013 235.165 30.5548 235.051 31.0789 235.051C31.8582 235.051 32.4392 235.309 32.8221 235.824C33.2094 236.334 33.4031 237.109 33.4031 238.148ZM40.2929 239.043H39.8759C39.1422 239.043 38.5885 239.173 38.2148 239.433C37.8456 239.688 37.6611 240.071 37.6611 240.581C37.6611 241.042 37.8001 241.399 38.0781 241.655C38.3561 241.91 38.7412 242.037 39.2333 242.037C39.926 242.037 40.4706 241.798 40.8671 241.32C41.2636 240.837 41.4641 240.171 41.4687 239.324V239.043H40.2929ZM42.7333 238.524V242.892H41.4687V241.757C41.1998 242.213 40.8603 242.55 40.4501 242.769C40.0445 242.983 39.5501 243.09 38.9667 243.09C38.1874 243.09 37.5654 242.871 37.1005 242.434C36.6357 241.992 36.4033 241.402 36.4033 240.663C36.4033 239.811 36.6881 239.164 37.2578 238.722C37.832 238.28 38.6728 238.059 39.7802 238.059H41.4687V237.861C41.4641 237.25 41.3092 236.808 41.0038 236.535C40.6985 236.257 40.2109 236.118 39.541 236.118C39.1126 236.118 38.6796 236.179 38.2421 236.302C37.8046 236.425 37.3785 236.605 36.9638 236.842V235.584C37.4287 235.407 37.873 235.274 38.2968 235.188C38.7252 235.097 39.1399 235.051 39.541 235.051C40.1744 235.051 40.7145 235.145 41.1611 235.331C41.6122 235.518 41.9768 235.799 42.2548 236.172C42.428 236.4 42.551 236.683 42.624 237.02C42.6969 237.353 42.7333 237.854 42.7333 238.524ZM45.4532 235.236H46.7589L48.9806 241.661L51.2091 235.236H52.5147L49.794 242.892H48.1739L45.4532 235.236ZM56.2053 235.263H59.4251V241.914H61.9202V242.892H55.6721V241.914H58.1672V236.241H56.2053V235.263ZM58.1672 232.289H59.4251V233.875H58.1672V232.289ZM69.186 239.002C69.186 238.059 69.031 237.343 68.7211 236.856C68.4158 236.364 67.9692 236.118 67.3813 236.118C66.766 236.118 66.2966 236.364 65.9731 236.856C65.6495 237.343 65.4877 238.059 65.4877 239.002C65.4877 239.946 65.6495 240.666 65.9731 241.162C66.3012 241.655 66.7752 241.901 67.3949 241.901C67.9737 241.901 68.4158 241.652 68.7211 241.156C69.031 240.659 69.186 239.941 69.186 239.002ZM70.4438 242.4C70.4438 243.548 70.1726 244.419 69.6303 245.011C69.088 245.604 68.2905 245.9 67.2377 245.9C66.8914 245.9 66.5291 245.868 66.1508 245.804C65.7725 245.74 65.3943 245.647 65.016 245.524V244.28C65.4627 244.489 65.8683 244.644 66.2328 244.745C66.5974 244.845 66.9324 244.895 67.2377 244.895C67.9168 244.895 68.4112 244.71 68.7211 244.341C69.031 243.972 69.186 243.386 69.186 242.584V242.53V241.675C68.9854 242.104 68.712 242.423 68.3656 242.632C68.0193 242.842 67.5977 242.947 67.101 242.947C66.2078 242.947 65.4946 242.589 64.9613 241.873C64.4281 241.158 64.1615 240.201 64.1615 239.002C64.1615 237.799 64.4281 236.84 64.9613 236.124C65.4946 235.409 66.2078 235.051 67.101 235.051C67.5932 235.051 68.0102 235.149 68.352 235.345C68.6938 235.541 68.9718 235.844 69.186 236.254V235.263H70.4438V242.4ZM77.3951 239.043H76.9781C76.2444 239.043 75.6907 239.173 75.317 239.433C74.9478 239.688 74.7633 240.071 74.7633 240.581C74.7633 241.042 74.9023 241.399 75.1803 241.655C75.4583 241.91 75.8433 242.037 76.3355 242.037C77.0282 242.037 77.5728 241.798 77.9693 241.32C78.3658 240.837 78.5663 240.171 78.5709 239.324V239.043H77.3951ZM79.8355 238.524V242.892H78.5709V241.757C78.302 242.213 77.9625 242.55 77.5523 242.769C77.1467 242.983 76.6523 243.09 76.0689 243.09C75.2896 243.09 74.6676 242.871 74.2027 242.434C73.7379 241.992 73.5055 241.402 73.5055 240.663C73.5055 239.811 73.7903 239.164 74.3599 238.722C74.9342 238.28 75.775 238.059 76.8824 238.059H78.5709V237.861C78.5663 237.25 78.4114 236.808 78.106 236.535C77.8007 236.257 77.3131 236.118 76.6431 236.118C76.2148 236.118 75.7818 236.179 75.3443 236.302C74.9068 236.425 74.4807 236.605 74.066 236.842V235.584C74.5308 235.407 74.9752 235.274 75.399 235.188C75.8274 235.097 76.2421 235.051 76.6431 235.051C77.2766 235.051 77.8166 235.145 78.2633 235.331C78.7144 235.518 79.079 235.799 79.357 236.172C79.5302 236.4 79.6532 236.683 79.7262 237.02C79.7991 237.353 79.8355 237.854 79.8355 238.524ZM86.0691 233.062V235.236H88.9265V236.213H86.0691V240.37C86.0691 240.935 86.1762 241.329 86.3904 241.552C86.6046 241.775 86.9783 241.887 87.5115 241.887H88.9265V242.892H87.3884C86.4451 242.892 85.7797 242.703 85.3923 242.325C85.005 241.946 84.8113 241.295 84.8113 240.37V236.213H82.7673V235.236H84.8113V233.062H86.0691ZM93.3075 235.263H96.5272V241.914H99.0224V242.892H92.7743V241.914H95.2694V236.241H93.3075V235.263ZM95.2694 232.289H96.5272V233.875H95.2694V232.289ZM104.634 236.118C103.996 236.118 103.513 236.366 103.185 236.863C102.857 237.359 102.692 238.095 102.692 239.071C102.692 240.041 102.857 240.777 103.185 241.279C103.513 241.775 103.996 242.024 104.634 242.024C105.276 242.024 105.762 241.775 106.09 241.279C106.418 240.777 106.582 240.041 106.582 239.071C106.582 238.095 106.418 237.359 106.09 236.863C105.762 236.366 105.276 236.118 104.634 236.118ZM104.634 235.051C105.696 235.051 106.507 235.395 107.067 236.083C107.633 236.772 107.915 237.767 107.915 239.071C107.915 240.379 107.635 241.377 107.074 242.065C106.514 242.748 105.7 243.09 104.634 243.09C103.572 243.09 102.761 242.748 102.2 242.065C101.64 241.377 101.359 240.379 101.359 239.071C101.359 237.767 101.64 236.772 102.2 236.083C102.761 235.395 103.572 235.051 104.634 235.051ZM116.883 238.148V242.892H115.618V238.148C115.618 237.46 115.498 236.954 115.256 236.63C115.015 236.307 114.636 236.145 114.121 236.145C113.533 236.145 113.08 236.355 112.761 236.774C112.447 237.189 112.289 237.786 112.289 238.565V242.892H111.031V235.236H112.289V236.384C112.513 235.947 112.816 235.616 113.198 235.393C113.581 235.165 114.035 235.051 114.559 235.051C115.338 235.051 115.919 235.309 116.302 235.824C116.689 236.334 116.883 237.109 116.883 238.148ZM40.8291 253.943H48.0752V255.098H40.8291V253.943ZM56.592 254.148V258.892H55.3273V254.148C55.3273 253.46 55.2066 252.954 54.965 252.63C54.7235 252.307 54.3452 252.145 53.8303 252.145C53.2424 252.145 52.7889 252.355 52.4699 252.774C52.1554 253.189 51.9982 253.786 51.9982 254.565V258.892H50.7404V248.255H51.9982V252.384C52.2215 251.947 52.5246 251.616 52.9074 251.393C53.2902 251.165 53.7437 251.051 54.2678 251.051C55.0471 251.051 55.6281 251.309 56.0109 251.824C56.3983 252.334 56.592 253.109 56.592 254.148ZM66.3392 254.435V255.05H60.891V255.091C60.8545 256.135 61.0527 256.884 61.4857 257.34C61.9232 257.796 62.5384 258.024 63.3314 258.024C63.7324 258.024 64.1517 257.96 64.5892 257.832C65.0267 257.705 65.4938 257.511 65.9906 257.251V258.502C65.5121 258.698 65.0495 258.844 64.6029 258.94C64.1608 259.04 63.7324 259.09 63.3177 259.09C62.1283 259.09 61.1986 258.735 60.5287 258.024C59.8587 257.308 59.5238 256.324 59.5238 255.071C59.5238 253.849 59.8519 252.874 60.5081 252.145C61.1644 251.416 62.0394 251.051 63.1331 251.051C64.1084 251.051 64.8763 251.382 65.4369 252.042C66.002 252.703 66.3027 253.501 66.3392 254.435ZM65.0814 254.066C65.0267 253.537 64.833 253.081 64.5003 252.699C64.1722 252.311 63.6982 252.118 63.0785 252.118C62.4723 252.118 61.9733 252.318 61.5814 252.719C61.1895 253.12 60.9753 253.571 60.9388 254.073L65.0814 254.066ZM72.7573 255.043H72.3403C71.6066 255.043 71.0529 255.173 70.6792 255.433C70.3101 255.688 70.1255 256.071 70.1255 256.581C70.1255 257.042 70.2645 257.399 70.5425 257.655C70.8205 257.91 71.2056 258.037 71.6978 258.037C72.3905 258.037 72.9351 257.798 73.3315 257.32C73.728 256.837 73.9285 256.171 73.9331 255.324V255.043H72.7573ZM75.1978 254.524V258.892H73.9331V257.757C73.6642 258.213 73.3247 258.55 72.9146 258.769C72.509 258.983 72.0145 259.09 71.4312 259.09C70.6519 259.09 70.0298 258.871 69.5649 258.434C69.1001 257.992 68.8677 257.402 68.8677 256.663C68.8677 255.811 69.1525 255.164 69.7222 254.722C70.2964 254.28 71.1372 254.059 72.2446 254.059H73.9331V253.861C73.9285 253.25 73.7736 252.808 73.4683 252.535C73.1629 252.257 72.6753 252.118 72.0054 252.118C71.577 252.118 71.144 252.179 70.7065 252.302C70.269 252.425 69.8429 252.605 69.4282 252.842V251.584C69.8931 251.407 70.3374 251.274 70.7612 251.188C71.1896 251.097 71.6043 251.051 72.0054 251.051C72.6388 251.051 73.1789 251.145 73.6255 251.331C74.0767 251.518 74.4412 251.799 74.7192 252.172C74.8924 252.4 75.0155 252.683 75.0884 253.02C75.1613 253.353 75.1978 253.854 75.1978 254.524ZM83.0993 252.213V248.255H84.3571V258.892H83.0993V257.928C82.8896 258.306 82.6094 258.596 82.2585 258.796C81.9121 258.992 81.5111 259.09 81.0553 259.09C80.1302 259.09 79.401 258.732 78.8678 258.017C78.3392 257.297 78.0749 256.306 78.0749 255.043C78.0749 253.799 78.3415 252.824 78.8747 252.118C79.4079 251.407 80.1348 251.051 81.0553 251.051C81.5156 251.051 81.9212 251.151 82.2721 251.352C82.623 251.548 82.8988 251.835 83.0993 252.213ZM79.401 255.071C79.401 256.046 79.556 256.782 79.8659 257.279C80.1758 257.775 80.6338 258.024 81.2399 258.024C81.846 258.024 82.3063 257.773 82.6208 257.272C82.9398 256.771 83.0993 256.037 83.0993 255.071C83.0993 254.1 82.9398 253.366 82.6208 252.87C82.3063 252.368 81.846 252.118 81.2399 252.118C80.6338 252.118 80.1758 252.366 79.8659 252.863C79.556 253.359 79.401 254.095 79.401 255.071ZM94.1658 254.435V255.05H88.7176V255.091C88.6811 256.135 88.8794 256.884 89.3123 257.34C89.7498 257.796 90.3651 258.024 91.158 258.024C91.5591 258.024 91.9783 257.96 92.4158 257.832C92.8533 257.705 93.3205 257.511 93.8172 257.251V258.502C93.3387 258.698 92.8761 258.844 92.4295 258.94C91.9875 259.04 91.5591 259.09 91.1444 259.09C89.9549 259.09 89.0252 258.735 88.3553 258.024C87.6854 257.308 87.3504 256.324 87.3504 255.071C87.3504 253.849 87.6785 252.874 88.3348 252.145C88.991 251.416 89.866 251.051 90.9598 251.051C91.935 251.051 92.7029 251.382 93.2635 252.042C93.8286 252.703 94.1294 253.501 94.1658 254.435ZM92.908 254.066C92.8533 253.537 92.6597 253.081 92.327 252.699C91.9988 252.311 91.5249 252.118 90.9051 252.118C90.299 252.118 89.8 252.318 89.408 252.719C89.0161 253.12 88.8019 253.571 88.7654 254.073L92.908 254.066ZM103.681 252.815C103.412 252.605 103.138 252.453 102.86 252.357C102.582 252.261 102.277 252.213 101.944 252.213C101.16 252.213 100.561 252.459 100.146 252.952C99.7318 253.444 99.5244 254.155 99.5244 255.084V258.892H98.2598V251.236H99.5244V252.733C99.734 252.19 100.055 251.776 100.488 251.489C100.926 251.197 101.443 251.051 102.04 251.051C102.35 251.051 102.639 251.09 102.908 251.167C103.177 251.245 103.435 251.366 103.681 251.53V252.815Z" fill="#004390"/>
<rect x="17.4082" y="286.092" width="109.536" height="172.012" rx="8.704" fill="#A6CCFF"/>
<path d="M33.4031 372.354V377.098H32.1385V372.354C32.1385 371.666 32.0177 371.16 31.7762 370.836C31.5346 370.513 31.1564 370.351 30.6414 370.351C30.0535 370.351 29.6 370.561 29.281 370.98C28.9666 371.395 28.8094 371.992 28.8094 372.771V377.098H27.5515V369.442H28.8094V370.59C29.0327 370.153 29.3357 369.822 29.7185 369.599C30.1013 369.371 30.5548 369.257 31.0789 369.257C31.8582 369.257 32.4392 369.515 32.8221 370.03C33.2094 370.54 33.4031 371.315 33.4031 372.354ZM40.2929 373.249H39.8759C39.1422 373.249 38.5885 373.379 38.2148 373.639C37.8456 373.894 37.6611 374.277 37.6611 374.787C37.6611 375.248 37.8001 375.606 38.0781 375.861C38.3561 376.116 38.7412 376.244 39.2333 376.244C39.926 376.244 40.4706 376.004 40.8671 375.526C41.2636 375.043 41.4641 374.377 41.4687 373.53V373.249H40.2929ZM42.7333 372.73V377.098H41.4687V375.963C41.1998 376.419 40.8603 376.756 40.4501 376.975C40.0445 377.189 39.5501 377.296 38.9667 377.296C38.1874 377.296 37.5654 377.078 37.1005 376.64C36.6357 376.198 36.4033 375.608 36.4033 374.87C36.4033 374.017 36.6881 373.37 37.2578 372.928C37.832 372.486 38.6728 372.265 39.7802 372.265H41.4687V372.067C41.4641 371.456 41.3092 371.014 41.0038 370.741C40.6985 370.463 40.2109 370.324 39.541 370.324C39.1126 370.324 38.6796 370.385 38.2421 370.508C37.8046 370.631 37.3785 370.811 36.9638 371.048V369.79C37.4287 369.613 37.873 369.481 38.2968 369.394C38.7252 369.303 39.1399 369.257 39.541 369.257C40.1744 369.257 40.7145 369.351 41.1611 369.537C41.6122 369.724 41.9768 370.005 42.2548 370.378C42.428 370.606 42.551 370.889 42.624 371.226C42.6969 371.559 42.7333 372.06 42.7333 372.73ZM45.4532 369.442H46.7589L48.9806 375.868L51.2091 369.442H52.5147L49.794 377.098H48.1739L45.4532 369.442ZM56.2053 369.469H59.4251V376.12H61.9202V377.098H55.6721V376.12H58.1672V370.447H56.2053V369.469ZM58.1672 366.495H59.4251V368.081H58.1672V366.495ZM69.186 373.208C69.186 372.265 69.031 371.55 68.7211 371.062C68.4158 370.57 67.9692 370.324 67.3813 370.324C66.766 370.324 66.2966 370.57 65.9731 371.062C65.6495 371.55 65.4877 372.265 65.4877 373.208C65.4877 374.152 65.6495 374.872 65.9731 375.369C66.3012 375.861 66.7752 376.107 67.3949 376.107C67.9737 376.107 68.4158 375.858 68.7211 375.362C69.031 374.865 69.186 374.147 69.186 373.208ZM70.4438 376.606C70.4438 377.754 70.1726 378.625 69.6303 379.217C69.088 379.81 68.2905 380.106 67.2377 380.106C66.8914 380.106 66.5291 380.074 66.1508 380.01C65.7725 379.946 65.3943 379.853 65.016 379.73V378.486C65.4627 378.695 65.8683 378.85 66.2328 378.951C66.5974 379.051 66.9324 379.101 67.2377 379.101C67.9168 379.101 68.4112 378.916 68.7211 378.547C69.031 378.178 69.186 377.592 69.186 376.79V376.736V375.881C68.9854 376.31 68.712 376.629 68.3656 376.838C68.0193 377.048 67.5977 377.153 67.101 377.153C66.2078 377.153 65.4946 376.795 64.9613 376.079C64.4281 375.364 64.1615 374.407 64.1615 373.208C64.1615 372.005 64.4281 371.046 64.9613 370.33C65.4946 369.615 66.2078 369.257 67.101 369.257C67.5932 369.257 68.0102 369.355 68.352 369.551C68.6938 369.747 68.9718 370.05 69.186 370.46V369.469H70.4438V376.606ZM77.3951 373.249H76.9781C76.2444 373.249 75.6907 373.379 75.317 373.639C74.9478 373.894 74.7633 374.277 74.7633 374.787C74.7633 375.248 74.9023 375.606 75.1803 375.861C75.4583 376.116 75.8433 376.244 76.3355 376.244C77.0282 376.244 77.5728 376.004 77.9693 375.526C78.3658 375.043 78.5663 374.377 78.5709 373.53V373.249H77.3951ZM79.8355 372.73V377.098H78.5709V375.963C78.302 376.419 77.9625 376.756 77.5523 376.975C77.1467 377.189 76.6523 377.296 76.0689 377.296C75.2896 377.296 74.6676 377.078 74.2027 376.64C73.7379 376.198 73.5055 375.608 73.5055 374.87C73.5055 374.017 73.7903 373.37 74.3599 372.928C74.9342 372.486 75.775 372.265 76.8824 372.265H78.5709V372.067C78.5663 371.456 78.4114 371.014 78.106 370.741C77.8007 370.463 77.3131 370.324 76.6431 370.324C76.2148 370.324 75.7818 370.385 75.3443 370.508C74.9068 370.631 74.4807 370.811 74.066 371.048V369.79C74.5308 369.613 74.9752 369.481 75.399 369.394C75.8274 369.303 76.2421 369.257 76.6431 369.257C77.2766 369.257 77.8166 369.351 78.2633 369.537C78.7144 369.724 79.079 370.005 79.357 370.378C79.5302 370.606 79.6532 370.889 79.7262 371.226C79.7991 371.559 79.8355 372.06 79.8355 372.73ZM86.0691 367.268V369.442H88.9265V370.419H86.0691V374.576C86.0691 375.141 86.1762 375.535 86.3904 375.758C86.6046 375.981 86.9783 376.093 87.5115 376.093H88.9265V377.098H87.3884C86.4451 377.098 85.7797 376.909 85.3923 376.531C85.005 376.152 84.8113 375.501 84.8113 374.576V370.419H82.7673V369.442H84.8113V367.268H86.0691ZM93.3075 369.469H96.5272V376.12H99.0224V377.098H92.7743V376.12H95.2694V370.447H93.3075V369.469ZM95.2694 366.495H96.5272V368.081H95.2694V366.495ZM104.634 370.324C103.996 370.324 103.513 370.572 103.185 371.069C102.857 371.565 102.692 372.301 102.692 373.277C102.692 374.247 102.857 374.983 103.185 375.485C103.513 375.981 103.996 376.23 104.634 376.23C105.276 376.23 105.762 375.981 106.09 375.485C106.418 374.983 106.582 374.247 106.582 373.277C106.582 372.301 106.418 371.565 106.09 371.069C105.762 370.572 105.276 370.324 104.634 370.324ZM104.634 369.257C105.696 369.257 106.507 369.601 107.067 370.289C107.633 370.978 107.915 371.973 107.915 373.277C107.915 374.585 107.635 375.583 107.074 376.271C106.514 376.954 105.7 377.296 104.634 377.296C103.572 377.296 102.761 376.954 102.2 376.271C101.64 375.583 101.359 374.585 101.359 373.277C101.359 371.973 101.64 370.978 102.2 370.289C102.761 369.601 103.572 369.257 104.634 369.257ZM116.883 372.354V377.098H115.618V372.354C115.618 371.666 115.498 371.16 115.256 370.836C115.015 370.513 114.636 370.351 114.121 370.351C113.533 370.351 113.08 370.561 112.761 370.98C112.447 371.395 112.289 371.992 112.289 372.771V377.098H111.031V369.442H112.289V370.59C112.513 370.153 112.816 369.822 113.198 369.599C113.581 369.371 114.035 369.257 114.559 369.257C115.338 369.257 115.919 369.515 116.302 370.03C116.689 370.54 116.883 371.315 116.883 372.354Z" fill="#004390"/>
<rect x="17.4082" y="471.104" width="109.536" height="54.4" rx="8.704" fill="#A6CCFF"/>
<path d="M33.4031 490.56V495.304H32.1385V490.56C32.1385 489.872 32.0177 489.366 31.7762 489.042C31.5346 488.719 31.1564 488.557 30.6414 488.557C30.0535 488.557 29.6 488.767 29.281 489.186C28.9666 489.601 28.8094 490.198 28.8094 490.977V495.304H27.5515V487.648H28.8094V488.796C29.0327 488.359 29.3357 488.028 29.7185 487.805C30.1013 487.577 30.5548 487.463 31.0789 487.463C31.8582 487.463 32.4392 487.721 32.8221 488.236C33.2094 488.746 33.4031 489.521 33.4031 490.56ZM40.2929 491.455H39.8759C39.1422 491.455 38.5885 491.585 38.2148 491.845C37.8456 492.1 37.6611 492.483 37.6611 492.993C37.6611 493.454 37.8001 493.812 38.0781 494.067C38.3561 494.322 38.7412 494.45 39.2333 494.45C39.926 494.45 40.4706 494.21 40.8671 493.732C41.2636 493.249 41.4641 492.583 41.4687 491.736V491.455H40.2929ZM42.7333 490.936V495.304H41.4687V494.169C41.1998 494.625 40.8603 494.962 40.4501 495.181C40.0445 495.395 39.5501 495.502 38.9667 495.502C38.1874 495.502 37.5654 495.284 37.1005 494.846C36.6357 494.404 36.4033 493.814 36.4033 493.076C36.4033 492.223 36.6881 491.576 37.2578 491.134C37.832 490.692 38.6728 490.471 39.7802 490.471H41.4687V490.273C41.4641 489.662 41.3092 489.22 41.0038 488.947C40.6985 488.669 40.2109 488.53 39.541 488.53C39.1126 488.53 38.6796 488.591 38.2421 488.714C37.8046 488.837 37.3785 489.017 36.9638 489.254V487.996C37.4287 487.819 37.873 487.687 38.2968 487.6C38.7252 487.509 39.1399 487.463 39.541 487.463C40.1744 487.463 40.7145 487.557 41.1611 487.743C41.6122 487.93 41.9768 488.211 42.2548 488.584C42.428 488.812 42.551 489.095 42.624 489.432C42.6969 489.765 42.7333 490.266 42.7333 490.936ZM45.4532 487.648H46.7589L48.9806 494.074L51.2091 487.648H52.5147L49.794 495.304H48.1739L45.4532 487.648ZM56.2053 487.675H59.4251V494.326H61.9202V495.304H55.6721V494.326H58.1672V488.653H56.2053V487.675ZM58.1672 484.701H59.4251V486.287H58.1672V484.701ZM69.186 491.414C69.186 490.471 69.031 489.756 68.7211 489.268C68.4158 488.776 67.9692 488.53 67.3813 488.53C66.766 488.53 66.2966 488.776 65.9731 489.268C65.6495 489.756 65.4877 490.471 65.4877 491.414C65.4877 492.358 65.6495 493.078 65.9731 493.575C66.3012 494.067 66.7752 494.313 67.3949 494.313C67.9737 494.313 68.4158 494.064 68.7211 493.568C69.031 493.071 69.186 492.353 69.186 491.414ZM70.4438 494.812C70.4438 495.96 70.1726 496.831 69.6303 497.423C69.088 498.016 68.2905 498.312 67.2377 498.312C66.8914 498.312 66.5291 498.28 66.1508 498.216C65.7725 498.152 65.3943 498.059 65.016 497.936V496.692C65.4627 496.901 65.8683 497.056 66.2328 497.157C66.5974 497.257 66.9324 497.307 67.2377 497.307C67.9168 497.307 68.4112 497.122 68.7211 496.753C69.031 496.384 69.186 495.798 69.186 494.996V494.942V494.087C68.9854 494.516 68.712 494.835 68.3656 495.044C68.0193 495.254 67.5977 495.359 67.101 495.359C66.2078 495.359 65.4946 495.001 64.9613 494.285C64.4281 493.57 64.1615 492.613 64.1615 491.414C64.1615 490.211 64.4281 489.252 64.9613 488.536C65.4946 487.821 66.2078 487.463 67.101 487.463C67.5932 487.463 68.0102 487.561 68.352 487.757C68.6938 487.953 68.9718 488.256 69.186 488.666V487.675H70.4438V494.812ZM77.3951 491.455H76.9781C76.2444 491.455 75.6907 491.585 75.317 491.845C74.9478 492.1 74.7633 492.483 74.7633 492.993C74.7633 493.454 74.9023 493.812 75.1803 494.067C75.4583 494.322 75.8433 494.45 76.3355 494.45C77.0282 494.45 77.5728 494.21 77.9693 493.732C78.3658 493.249 78.5663 492.583 78.5709 491.736V491.455H77.3951ZM79.8355 490.936V495.304H78.5709V494.169C78.302 494.625 77.9625 494.962 77.5523 495.181C77.1467 495.395 76.6523 495.502 76.0689 495.502C75.2896 495.502 74.6676 495.284 74.2027 494.846C73.7379 494.404 73.5055 493.814 73.5055 493.076C73.5055 492.223 73.7903 491.576 74.3599 491.134C74.9342 490.692 75.775 490.471 76.8824 490.471H78.5709V490.273C78.5663 489.662 78.4114 489.22 78.106 488.947C77.8007 488.669 77.3131 488.53 76.6431 488.53C76.2148 488.53 75.7818 488.591 75.3443 488.714C74.9068 488.837 74.4807 489.017 74.066 489.254V487.996C74.5308 487.819 74.9752 487.687 75.399 487.6C75.8274 487.509 76.2421 487.463 76.6431 487.463C77.2766 487.463 77.8166 487.557 78.2633 487.743C78.7144 487.93 79.079 488.211 79.357 488.584C79.5302 488.812 79.6532 489.095 79.7262 489.432C79.7991 489.765 79.8355 490.266 79.8355 490.936ZM86.0691 485.474V487.648H88.9265V488.625H86.0691V492.782C86.0691 493.347 86.1762 493.741 86.3904 493.964C86.6046 494.187 86.9783 494.299 87.5115 494.299H88.9265V495.304H87.3884C86.4451 495.304 85.7797 495.115 85.3923 494.737C85.005 494.358 84.8113 493.707 84.8113 492.782V488.625H82.7673V487.648H84.8113V485.474H86.0691ZM93.3075 487.675H96.5272V494.326H99.0224V495.304H92.7743V494.326H95.2694V488.653H93.3075V487.675ZM95.2694 484.701H96.5272V486.287H95.2694V484.701ZM104.634 488.53C103.996 488.53 103.513 488.778 103.185 489.275C102.857 489.771 102.692 490.507 102.692 491.483C102.692 492.453 102.857 493.189 103.185 493.691C103.513 494.187 103.996 494.436 104.634 494.436C105.276 494.436 105.762 494.187 106.09 493.691C106.418 493.189 106.582 492.453 106.582 491.483C106.582 490.507 106.418 489.771 106.09 489.275C105.762 488.778 105.276 488.53 104.634 488.53ZM104.634 487.463C105.696 487.463 106.507 487.807 107.067 488.495C107.633 489.184 107.915 490.179 107.915 491.483C107.915 492.791 107.635 493.789 107.074 494.477C106.514 495.16 105.7 495.502 104.634 495.502C103.572 495.502 102.761 495.16 102.2 494.477C101.64 493.789 101.359 492.791 101.359 491.483C101.359 490.179 101.64 489.184 102.2 488.495C102.761 487.807 103.572 487.463 104.634 487.463ZM116.883 490.56V495.304H115.618V490.56C115.618 489.872 115.498 489.366 115.256 489.042C115.015 488.719 114.636 488.557 114.121 488.557C113.533 488.557 113.08 488.767 112.761 489.186C112.447 489.601 112.289 490.198 112.289 490.977V495.304H111.031V487.648H112.289V488.796C112.513 488.359 112.816 488.028 113.198 487.805C113.581 487.577 114.035 487.463 114.559 487.463C115.338 487.463 115.919 487.721 116.302 488.236C116.689 488.746 116.883 489.521 116.883 490.56ZM40.8291 506.355H48.0752V507.51H40.8291V506.355ZM56.674 500.667V501.713H55.2453C54.7941 501.713 54.4797 501.807 54.3019 501.993C54.1288 502.176 54.0422 502.502 54.0422 502.971V503.648H56.674V504.625H54.0422V511.304H52.7844V504.625H50.7404V503.648H52.7844V503.115C52.7844 502.276 52.9758 501.659 53.3586 501.262C53.7459 500.866 54.3475 500.667 55.1633 500.667H56.674ZM62.8939 504.53C62.2559 504.53 61.7728 504.778 61.4447 505.275C61.1165 505.771 60.9525 506.507 60.9525 507.483C60.9525 508.453 61.1165 509.189 61.4447 509.691C61.7728 510.187 62.2559 510.436 62.8939 510.436C63.5365 510.436 64.0218 510.187 64.3499 509.691C64.6781 509.189 64.8421 508.453 64.8421 507.483C64.8421 506.507 64.6781 505.771 64.3499 505.275C64.0218 504.778 63.5365 504.53 62.8939 504.53ZM62.8939 503.463C63.9557 503.463 64.7669 503.807 65.3275 504.495C65.8926 505.184 66.1751 506.179 66.1751 507.483C66.1751 508.791 65.8949 509.789 65.3343 510.477C64.7738 511.16 63.9603 511.502 62.8939 511.502C61.832 511.502 61.0208 511.16 60.4603 510.477C59.8997 509.789 59.6195 508.791 59.6195 507.483C59.6195 506.179 59.8997 505.184 60.4603 504.495C61.0208 503.807 61.832 503.463 62.8939 503.463ZM72.1694 504.53C71.5314 504.53 71.0483 504.778 70.7202 505.275C70.3921 505.771 70.228 506.507 70.228 507.483C70.228 508.453 70.3921 509.189 70.7202 509.691C71.0483 510.187 71.5314 510.436 72.1694 510.436C72.812 510.436 73.2974 510.187 73.6255 509.691C73.9536 509.189 74.1177 508.453 74.1177 507.483C74.1177 506.507 73.9536 505.771 73.6255 505.275C73.2974 504.778 72.812 504.53 72.1694 504.53ZM72.1694 503.463C73.2313 503.463 74.0425 503.807 74.603 504.495C75.1681 505.184 75.4507 506.179 75.4507 507.483C75.4507 508.791 75.1704 509.789 74.6099 510.477C74.0493 511.16 73.2358 511.502 72.1694 511.502C71.1076 511.502 70.2964 511.16 69.7358 510.477C69.1753 509.789 68.895 508.791 68.895 507.483C68.895 506.179 69.1753 505.184 69.7358 504.495C70.2964 503.807 71.1076 503.463 72.1694 503.463ZM81.4313 501.474V503.648H84.2887V504.625H81.4313V508.782C81.4313 509.347 81.5384 509.741 81.7526 509.964C81.9668 510.187 82.3405 510.299 82.8737 510.299H84.2887V511.304H82.7506C81.8073 511.304 81.1419 511.115 80.7546 510.737C80.3672 510.358 80.1735 509.707 80.1735 508.782V504.625H78.1296V503.648H80.1735V501.474H81.4313ZM94.1658 506.847V507.462H88.7176V507.503C88.6811 508.547 88.8794 509.297 89.3123 509.752C89.7498 510.208 90.3651 510.436 91.158 510.436C91.5591 510.436 91.9783 510.372 92.4158 510.244C92.8533 510.117 93.3205 509.923 93.8172 509.663V510.914C93.3387 511.11 92.8761 511.256 92.4295 511.352C91.9875 511.452 91.5591 511.502 91.1444 511.502C89.9549 511.502 89.0252 511.147 88.3553 510.436C87.6854 509.72 87.3504 508.736 87.3504 507.483C87.3504 506.261 87.6785 505.286 88.3348 504.557C88.991 503.828 89.866 503.463 90.9598 503.463C91.935 503.463 92.7029 503.794 93.2635 504.454C93.8286 505.115 94.1294 505.913 94.1658 506.847ZM92.908 506.478C92.8533 505.949 92.6597 505.493 92.327 505.111C91.9988 504.723 91.5249 504.53 90.9051 504.53C90.299 504.53 89.8 504.73 89.408 505.131C89.0161 505.532 88.8019 505.983 88.7654 506.485L92.908 506.478ZM103.681 505.227C103.412 505.017 103.138 504.865 102.86 504.769C102.582 504.673 102.277 504.625 101.944 504.625C101.16 504.625 100.561 504.871 100.146 505.364C99.7318 505.856 99.5244 506.567 99.5244 507.496V511.304H98.2598V503.648H99.5244V505.145C99.734 504.603 100.055 504.188 100.488 503.901C100.926 503.609 101.443 503.463 102.04 503.463C102.35 503.463 102.639 503.502 102.908 503.579C103.177 503.657 103.435 503.778 103.681 503.942V505.227Z" fill="#004390"/>
<rect x="140" y="218.692" width="400" height="54.4" rx="8.704" fill="#A6CCFF"/>
<path d="M294.026 244.015C294.181 243.687 294.376 243.445 294.613 243.29C294.855 243.131 295.144 243.051 295.482 243.051C296.097 243.051 296.53 243.29 296.78 243.769C297.036 244.243 297.163 245.138 297.163 246.455V250.892H296.015V246.51C296.015 245.43 295.953 244.76 295.83 244.5C295.712 244.236 295.493 244.104 295.174 244.104C294.809 244.104 294.559 244.245 294.422 244.528C294.29 244.806 294.224 245.467 294.224 246.51V250.892H293.075V246.51C293.075 245.416 293.009 244.742 292.877 244.487C292.75 244.231 292.517 244.104 292.18 244.104C291.847 244.104 291.615 244.245 291.483 244.528C291.355 244.806 291.291 245.467 291.291 246.51V250.892H290.15V243.236H291.291V243.892C291.442 243.619 291.628 243.411 291.852 243.27C292.08 243.124 292.337 243.051 292.624 243.051C292.971 243.051 293.258 243.131 293.486 243.29C293.718 243.45 293.898 243.691 294.026 244.015ZM303.479 247.043H303.062C302.328 247.043 301.774 247.173 301.401 247.433C301.032 247.688 300.847 248.071 300.847 248.581C300.847 249.042 300.986 249.399 301.264 249.655C301.542 249.91 301.927 250.037 302.419 250.037C303.112 250.037 303.657 249.798 304.053 249.32C304.45 248.837 304.65 248.171 304.655 247.324V247.043H303.479ZM305.919 246.524V250.892H304.655V249.757C304.386 250.213 304.046 250.55 303.636 250.769C303.23 250.983 302.736 251.09 302.153 251.09C301.373 251.09 300.751 250.871 300.286 250.434C299.822 249.992 299.589 249.402 299.589 248.663C299.589 247.811 299.874 247.164 300.444 246.722C301.018 246.28 301.859 246.059 302.966 246.059H304.655V245.861C304.65 245.25 304.495 244.808 304.19 244.535C303.884 244.257 303.397 244.118 302.727 244.118C302.299 244.118 301.866 244.179 301.428 244.302C300.991 244.425 300.564 244.605 300.15 244.842V243.584C300.615 243.407 301.059 243.274 301.483 243.188C301.911 243.097 302.326 243.051 302.727 243.051C303.36 243.051 303.9 243.145 304.347 243.331C304.798 243.518 305.163 243.799 305.441 244.172C305.614 244.4 305.737 244.683 305.81 245.02C305.883 245.353 305.919 245.854 305.919 246.524ZM310.116 243.263H313.335V249.914H315.831V250.892H309.583V249.914H312.078V244.241H310.116V243.263ZM312.078 240.289H313.335V241.875H312.078V240.289ZM324.416 246.148V250.892H323.151V246.148C323.151 245.46 323.03 244.954 322.789 244.63C322.547 244.307 322.169 244.145 321.654 244.145C321.066 244.145 320.613 244.355 320.294 244.774C319.979 245.189 319.822 245.786 319.822 246.565V250.892H318.564V243.236H319.822V244.384C320.045 243.947 320.348 243.616 320.731 243.393C321.114 243.165 321.567 243.051 322.091 243.051C322.871 243.051 323.452 243.309 323.835 243.824C324.222 244.334 324.416 245.109 324.416 246.148ZM327.204 245.943H334.45V247.098H327.204V245.943ZM342.967 246.148V250.892H341.702V246.148C341.702 245.46 341.581 244.954 341.34 244.63C341.098 244.307 340.72 244.145 340.205 244.145C339.617 244.145 339.164 244.355 338.845 244.774C338.53 245.189 338.373 245.786 338.373 246.565V250.892H337.115V240.255H338.373V244.384C338.596 243.947 338.899 243.616 339.282 243.393C339.665 243.165 340.118 243.051 340.643 243.051C341.422 243.051 342.003 243.309 342.386 243.824C342.773 244.334 342.967 245.109 342.967 246.148ZM352.714 246.435V247.05H347.266V247.091C347.229 248.135 347.428 248.884 347.861 249.34C348.298 249.796 348.913 250.024 349.706 250.024C350.107 250.024 350.527 249.96 350.964 249.832C351.402 249.705 351.869 249.511 352.365 249.251V250.502C351.887 250.698 351.424 250.844 350.978 250.94C350.536 251.04 350.107 251.09 349.693 251.09C348.503 251.09 347.573 250.735 346.903 250.024C346.234 249.308 345.899 248.324 345.899 247.071C345.899 245.849 346.227 244.874 346.883 244.145C347.539 243.416 348.414 243.051 349.508 243.051C350.483 243.051 351.251 243.382 351.812 244.042C352.377 244.703 352.678 245.501 352.714 246.435ZM351.456 246.066C351.402 245.537 351.208 245.081 350.875 244.699C350.547 244.311 350.073 244.118 349.453 244.118C348.847 244.118 348.348 244.318 347.956 244.719C347.564 245.12 347.35 245.571 347.314 246.073L351.456 246.066ZM359.132 247.043H358.715C357.981 247.043 357.428 247.173 357.054 247.433C356.685 247.688 356.5 248.071 356.5 248.581C356.5 249.042 356.639 249.399 356.917 249.655C357.195 249.91 357.58 250.037 358.073 250.037C358.765 250.037 359.31 249.798 359.706 249.32C360.103 248.837 360.303 248.171 360.308 247.324V247.043H359.132ZM361.573 246.524V250.892H360.308V249.757C360.039 250.213 359.7 250.55 359.289 250.769C358.884 250.983 358.389 251.09 357.806 251.09C357.027 251.09 356.405 250.871 355.94 250.434C355.475 249.992 355.242 249.402 355.242 248.663C355.242 247.811 355.527 247.164 356.097 246.722C356.671 246.28 357.512 246.059 358.619 246.059H360.308V245.861C360.303 245.25 360.148 244.808 359.843 244.535C359.538 244.257 359.05 244.118 358.38 244.118C357.952 244.118 357.519 244.179 357.081 244.302C356.644 244.425 356.218 244.605 355.803 244.842V243.584C356.268 243.407 356.712 243.274 357.136 243.188C357.564 243.097 357.979 243.051 358.38 243.051C359.014 243.051 359.554 243.145 360 243.331C360.451 243.518 360.816 243.799 361.094 244.172C361.267 244.4 361.39 244.683 361.463 245.02C361.536 245.353 361.573 245.854 361.573 246.524ZM369.474 244.213V240.255H370.732V250.892H369.474V249.928C369.264 250.306 368.984 250.596 368.633 250.796C368.287 250.992 367.886 251.09 367.43 251.09C366.505 251.09 365.776 250.732 365.243 250.017C364.714 249.297 364.45 248.306 364.45 247.043C364.45 245.799 364.716 244.824 365.249 244.118C365.783 243.407 366.51 243.051 367.43 243.051C367.89 243.051 368.296 243.151 368.647 243.352C368.998 243.548 369.274 243.835 369.474 244.213ZM365.776 247.071C365.776 248.046 365.931 248.782 366.241 249.279C366.551 249.775 367.009 250.024 367.615 250.024C368.221 250.024 368.681 249.773 368.996 249.272C369.315 248.771 369.474 248.037 369.474 247.071C369.474 246.1 369.315 245.366 368.996 244.87C368.681 244.368 368.221 244.118 367.615 244.118C367.009 244.118 366.551 244.366 366.241 244.863C365.931 245.359 365.776 246.095 365.776 247.071ZM380.541 246.435V247.05H375.092V247.091C375.056 248.135 375.254 248.884 375.687 249.34C376.125 249.796 376.74 250.024 377.533 250.024C377.934 250.024 378.353 249.96 378.791 249.832C379.228 249.705 379.695 249.511 380.192 249.251V250.502C379.714 250.698 379.251 250.844 378.804 250.94C378.362 251.04 377.934 251.09 377.519 251.09C376.33 251.09 375.4 250.735 374.73 250.024C374.06 249.308 373.725 248.324 373.725 247.071C373.725 245.849 374.053 244.874 374.71 244.145C375.366 243.416 376.241 243.051 377.335 243.051C378.31 243.051 379.078 243.382 379.638 244.042C380.203 244.703 380.504 245.501 380.541 246.435ZM379.283 246.066C379.228 245.537 379.034 245.081 378.702 244.699C378.374 244.311 377.9 244.118 377.28 244.118C376.674 244.118 376.175 244.318 375.783 244.719C375.391 245.12 375.177 245.571 375.14 246.073L379.283 246.066ZM390.055 244.815C389.787 244.605 389.513 244.453 389.235 244.357C388.957 244.261 388.652 244.213 388.319 244.213C387.535 244.213 386.936 244.459 386.521 244.952C386.107 245.444 385.899 246.155 385.899 247.084V250.892H384.635V243.236H385.899V244.733C386.109 244.19 386.43 243.776 386.863 243.489C387.301 243.197 387.818 243.051 388.415 243.051C388.725 243.051 389.014 243.09 389.283 243.167C389.552 243.245 389.809 243.366 390.055 243.53V244.815Z" fill="#004390"/>
<rect x="140" y="286.148" width="400" height="171.9" rx="8.704" fill="#A6CCFF"/>
<path d="M326.49 370.221C326.645 369.893 326.841 369.651 327.078 369.496C327.319 369.337 327.609 369.257 327.946 369.257C328.561 369.257 328.994 369.496 329.245 369.975C329.5 370.449 329.628 371.344 329.628 372.661V377.098H328.479V372.716C328.479 371.636 328.418 370.966 328.295 370.706C328.176 370.442 327.957 370.31 327.638 370.31C327.274 370.31 327.023 370.451 326.886 370.734C326.754 371.012 326.688 371.673 326.688 372.716V377.098H325.54V372.716C325.54 371.622 325.474 370.948 325.342 370.693C325.214 370.437 324.982 370.31 324.644 370.31C324.312 370.31 324.079 370.451 323.947 370.734C323.819 371.012 323.756 371.673 323.756 372.716V377.098H322.614V369.442H323.756V370.098C323.906 369.825 324.093 369.617 324.316 369.476C324.544 369.33 324.802 369.257 325.089 369.257C325.435 369.257 325.722 369.337 325.95 369.496C326.182 369.656 326.362 369.897 326.49 370.221ZM335.943 373.249H335.526C334.793 373.249 334.239 373.379 333.865 373.639C333.496 373.894 333.311 374.277 333.311 374.787C333.311 375.248 333.45 375.605 333.728 375.861C334.006 376.116 334.392 376.243 334.884 376.243C335.576 376.243 336.121 376.004 336.517 375.526C336.914 375.043 337.115 374.377 337.119 373.53V373.249H335.943ZM338.384 372.73V377.098H337.119V375.963C336.85 376.419 336.511 376.756 336.101 376.975C335.695 377.189 335.2 377.296 334.617 377.296C333.838 377.296 333.216 377.077 332.751 376.64C332.286 376.198 332.054 375.608 332.054 374.869C332.054 374.017 332.338 373.37 332.908 372.928C333.482 372.486 334.323 372.265 335.431 372.265H337.119V372.067C337.115 371.456 336.96 371.014 336.654 370.741C336.349 370.463 335.861 370.324 335.191 370.324C334.763 370.324 334.33 370.385 333.892 370.508C333.455 370.631 333.029 370.811 332.614 371.048V369.79C333.079 369.613 333.523 369.48 333.947 369.394C334.376 369.303 334.79 369.257 335.191 369.257C335.825 369.257 336.365 369.351 336.811 369.537C337.263 369.724 337.627 370.005 337.905 370.378C338.078 370.606 338.201 370.889 338.274 371.226C338.347 371.559 338.384 372.06 338.384 372.73ZM342.58 369.469H345.8V376.12H348.295V377.098H342.047V376.12H344.542V370.447H342.58V369.469ZM344.542 366.495H345.8V368.081H344.542V366.495ZM356.88 372.354V377.098H355.615V372.354C355.615 371.666 355.495 371.16 355.253 370.836C355.012 370.513 354.633 370.351 354.118 370.351C353.531 370.351 353.077 370.561 352.758 370.98C352.444 371.395 352.286 371.992 352.286 372.771V377.098H351.029V369.442H352.286V370.59C352.51 370.153 352.813 369.822 353.196 369.599C353.578 369.371 354.032 369.257 354.556 369.257C355.335 369.257 355.916 369.515 356.299 370.03C356.686 370.54 356.88 371.315 356.88 372.354Z" fill="#004390"/>
<rect x="140" y="471.104" width="400" height="54.4" rx="8.704" fill="#A6CCFF"/>
<path d="M294.026 496.427C294.181 496.099 294.376 495.857 294.613 495.702C294.855 495.543 295.144 495.463 295.482 495.463C296.097 495.463 296.53 495.702 296.78 496.181C297.036 496.655 297.163 497.55 297.163 498.867V503.304H296.015V498.922C296.015 497.842 295.953 497.172 295.83 496.912C295.712 496.648 295.493 496.516 295.174 496.516C294.809 496.516 294.559 496.657 294.422 496.94C294.29 497.218 294.224 497.879 294.224 498.922V503.304H293.075V498.922C293.075 497.828 293.009 497.154 292.877 496.899C292.75 496.644 292.517 496.516 292.18 496.516C291.847 496.516 291.615 496.657 291.483 496.94C291.355 497.218 291.291 497.879 291.291 498.922V503.304H290.15V495.648H291.291V496.304C291.442 496.031 291.628 495.823 291.852 495.682C292.08 495.536 292.337 495.463 292.624 495.463C292.971 495.463 293.258 495.543 293.486 495.702C293.718 495.862 293.898 496.103 294.026 496.427ZM303.479 499.455H303.062C302.328 499.455 301.774 499.585 301.401 499.845C301.032 500.1 300.847 500.483 300.847 500.993C300.847 501.454 300.986 501.812 301.264 502.067C301.542 502.322 301.927 502.45 302.419 502.45C303.112 502.45 303.657 502.21 304.053 501.732C304.45 501.249 304.65 500.583 304.655 499.736V499.455H303.479ZM305.919 498.936V503.304H304.655V502.169C304.386 502.625 304.046 502.962 303.636 503.181C303.23 503.395 302.736 503.502 302.153 503.502C301.373 503.502 300.751 503.284 300.286 502.846C299.822 502.404 299.589 501.814 299.589 501.076C299.589 500.223 299.874 499.576 300.444 499.134C301.018 498.692 301.859 498.471 302.966 498.471H304.655V498.273C304.65 497.662 304.495 497.22 304.19 496.947C303.884 496.669 303.397 496.53 302.727 496.53C302.299 496.53 301.866 496.591 301.428 496.714C300.991 496.837 300.564 497.017 300.15 497.254V495.996C300.615 495.819 301.059 495.687 301.483 495.6C301.911 495.509 302.326 495.463 302.727 495.463C303.36 495.463 303.9 495.557 304.347 495.743C304.798 495.93 305.163 496.211 305.441 496.584C305.614 496.812 305.737 497.095 305.81 497.432C305.883 497.765 305.919 498.266 305.919 498.936ZM310.116 495.675H313.335V502.326H315.831V503.304H309.583V502.326H312.078V496.653H310.116V495.675ZM312.078 492.701H313.335V494.287H312.078V492.701ZM324.416 498.56V503.304H323.151V498.56C323.151 497.872 323.03 497.366 322.789 497.042C322.547 496.719 322.169 496.557 321.654 496.557C321.066 496.557 320.613 496.767 320.294 497.186C319.979 497.601 319.822 498.198 319.822 498.977V503.304H318.564V495.648H319.822V496.796C320.045 496.359 320.348 496.028 320.731 495.805C321.114 495.577 321.567 495.463 322.091 495.463C322.871 495.463 323.452 495.721 323.835 496.236C324.222 496.746 324.416 497.521 324.416 498.56ZM327.204 498.355H334.45V499.51H327.204V498.355ZM343.049 492.667V493.713H341.62C341.169 493.713 340.854 493.807 340.677 493.993C340.504 494.176 340.417 494.502 340.417 494.971V495.648H343.049V496.625H340.417V503.304H339.159V496.625H337.115V495.648H339.159V495.115C339.159 494.276 339.351 493.659 339.733 493.262C340.121 492.866 340.722 492.667 341.538 492.667H343.049ZM349.269 496.53C348.631 496.53 348.148 496.778 347.819 497.275C347.491 497.771 347.327 498.507 347.327 499.483C347.327 500.453 347.491 501.189 347.819 501.691C348.148 502.187 348.631 502.436 349.269 502.436C349.911 502.436 350.397 502.187 350.725 501.691C351.053 501.189 351.217 500.453 351.217 499.483C351.217 498.507 351.053 497.771 350.725 497.275C350.397 496.778 349.911 496.53 349.269 496.53ZM349.269 495.463C350.331 495.463 351.142 495.807 351.702 496.495C352.267 497.184 352.55 498.179 352.55 499.483C352.55 500.791 352.27 501.789 351.709 502.477C351.149 503.16 350.335 503.502 349.269 503.502C348.207 503.502 347.396 503.16 346.835 502.477C346.275 501.789 345.994 500.791 345.994 499.483C345.994 498.179 346.275 497.184 346.835 496.495C347.396 495.807 348.207 495.463 349.269 495.463ZM358.544 496.53C357.906 496.53 357.423 496.778 357.095 497.275C356.767 497.771 356.603 498.507 356.603 499.483C356.603 500.453 356.767 501.189 357.095 501.691C357.423 502.187 357.906 502.436 358.544 502.436C359.187 502.436 359.672 502.187 360 501.691C360.328 501.189 360.492 500.453 360.492 499.483C360.492 498.507 360.328 497.771 360 497.275C359.672 496.778 359.187 496.53 358.544 496.53ZM358.544 495.463C359.606 495.463 360.417 495.807 360.978 496.495C361.543 497.184 361.826 498.179 361.826 499.483C361.826 500.791 361.545 501.789 360.985 502.477C360.424 503.16 359.611 503.502 358.544 503.502C357.482 503.502 356.671 503.16 356.111 502.477C355.55 501.789 355.27 500.791 355.27 499.483C355.27 498.179 355.55 497.184 356.111 496.495C356.671 495.807 357.482 495.463 358.544 495.463ZM367.806 493.474V495.648H370.664V496.625H367.806V500.782C367.806 501.347 367.913 501.741 368.127 501.964C368.342 502.187 368.715 502.299 369.249 502.299H370.664V503.304H369.125C368.182 503.304 367.517 503.115 367.129 502.737C366.742 502.358 366.548 501.707 366.548 500.782V496.625H364.504V495.648H366.548V493.474H367.806ZM380.541 498.847V499.462H375.092V499.503C375.056 500.547 375.254 501.297 375.687 501.752C376.125 502.208 376.74 502.436 377.533 502.436C377.934 502.436 378.353 502.372 378.791 502.244C379.228 502.117 379.695 501.923 380.192 501.663V502.914C379.714 503.11 379.251 503.256 378.804 503.352C378.362 503.452 377.934 503.502 377.519 503.502C376.33 503.502 375.4 503.147 374.73 502.436C374.06 501.72 373.725 500.736 373.725 499.483C373.725 498.261 374.053 497.286 374.71 496.557C375.366 495.828 376.241 495.463 377.335 495.463C378.31 495.463 379.078 495.794 379.638 496.454C380.203 497.115 380.504 497.913 380.541 498.847ZM379.283 498.478C379.228 497.949 379.034 497.493 378.702 497.111C378.374 496.723 377.9 496.53 377.28 496.53C376.674 496.53 376.175 496.73 375.783 497.131C375.391 497.532 375.177 497.983 375.14 498.485L379.283 498.478ZM390.055 497.227C389.787 497.017 389.513 496.865 389.235 496.769C388.957 496.673 388.652 496.625 388.319 496.625C387.535 496.625 386.936 496.871 386.521 497.364C386.107 497.856 385.899 498.567 385.899 499.496V503.304H384.635V495.648H385.899V497.145C386.109 496.603 386.43 496.188 386.863 495.901C387.301 495.609 387.818 495.463 388.415 495.463C388.725 495.463 389.014 495.502 389.283 495.579C389.552 495.657 389.809 495.778 390.055 495.942V497.227Z" fill="#004390"/>
<rect x="553.056" y="218.692" width="109.536" height="306.812" rx="8.704" fill="#A6CCFF"/>
<path d="M589.854 373.249H589.437C588.703 373.249 588.15 373.379 587.776 373.639C587.407 373.894 587.222 374.277 587.222 374.787C587.222 375.248 587.361 375.606 587.639 375.861C587.917 376.116 588.302 376.244 588.795 376.244C589.487 376.244 590.032 376.004 590.428 375.526C590.825 375.043 591.025 374.377 591.03 373.53V373.249H589.854ZM592.295 372.73V377.098H591.03V375.963C590.761 376.419 590.422 376.756 590.011 376.975C589.606 377.189 589.111 377.296 588.528 377.296C587.749 377.296 587.127 377.078 586.662 376.64C586.197 376.198 585.965 375.608 585.965 374.87C585.965 374.017 586.249 373.37 586.819 372.928C587.393 372.486 588.234 372.265 589.341 372.265H591.03V372.067C591.025 371.456 590.87 371.014 590.565 370.741C590.26 370.463 589.772 370.324 589.102 370.324C588.674 370.324 588.241 370.385 587.803 370.508C587.366 370.631 586.94 370.811 586.525 371.048V369.79C586.99 369.613 587.434 369.481 587.858 369.394C588.286 369.303 588.701 369.257 589.102 369.257C589.736 369.257 590.276 369.351 590.722 369.537C591.174 369.724 591.538 370.005 591.816 370.378C591.989 370.606 592.112 370.889 592.185 371.226C592.258 371.559 592.295 372.06 592.295 372.73ZM600.982 369.708V370.939C600.622 370.729 600.26 370.572 599.895 370.467C599.531 370.362 599.159 370.31 598.781 370.31C598.211 370.31 597.785 370.403 597.503 370.59C597.225 370.773 597.086 371.053 597.086 371.431C597.086 371.773 597.191 372.028 597.4 372.197C597.61 372.365 598.132 372.529 598.966 372.689L599.472 372.785C600.096 372.903 600.568 373.14 600.887 373.495C601.21 373.851 601.372 374.314 601.372 374.883C601.372 375.64 601.103 376.232 600.565 376.661C600.028 377.084 599.28 377.296 598.323 377.296C597.945 377.296 597.548 377.255 597.134 377.173C596.719 377.096 596.27 376.977 595.787 376.818V375.519C596.256 375.76 596.705 375.943 597.134 376.066C597.562 376.184 597.968 376.244 598.35 376.244C598.906 376.244 599.337 376.132 599.642 375.909C599.948 375.681 600.1 375.364 600.1 374.958C600.1 374.375 599.542 373.972 598.426 373.748L598.371 373.735L597.899 373.639C597.175 373.498 596.646 373.261 596.313 372.928C595.981 372.591 595.814 372.133 595.814 371.554C595.814 370.82 596.063 370.255 596.559 369.859C597.056 369.458 597.765 369.257 598.685 369.257C599.096 369.257 599.49 369.296 599.868 369.373C600.246 369.446 600.618 369.558 600.982 369.708ZM605.767 369.469H608.986V376.12H611.481V377.098H605.233V376.12H607.729V370.447H605.767V369.469ZM607.729 366.495H608.986V368.081H607.729V366.495ZM618.747 370.419V366.461H620.005V377.098H618.747V376.134C618.538 376.512 618.257 376.802 617.906 377.002C617.56 377.198 617.159 377.296 616.703 377.296C615.778 377.296 615.049 376.939 614.516 376.223C613.987 375.503 613.723 374.512 613.723 373.249C613.723 372.005 613.989 371.03 614.523 370.324C615.056 369.613 615.783 369.257 616.703 369.257C617.164 369.257 617.569 369.357 617.92 369.558C618.271 369.754 618.547 370.041 618.747 370.419ZM615.049 373.277C615.049 374.252 615.204 374.988 615.514 375.485C615.824 375.981 616.282 376.23 616.888 376.23C617.494 376.23 617.954 375.979 618.269 375.478C618.588 374.977 618.747 374.243 618.747 373.277C618.747 372.306 618.588 371.572 618.269 371.076C617.954 370.574 617.494 370.324 616.888 370.324C616.282 370.324 615.824 370.572 615.514 371.069C615.204 371.565 615.049 372.301 615.049 373.277ZM629.814 372.641V373.256H624.366V373.297C624.329 374.341 624.527 375.091 624.96 375.546C625.398 376.002 626.013 376.23 626.806 376.23C627.207 376.23 627.626 376.166 628.064 376.038C628.501 375.911 628.968 375.717 629.465 375.457V376.708C628.987 376.904 628.524 377.05 628.077 377.146C627.635 377.246 627.207 377.296 626.792 377.296C625.603 377.296 624.673 376.941 624.003 376.23C623.333 375.514 622.998 374.53 622.998 373.277C622.998 372.055 623.326 371.08 623.983 370.351C624.639 369.622 625.514 369.257 626.608 369.257C627.583 369.257 628.351 369.588 628.911 370.248C629.477 370.909 629.777 371.707 629.814 372.641ZM628.556 372.272C628.501 371.743 628.308 371.287 627.975 370.905C627.647 370.517 627.173 370.324 626.553 370.324C625.947 370.324 625.448 370.524 625.056 370.925C624.664 371.326 624.45 371.777 624.413 372.279L628.556 372.272Z" fill="#004390"/>
<rect x="17.4082" y="538.56" width="645.184" height="54.4" rx="8.704" fill="#A6CCFF"/>
<path d="M319.86 560.123V561.169H318.431C317.98 561.169 317.666 561.263 317.488 561.449C317.315 561.632 317.228 561.958 317.228 562.427V563.104H319.86V564.081H317.228V570.76H315.97V564.081H313.926V563.104H315.97V562.571C315.97 561.732 316.162 561.115 316.545 560.718C316.932 560.322 317.533 560.123 318.349 560.123H319.86ZM326.08 563.986C325.442 563.986 324.959 564.234 324.631 564.731C324.302 565.227 324.138 565.963 324.138 566.939C324.138 567.909 324.302 568.645 324.631 569.147C324.959 569.643 325.442 569.892 326.08 569.892C326.722 569.892 327.208 569.643 327.536 569.147C327.864 568.645 328.028 567.909 328.028 566.939C328.028 565.963 327.864 565.227 327.536 564.731C327.208 564.234 326.722 563.986 326.08 563.986ZM326.08 562.919C327.142 562.919 327.953 563.263 328.513 563.951C329.079 564.64 329.361 565.635 329.361 566.939C329.361 568.247 329.081 569.245 328.52 569.933C327.96 570.616 327.146 570.958 326.08 570.958C325.018 570.958 324.207 570.616 323.646 569.933C323.086 569.245 322.805 568.247 322.805 566.939C322.805 565.635 323.086 564.64 323.646 563.951C324.207 563.263 325.018 562.919 326.08 562.919ZM335.355 563.986C334.717 563.986 334.234 564.234 333.906 564.731C333.578 565.227 333.414 565.963 333.414 566.939C333.414 567.909 333.578 568.645 333.906 569.147C334.234 569.643 334.717 569.892 335.355 569.892C335.998 569.892 336.483 569.643 336.811 569.147C337.14 568.645 337.304 567.909 337.304 566.939C337.304 565.963 337.14 565.227 336.811 564.731C336.483 564.234 335.998 563.986 335.355 563.986ZM335.355 562.919C336.417 562.919 337.228 563.263 337.789 563.951C338.354 564.64 338.637 565.635 338.637 566.939C338.637 568.247 338.356 569.245 337.796 569.933C337.235 570.616 336.422 570.958 335.355 570.958C334.294 570.958 333.482 570.616 332.922 569.933C332.361 569.245 332.081 568.247 332.081 566.939C332.081 565.635 332.361 564.64 332.922 563.951C333.482 563.263 334.294 562.919 335.355 562.919ZM344.617 560.93V563.104H347.475V564.081H344.617V568.238C344.617 568.803 344.724 569.197 344.939 569.42C345.153 569.643 345.526 569.755 346.06 569.755H347.475V570.76H345.937C344.993 570.76 344.328 570.571 343.941 570.193C343.553 569.814 343.359 569.163 343.359 568.238V564.081H341.316V563.104H343.359V560.93H344.617ZM357.352 566.303V566.918H351.904V566.959C351.867 568.003 352.065 568.753 352.498 569.208C352.936 569.664 353.551 569.892 354.344 569.892C354.745 569.892 355.164 569.828 355.602 569.7C356.039 569.573 356.506 569.379 357.003 569.119V570.37C356.525 570.566 356.062 570.712 355.615 570.808C355.173 570.908 354.745 570.958 354.33 570.958C353.141 570.958 352.211 570.603 351.541 569.892C350.871 569.176 350.536 568.192 350.536 566.939C350.536 565.717 350.864 564.742 351.521 564.013C352.177 563.284 353.052 562.919 354.146 562.919C355.121 562.919 355.889 563.25 356.449 563.91C357.015 564.571 357.315 565.369 357.352 566.303ZM356.094 565.934C356.039 565.405 355.846 564.949 355.513 564.567C355.185 564.179 354.711 563.986 354.091 563.986C353.485 563.986 352.986 564.186 352.594 564.587C352.202 564.988 351.988 565.439 351.951 565.941L356.094 565.934ZM366.867 564.683C366.598 564.473 366.324 564.321 366.046 564.225C365.768 564.129 365.463 564.081 365.13 564.081C364.346 564.081 363.747 564.327 363.332 564.82C362.918 565.312 362.71 566.023 362.71 566.952V570.76H361.446V563.104H362.71V564.601C362.92 564.059 363.241 563.644 363.674 563.357C364.112 563.065 364.629 562.919 365.226 562.919C365.536 562.919 365.825 562.958 366.094 563.035C366.363 563.113 366.621 563.234 366.867 563.398V564.683Z" fill="#004390"/>
</g>
<defs>
<clipPath id="clip0_1135_3117">
<rect width="680" height="610.368" rx="17.408" fill="white"/>
</clipPath>
</defs>
</svg>