<svg class="logo" xmlns="http://www.w3.org/2000/svg" width="277" height="211" viewBox="0 0 277 211"><g fill="none" fill-rule="evenodd"><path fill="#var(--wa-brand-orange, #F36944)" d="M159.275,20.7541243 C159.275,28.4927904 155.035053,35.2422161 148.749528,38.8106604 L193.9,72.6391714 L238.157213,58.6776414 C236.43401,55.6537326 235.45,52.1547058 235.45,48.42629 C235.45,36.96411 244.751396,27.6721657 256.225,27.6721657 C267.698604,27.6721657 277,36.96411 277,48.42629 C277,59.8883646 267.698604,69.1804143 256.225,69.1804143 C255.131246,69.1804143 254.057541,69.0960801 253.00969,68.9332096 L204.251886,193.411571 C200.096886,204.019762 189.858966,211 178.45659,211 L98.5434095,211 C87.1410343,211 76.9031143,204.019762 72.7481143,193.411571 L23.990205,68.9332096 C22.9423008,69.0960801 21.8685432,69.1804143 20.775,69.1804143 C9.30129067,69.1804143 0,59.8883646 0,48.42629 C0,36.96411 9.30129067,27.6721657 20.775,27.6721657 C32.2487093,27.6721657 41.55,36.96411 41.55,48.42629 C41.55,52.1547058 40.5658322,55.6537326 38.842945,58.6776414 L83.1,72.6391714 L128.250472,38.8106604 C121.964947,35.2422161 117.725,28.4927904 117.725,20.7541243 C117.725,9.29194428 127.026396,0 138.5,0 C149.973604,0 159.275,9.29194428 159.275,20.7541243 Z"/></g></svg>
