<svg width="20" height="20" viewBox="0 0 20 20" fill="none" xmlns="http://www.w3.org/2000/svg">
<path d="M11.63 3.625C11.63 4.27911 11.2435 4.84296 10.6865 5.10064L14 8L17.2622 7.34755C17.0968 7.10642 17 6.81452 17 6.5C17 5.67157 17.6716 5 18.5 5C19.3284 5 20 5.67157 20 6.5C20 7.31157 19.3555 7.9726 18.5504 7.99917L15.0307 15.8207C14.7077 16.5384 13.9939 17 13.2068 17H6.79317C6.00615 17 5.29229 16.5384 4.96933 15.8207L1.44963 7.99917C0.64452 7.9726 0 7.31157 0 6.5C0 5.67157 0.671573 5 1.5 5C2.32843 5 3 5.67157 3 6.5C3 6.81452 2.9032 7.10642 2.73777 7.34755L6 8L9.31702 5.09761C8.76346 4.83855 8.38 4.27656 8.38 3.625C8.38 2.72754 9.10754 2 10.005 2C10.9025 2 11.63 2.72754 11.63 3.625Z" fill="currentColor"/>
</svg>
