<svg width="24" height="24" viewBox="0 0 24 24" fill="none" xmlns="http://www.w3.org/2000/svg">
<path d="M19 12C19 9.77102 18.2951 8.04265 17.1262 6.87377C15.9573 5.70489 14.229 5 12 5C10.3658 5 9.00157 5.37939 7.93136 6.03946C8.74864 6.93246 9.41255 7.84526 9.68543 8.2331C9.89663 8.5333 10 8.88437 10 9.23333C10 10.209 9.20903 11 8.23333 11H4C2.89543 11 2 10.1046 2 9V4.76667C2 3.79097 2.79097 3 3.76667 3C4.11563 3 4.46671 3.10337 4.7669 3.31457C5.08102 3.53558 5.73951 4.0131 6.45293 4.62086C7.9538 3.55478 9.85078 3 12 3C14.6599 3 16.9315 3.85066 18.5404 5.45956C20.1493 7.06846 21 9.34009 21 12C21 14.6599 20.1493 16.9315 18.5404 18.5404C16.9315 20.1493 14.6599 21 12 21C8.31423 21 5.40232 19.3601 3.96313 16.4424C3.71882 15.9471 3.92229 15.3475 4.41759 15.1032C4.9129 14.8589 5.51248 15.0623 5.7568 15.5576C6.80461 17.6819 8.94409 19 12 19C14.229 19 15.9573 18.2951 17.1262 17.1262C18.2951 15.9573 19 14.229 19 12Z" fill="black"/>
</svg>
