<svg width="24" height="24" viewBox="0 0 24 24" fill="none" xmlns="http://www.w3.org/2000/svg">
<path d="M3.55969 15.5192C3.18561 15.0961 3 14.5618 3 14.0248C3 12.9688 3.72884 12.0061 4.83168 11.8133C5.63191 11.6734 6.86059 11.4961 8.45339 11.3782C8.7845 11.3536 9.00053 11.0665 8.96539 10.7854L8.21848 4.81009C8.03196 3.31796 9.19543 2 10.6992 2L13.3008 2C14.8046 2 15.968 3.31795 15.7815 4.81009L15.0346 10.7854C14.9995 11.0665 15.2155 11.3536 15.5466 11.3782C17.1394 11.4961 18.3681 11.6734 19.1683 11.8133C20.2712 12.0061 21 12.9688 21 14.0248C21 14.5618 20.8144 15.0961 20.4403 15.5192C19.4826 16.6023 16.3494 19.9838 12.9361 21.7721C12.6384 21.9281 12.3157 22 12 22C11.6843 22 11.3616 21.9281 11.0639 21.7721C7.65062 19.9838 4.51736 16.6023 3.55969 15.5192Z" fill="black"/>
</svg>
