<svg width="24" height="24" viewBox="0 0 24 24" fill="none" xmlns="http://www.w3.org/2000/svg">
<path fill-rule="evenodd" clip-rule="evenodd" d="M6.14461 6.14461C4.80211 7.4871 4 9.46547 4 12C4 14.5345 4.80211 16.5129 6.14461 17.8554C7.4871 19.1979 9.46547 20 12 20C14.2887 20 16.1227 19.3452 17.4418 18.2349C17.8643 17.8793 18.4952 17.9335 18.8508 18.356C19.2064 18.7786 19.1522 19.4094 18.7297 19.7651C16.9898 21.2296 14.6747 22 12 22C9.03453 22 6.5129 21.0521 4.73039 19.2696C2.94789 17.4871 2 14.9655 2 12C2 9.03453 2.94789 6.5129 4.73039 4.73039C6.5129 2.94789 9.03453 2 12 2C14.9655 2 17.4871 2.94789 19.2696 4.73039C21.0521 6.5129 22 9.03453 22 12V12.5C22 14.433 20.433 16 18.5 16C17.5735 16 16.7311 15.64 16.105 15.0523C15.9617 15.2553 15.8013 15.4463 15.6238 15.6238C14.7093 16.5382 13.4377 17 12 17C10.5623 17 9.29068 16.5382 8.37623 15.6238C7.46177 14.7093 7 13.4377 7 12C7 10.5623 7.46177 9.29068 8.37623 8.37623C9.29068 7.46177 10.5623 7 12 7C13.4377 7 14.7093 7.46177 15.6238 8.37623C16.5382 9.29068 17 10.5623 17 12V12.5C17 13.3284 17.6716 14 18.5 14C19.3284 14 20 13.3284 20 12.5V12C20 9.46547 19.1979 7.4871 17.8554 6.14461C16.5129 4.80211 14.5345 4 12 4C9.46547 4 7.4871 4.80211 6.14461 6.14461ZM15 12C15 10.9932 14.684 10.2649 14.2096 9.79044C13.7351 9.316 13.0068 9 12 9C10.9932 9 10.2649 9.316 9.79044 9.79044C9.316 10.2649 9 10.9932 9 12C9 13.0068 9.316 13.7351 9.79044 14.2096C10.2649 14.684 10.9932 15 12 15C13.0068 15 13.7351 14.684 14.2096 14.2096C14.684 13.7351 15 13.0068 15 12Z" fill="black"/>
</svg>
