<svg width="24" height="24" viewBox="0 0 24 24" fill="none" xmlns="http://www.w3.org/2000/svg">
<path fill-rule="evenodd" clip-rule="evenodd" d="M4 3C3.44772 3 3 3.44772 3 4C3 4.55228 3.44772 5 4 5H5V19H4C3.44772 19 3 19.4477 3 20C3 20.5523 3.44772 21 4 21H16C17.4377 21 18.7093 20.5382 19.6238 19.6238C20.5382 18.7093 21 17.4377 21 16C21 14.5623 20.5382 13.2907 19.6238 12.3762C19.142 11.8945 18.5612 11.5384 17.9091 11.3092C18.6342 10.4275 19 9.27952 19 8C19 6.56231 18.5382 5.29068 17.6238 4.37623C16.7093 3.46177 15.4377 3 14 3H4ZM14 11C15.0068 11 15.7351 10.684 16.2096 10.2096C16.684 9.73512 17 9.00676 17 8C17 6.99324 16.684 6.26488 16.2096 5.79044C15.7351 5.316 15.0068 5 14 5H7V11H14ZM7 13V19H16C17.0068 19 17.7351 18.684 18.2096 18.2096C18.684 17.7351 19 17.0068 19 16C19 14.9932 18.684 14.2649 18.2096 13.7904C17.7351 13.316 17.0068 13 16 13H7Z" fill="black"/>
</svg>
