<svg width="24" height="24" viewBox="0 0 24 24" fill="none" xmlns="http://www.w3.org/2000/svg">
<path d="M9.88069 3.4072C10.5938 3.60721 10.9999 4.30652 10.9999 5.04711V14C10.9999 14.5523 11.4476 15 11.9999 15C12.5522 15 12.9999 14.5523 12.9999 14V5.04711C12.9999 4.30651 13.406 3.60719 14.1191 3.40719C15.1323 3.12299 16.4129 3 17.9999 3C19.022 3 19.9569 3.6552 20.2511 4.67711C20.7737 6.49251 21.8292 10.6314 21.9814 14.965C22.0214 16.1051 21.0954 17 19.9999 17C17.3159 17 15.5069 17.3842 14.405 17.9672C13.8313 18.2708 13.4625 18.6168 13.2473 19H19.9999C20.5522 19 20.9999 19.4477 20.9999 20C20.9999 20.5523 20.5522 21 19.9999 21H3.99988C3.44759 21 2.99988 20.5523 2.99988 20C2.99988 19.4477 3.44759 19 3.99988 19H10.7524C10.5372 18.6168 10.1684 18.2708 9.59469 17.9672C8.49277 17.3842 6.68382 17 3.99986 17C2.90432 17 1.9783 16.1051 2.01834 14.965C2.17053 10.6314 3.22599 6.49251 3.74861 4.67711C4.0428 3.6552 4.97776 3 5.99986 3C7.58683 3 8.86746 3.123 9.88069 3.4072Z" fill="black"/>
</svg>
