<svg width="24" height="24" viewBox="0 0 24 24" fill="none" xmlns="http://www.w3.org/2000/svg">
<path d="M11 2C9.73019 2 8.64499 2.06215 7.74229 2.25685C6.82834 2.45398 6.0349 2.80089 5.41789 3.41789C4.80089 4.0349 4.45398 4.82834 4.25685 5.74229C4.06215 6.64499 4 7.73019 4 9V18.6667C4 20.5076 5.49238 22 7.33333 22C8.38252 22 9.37049 21.506 10 20.6667L12 18L14 20.6667C14.6295 21.506 15.6175 22 16.6667 22C18.5076 22 20 20.5076 20 18.6667V9C20 7.73019 19.9378 6.64499 19.7431 5.74229C19.546 4.82834 19.1991 4.0349 18.5821 3.41789C17.9651 2.80089 17.1717 2.45398 16.2577 2.25685C15.355 2.06215 14.2698 2 13 2H11Z" fill="black"/>
</svg>
