<svg width="24" height="24" viewBox="0 0 24 24" fill="none" xmlns="http://www.w3.org/2000/svg">
<path fill-rule="evenodd" clip-rule="evenodd" d="M12 2C9.03453 2 6.5129 2.94789 4.73039 4.73039C2.94789 6.5129 2 9.03453 2 12C2 14.9655 2.94789 17.4871 4.73039 19.2696C6.5129 21.0521 9.03453 22 12 22C14.9655 22 17.4871 21.0521 19.2696 19.2696C21.0521 17.4871 22 14.9655 22 12C22 9.03453 21.0521 6.5129 19.2696 4.73039C17.4871 2.94789 14.9655 2 12 2ZM13.5 7.5C13.5 8.32843 12.8284 9 12 9C11.1716 9 10.5 8.32843 10.5 7.5C10.5 6.67157 11.1716 6 12 6C12.8284 6 13.5 6.67157 13.5 7.5ZM10 10C9.44772 10 9 10.4477 9 11C9 11.5523 9.44772 12 10 12H11V16H10C9.44772 16 9 16.4477 9 17C9 17.5523 9.44772 18 10 18H14C14.5523 18 15 17.5523 15 17C15 16.4477 14.5523 16 14 16H13V12C13 10.8954 12.1046 10 11 10H10Z" fill="black"/>
</svg>
