<svg width="24" height="24" viewBox="0 0 24 24" fill="none" xmlns="http://www.w3.org/2000/svg">
<path d="M13 8C13 7.44772 12.5523 7 12 7C11.4477 7 11 7.44772 11 8V11H8C7.44772 11 7 11.4477 7 12C7 12.5523 7.44772 13 8 13H11V16C11 16.5523 11.4477 17 12 17C12.5523 17 13 16.5523 13 16V13H16C16.5523 13 17 12.5523 17 12C17 11.4477 16.5523 11 16 11H13V8Z" fill="black"/>
<path fill-rule="evenodd" clip-rule="evenodd" d="M12 2C9.03453 2 6.5129 2.94789 4.73039 4.73039C2.94789 6.5129 2 9.03453 2 12C2 14.9655 2.94789 17.4871 4.73039 19.2696C6.5129 21.0521 9.03453 22 12 22C14.9655 22 17.4871 21.0521 19.2696 19.2696C21.0521 17.4871 22 14.9655 22 12C22 9.03453 21.0521 6.5129 19.2696 4.73039C17.4871 2.94789 14.9655 2 12 2ZM4 12C4 9.46547 4.80211 7.4871 6.14461 6.14461C7.4871 4.80211 9.46547 4 12 4C14.5345 4 16.5129 4.80211 17.8554 6.14461C19.1979 7.4871 20 9.46547 20 12C20 14.5345 19.1979 16.5129 17.8554 17.8554C16.5129 19.1979 14.5345 20 12 20C9.46547 20 7.4871 19.1979 6.14461 17.8554C4.80211 16.5129 4 14.5345 4 12Z" fill="black"/>
</svg>
