<svg width="24" height="24" viewBox="0 0 24 24" fill="none" xmlns="http://www.w3.org/2000/svg">
<path fill-rule="evenodd" clip-rule="evenodd" d="M2 13C2 14.2698 2.06215 15.355 2.25685 16.2577C2.45398 17.1717 2.80089 17.9651 3.41789 18.5821C4.0349 19.1991 4.82834 19.546 5.74229 19.7431C6.64499 19.9378 7.73019 20 9 20L15 20C16.2698 20 17.355 19.9378 18.2577 19.7431C19.1717 19.546 19.9651 19.1991 20.5821 18.5821C21.1991 17.9651 21.546 17.1717 21.7431 16.2577C21.9378 15.355 22 14.2698 22 13C22 12.5323 22.0079 12.027 22.0094 11.5048C22.011 10.918 21.4975 10.4708 20.9137 10.5299C20.6189 10.5597 20.3021 10.5903 19.9655 10.6209C17.8833 10.8102 15.0391 11 12 11C8.96087 11 6.11665 10.8102 4.03446 10.6209C3.69794 10.5903 3.3811 10.5597 3.0863 10.5299C2.50254 10.4708 1.98898 10.918 1.99065 11.5048C1.99213 12.0272 2 12.5322 2 13ZM13 14C12.4477 14 12 14.4477 12 15C12 15.5523 12.4477 16 13 16H17C17.5523 16 18 15.5523 18 15C18 14.4477 17.5523 14 17 14H13Z" fill="black"/>
<path d="M20.5821 5.41789C21.0931 5.92891 21.4232 6.62081 21.6356 7.4057C21.7832 7.95145 21.3773 8.47209 20.8148 8.52962C20.4979 8.56204 20.1534 8.59557 19.7845 8.62911C17.7417 8.81482 14.9609 9 12 9C9.03913 9 6.25835 8.81482 4.21554 8.62911C3.84663 8.59557 3.50208 8.56204 3.18519 8.52962C2.62275 8.47209 2.21678 7.95145 2.36443 7.4057C2.57678 6.62081 2.90688 5.92891 3.41789 5.41789C4.0349 4.80089 4.82834 4.45398 5.74229 4.25685C6.64499 4.06215 7.73019 4 9 4H15C16.2698 4 17.355 4.06215 18.2577 4.25685C19.1717 4.45398 19.9651 4.80089 20.5821 5.41789Z" fill="black"/>
</svg>
