<svg width="24" height="24" viewBox="0 0 24 24" fill="none" xmlns="http://www.w3.org/2000/svg">
<path fill-rule="evenodd" clip-rule="evenodd" d="M9.68693 3.52523C10.0835 2.59994 10.9933 2 12 2C13.0067 2 13.9165 2.59994 14.3131 3.52523L16.4456 8.5011L18.1096 7.39174C18.4928 7.1363 18.9429 7 19.4034 7C20.8587 7 21.9586 8.31795 21.6983 9.7497L20.1957 18.0138C20.0009 19.085 19.2226 20.0141 18.091 20.2846C16.8118 20.5903 14.6128 21 12 21C9.38714 21 7.1882 20.5903 5.90901 20.2846C4.77735 20.0141 3.99905 19.085 3.80428 18.0138L2.30172 9.7497C2.0414 8.31795 3.14132 7 4.59656 7C5.05704 7 5.50722 7.1363 5.89037 7.39174L7.55441 8.5011L9.68693 3.52523ZM12 16C13.2222 16 14 15.2222 14 14C14 12.7778 13.2222 12 12 12C10.7778 12 10 12.7778 10 14C10 15.2222 10.7778 16 12 16Z" fill="black"/>
</svg>
