<svg width="24" height="24" viewBox="0 0 24 24" fill="none" xmlns="http://www.w3.org/2000/svg">
<path d="M21.176 6.19619C21.3744 6.5401 21.2793 6.96811 20.9935 7.24373C20.5453 7.67593 20.0342 8.14047 19.4732 8.60428C17.319 10.3852 14.6142 12 12 12C9.38589 12 6.68106 10.3852 4.5269 8.60428C3.96588 8.14047 3.45473 7.67593 3.00656 7.24372C2.72077 6.9681 2.62563 6.5401 2.82404 6.19619C2.98728 5.91324 3.18302 5.65278 3.41791 5.41789C4.03492 4.80089 4.82836 4.45398 5.74231 4.25685C6.64501 4.06215 7.73021 4 9.00002 4H15C16.2698 4 17.355 4.06215 18.2577 4.25685C19.1717 4.45398 19.9651 4.80089 20.5821 5.41789C20.817 5.65278 21.0128 5.91325 21.176 6.19619Z" fill="black"/>
<path d="M2 13C2 14.2698 2.06215 15.355 2.25685 16.2577C2.45398 17.1717 2.80089 17.9651 3.41789 18.5821C4.0349 19.1991 4.82834 19.546 5.74229 19.7432C6.64499 19.9379 7.73019 20 9 20H15C16.2698 20 17.355 19.9379 18.2577 19.7432C19.1717 19.546 19.9651 19.1991 20.5821 18.5821C21.1991 17.9651 21.546 17.1717 21.7431 16.2577C21.9378 15.355 22 14.2698 22 13V11C22 10.8929 21.9996 10.7871 21.9986 10.6826C21.993 10.0422 21.2411 9.73764 20.7475 10.1457C18.5168 11.9898 15.3467 14 12 14C8.65336 14 5.48318 11.9898 3.25254 10.1457C2.7589 9.73763 2.00705 10.0422 2.00137 10.6827C2.00044 10.7871 2 10.8929 2 11V13Z" fill="black"/>
</svg>
