<svg width="24" height="24" viewBox="0 0 24 24" fill="none" xmlns="http://www.w3.org/2000/svg">
<path fill-rule="evenodd" clip-rule="evenodd" d="M12 2C9.03453 2 6.5129 2.94789 4.73039 4.73039C2.94789 6.5129 2 9.03453 2 12C2 14.9655 2.94789 17.4871 4.73039 19.2696C6.5129 21.0521 9.03453 22 12 22C14.9655 22 17.4871 21.0521 19.2696 19.2696C21.0521 17.4871 22 14.9655 22 12C22 9.03453 21.0521 6.5129 19.2696 4.73039C17.4871 2.94789 14.9655 2 12 2ZM16.7292 13.1679C17.1888 13.4742 17.313 14.0951 17.0067 14.5546C15.943 16.1505 14.1449 17 12 17C11.1634 17 10.3772 16.8719 9.66239 16.6155C9.14253 16.4291 8.87226 15.8565 9.05871 15.3366C9.24517 14.8168 9.81775 14.5465 10.3376 14.733C10.8121 14.9032 11.367 15 12 15C13.6012 15 14.7141 14.3882 15.3425 13.4454C15.6488 12.9858 16.2697 12.8616 16.7292 13.1679ZM9 9C9 8.44772 8.55228 8 8 8C7.44772 8 7 8.44772 7 9V11C7 11.5523 7.44772 12 8 12C8.55228 12 9 11.5523 9 11V9ZM14 9C14 8.44772 13.5523 8 13 8C12.4477 8 12 8.44772 12 9V11C12 11.5523 12.4477 12 13 12C13.5523 12 14 11.5523 14 11V9Z" fill="black"/>
</svg>
