<svg width="24" height="24" viewBox="0 0 24 24" fill="none" xmlns="http://www.w3.org/2000/svg">
<path d="M5 21C5 21.5523 4.55228 22 4 22C3.44772 22 3 21.5523 3 21V5.44152C3 4.15891 3.82614 2.97242 5.12696 2.62784C6.18152 2.34849 7.7336 2 9 2C10.2395 2 11.4242 2.59327 12.3527 3.05828L12.4472 3.10557C13.5053 3.6346 14.282 4 15 4C15.6069 4 16.362 3.89049 17.1171 3.73409C18.9969 3.34474 21 4.69891 21 6.77485V13.5585C21 14.8411 20.1739 16.0276 18.873 16.3722C17.8185 16.6515 16.2664 17 15 17C13.7605 17 12.5758 16.4067 11.6473 15.9417L11.5528 15.8944C10.4947 15.3654 9.71801 15 9 15C8.75396 15 8.48558 15.0179 8.20489 15.049C7.57744 15.1187 7 14.6528 7 14.0215V8C7 7.44772 6.55228 7 6 7C5.44772 7 5 7.44772 5 8V21Z" fill="black"/>
</svg>
