<svg width="24" height="24" viewBox="0 0 24 24" fill="none" xmlns="http://www.w3.org/2000/svg">
<path fill-rule="evenodd" clip-rule="evenodd" d="M11.0099 19.1414C10.8153 17.7789 10.5329 16.3751 10.2051 15H3.79466C3.46692 16.3751 3.18449 17.7789 2.98984 19.1414C2.91174 19.6882 2.40521 20.0681 1.85847 19.99C1.31174 19.9119 0.93184 19.4053 1.00994 18.8586C1.85106 12.9708 4.2393 6.43368 5.0444 4.3357C5.35983 3.51371 6.14554 3 6.99989 3C7.85424 3 8.63995 3.5137 8.95539 4.3357C9.76049 6.43369 12.1487 12.9708 12.9898 18.8586C13.0679 19.4053 12.688 19.9119 12.1413 19.99C11.5946 20.0681 11.088 19.6882 11.0099 19.1414ZM6.91163 5.05224C6.91756 5.03678 6.9267 5.0256 6.93962 5.01688C6.95318 5.00772 6.97317 5 6.99989 5C7.02662 5 7.04661 5.00772 7.06016 5.01688C7.07309 5.0256 7.08223 5.03678 7.08816 5.05224C7.59974 6.38537 8.73276 9.47044 9.69365 13H4.30614C5.26703 9.47043 6.40005 6.38536 6.91163 5.05224Z" fill="black"/>
<path fill-rule="evenodd" clip-rule="evenodd" d="M18.4999 11C17.215 11 16.0683 11.4132 15.2407 12.2408C14.4131 13.0685 13.9999 14.2151 13.9999 15.5C13.9999 16.7849 14.4131 17.9315 15.2407 18.7592C16.0683 19.5868 17.215 20 18.4999 20C19.7848 20 20.9314 19.5868 21.7591 18.7592C21.7859 18.7323 21.8124 18.7051 21.8383 18.6776L22.0512 19.3162C22.2259 19.8402 22.7922 20.1233 23.3161 19.9487C23.8401 19.774 24.1232 19.2077 23.9486 18.6838L23.3591 16.9154C23.1212 16.2016 22.9999 15.4542 22.9999 14.7018L22.9999 11.5C22.9999 10.9477 22.5522 10.5 21.9999 10.5C21.4476 10.5 20.9999 10.9477 20.9999 11.5V11.6473C20.2841 11.2156 19.4281 11 18.4999 11ZM15.9999 15.5C15.9999 14.646 16.2673 14.0427 16.6549 13.655C17.0425 13.2674 17.6459 13 18.4999 13C19.3539 13 19.9572 13.2674 20.3449 13.655C20.7325 14.0427 20.9999 14.646 20.9999 15.5C20.9999 16.354 20.7325 16.9573 20.3449 17.345C19.9572 17.7326 19.3539 18 18.4999 18C17.6459 18 17.0425 17.7326 16.6549 17.345C16.2673 16.9573 15.9999 16.354 15.9999 15.5Z" fill="black"/>
</svg>
