<svg width="24" height="24" viewBox="0 0 24 24" fill="none" xmlns="http://www.w3.org/2000/svg">
<path d="M12.3398 2.56834C12.1595 2.3405 11.8207 2.3405 11.6405 2.56834C10.9564 3.43318 10.3681 4.57918 9.91785 5.93024C9.36237 7.59706 9.03819 9.51408 8.98733 11.46C8.9803 11.7289 9.19303 11.9505 9.46185 11.9593C10.2487 11.9852 11.0945 11.9999 12 11.9999C12.8979 11.9999 13.737 11.9854 14.5183 11.96C14.7871 11.9512 15 11.7296 14.9929 11.4607C14.9421 9.51452 14.618 7.59725 14.0624 5.93024C13.6122 4.57918 13.0239 3.43318 12.3398 2.56834Z" fill="black"/>
<path d="M8.28067 2.56962C8.69929 2.43035 9.04024 2.89485 8.84347 3.28971C8.52795 3.92283 8.25379 4.59771 8.02044 5.29791C7.40812 7.1353 7.05576 9.20896 6.99112 11.299C6.98219 11.5875 6.73708 11.8147 6.44935 11.7914C5.41622 11.7081 4.54257 11.6084 3.82415 11.5093C3.27631 11.4338 2.81866 11.3585 2.44934 11.291C2.20432 11.2463 2.03281 11.0241 2.05594 10.7761C2.28311 8.3399 3.19857 6.26219 4.73041 4.73034C5.70782 3.75293 6.90747 3.02646 8.28067 2.56962Z" fill="black"/>
<path d="M7.09399 14.2707C7.06927 14.0244 6.87215 13.8296 6.6253 13.8112C5.40806 13.72 4.38513 13.6056 3.55088 13.4906C3.24576 13.4485 2.96591 13.4063 2.71104 13.3652C2.38334 13.3122 2.08989 13.5816 2.13949 13.9099C2.46304 16.0507 3.34443 17.8836 4.73041 19.2696C5.70782 20.247 6.90747 20.9734 8.28067 21.4303C8.69929 21.5695 9.04024 21.105 8.84346 20.7102C8.52795 20.0771 8.25378 19.4022 8.02044 18.702C7.56206 17.3265 7.24937 15.8187 7.09399 14.2707Z" fill="black"/>
<path d="M11.6405 21.4316C11.8207 21.6594 12.1595 21.6594 12.3398 21.4316C13.0239 20.5667 13.6122 19.4207 14.0624 18.0697C14.4282 16.9721 14.6937 15.766 14.8469 14.5146C14.8836 14.2147 14.6404 13.9577 14.3384 13.9665C13.6059 13.9879 12.8267 13.9999 12 13.9999C11.1659 13.9999 10.3801 13.9877 9.64192 13.9659C9.3399 13.957 9.09661 14.214 9.13331 14.514C9.28649 15.7656 9.55201 16.9719 9.91785 18.0697C10.3681 19.4207 10.9564 20.5667 11.6405 21.4316Z" fill="black"/>
<path d="M15.9598 5.29791C15.7256 4.59497 15.4502 3.91756 15.1331 3.28229C14.9362 2.88789 15.2762 2.4234 15.6948 2.56148C17.0783 3.01781 18.2864 3.7471 19.2696 4.73034C20.8015 6.26219 21.7169 8.3399 21.9441 10.7761C21.9672 11.0241 21.7957 11.2463 21.5507 11.291C21.1814 11.3585 20.7237 11.4338 20.1759 11.5093C19.4529 11.6091 18.5726 11.7094 17.5308 11.793C17.2431 11.8162 16.9981 11.589 16.9892 11.3005C16.9247 9.20998 16.5723 7.13576 15.9598 5.29791Z" fill="black"/>
<path d="M15.9598 18.702C15.7256 19.4049 15.4502 20.0823 15.1331 20.7176C14.9362 21.112 15.2762 21.5765 15.6948 21.4384C17.0783 20.9821 18.2864 20.2528 19.2696 19.2696C20.6556 17.8836 21.537 16.0507 21.8605 13.9099C21.9101 13.5816 21.6167 13.3122 21.289 13.3652C21.0341 13.4063 20.7543 13.4485 20.4492 13.4906C19.6104 13.6063 18.5809 13.7213 17.355 13.8126C17.1081 13.831 16.9109 14.0258 16.8861 14.2722C16.7307 15.8197 16.418 17.327 15.9598 18.702Z" fill="black"/>
</svg>
