<svg width="24" height="24" viewBox="0 0 24 24" fill="none" xmlns="http://www.w3.org/2000/svg">
<path d="M6.83678 3.98662C6.29201 3.89583 5.92281 3.38041 6.01361 2.83564C6.10439 2.29091 6.61955 1.9229 7.16428 2.01362C7.32785 2.04054 7.49295 2.06477 7.65705 2.08821C7.97655 2.13385 8.43485 2.19497 8.98543 2.25615C10.0902 2.3789 11.5504 2.50003 13 2.50003C14.4496 2.50003 15.9098 2.3789 17.0146 2.25615C17.5651 2.19497 18.0234 2.13385 18.343 2.08821C18.507 2.06477 18.6722 2.04054 18.8357 2.01362C19.3804 1.92291 19.8956 2.29091 19.9864 2.83564C20.0772 3.38041 19.7092 3.89563 19.1644 3.98643C18.9852 4.01568 18.8056 4.04243 18.6258 4.06811C18.2891 4.11621 17.8099 4.18009 17.2354 4.24392C16.3105 4.34669 15.1282 4.45051 13.8908 4.48666L12.1221 19.521C13.2749 19.5625 14.3683 19.6598 15.2354 19.7562C15.8099 19.82 16.2891 19.8839 16.6258 19.932C16.8052 19.9576 16.9845 19.984 17.1632 20.0134C17.708 20.1042 18.0772 20.6197 17.9864 21.1644C17.8956 21.7092 17.3805 22.0772 16.8357 21.9865C16.6722 21.9596 16.507 21.9353 16.343 21.9119C16.0234 21.8662 15.5651 21.8051 15.0146 21.7439C13.9098 21.6212 12.4496 21.5 11 21.5C9.55038 21.5 8.09019 21.6212 6.98543 21.7439C6.43485 21.8051 5.97655 21.8662 5.65705 21.9119C5.49295 21.9353 5.3289 21.9594 5.16532 21.9863C4.6206 22.077 4.10439 21.7092 4.01361 21.1644C3.92281 20.6197 4.29083 20.1044 4.8356 20.0136C5.01437 19.9842 5.19485 19.9576 5.3742 19.932C5.71095 19.8839 6.19015 19.82 6.76457 19.7562C7.6895 19.6534 8.8718 19.5496 10.1092 19.5134L11.8779 4.47911C10.7251 4.43754 9.63171 4.34027 8.76457 4.24392C8.19015 4.18009 7.71095 4.11621 7.3742 4.06811C7.19485 4.04249 7.01555 4.01609 6.83678 3.98662Z" fill="black"/>
</svg>
