<svg width="24" height="24" viewBox="0 0 24 24" fill="none" xmlns="http://www.w3.org/2000/svg">
<path d="M16.9999 2C13.434 2 9.99396 2.50465 7.40914 3.86508C4.75417 5.26244 2.99989 7.57686 2.99989 11C2.99989 13.2434 3.54238 15.2328 4.57832 16.8404C4.38772 17.2631 4.22063 17.6692 4.07489 18.0481C4.02143 18.1871 3.97055 18.3147 3.92171 18.4373C3.79586 18.753 3.68352 19.0348 3.57539 19.3896C3.42323 19.8888 3.26946 20.5534 3.01937 21.8039C2.91106 22.3454 3.26227 22.8723 3.80383 22.9806C4.34539 23.0889 4.87222 22.7377 4.98053 22.1961C5.23043 20.9466 5.36794 20.3682 5.4885 19.9727C5.57121 19.7013 5.64179 19.5244 5.75098 19.2508C5.80364 19.1189 5.86528 18.9644 5.94158 18.7661C6.0786 18.4098 6.23486 18.0309 6.41207 17.6392C6.57515 17.2787 6.75556 16.9083 6.95457 16.5351C7.1326 16.2014 7.32578 15.865 7.53508 15.5314C7.53703 15.5283 7.53897 15.5252 7.54088 15.5221C8.03331 14.7383 8.61336 13.9723 9.29279 13.2929L12.2928 10.2929C12.6833 9.90237 13.3165 9.90237 13.707 10.2929C14.0975 10.6834 14.0975 11.3166 13.707 11.7071L10.707 14.7071C9.34953 16.0646 8.41125 17.9162 7.80824 19.484C7.75 19.6354 7.81376 19.8065 7.95841 19.8799C9.40897 20.6169 11.1148 21 12.9999 21C16.423 21 18.7375 19.2457 20.1348 16.5907C21.4952 14.0059 21.9999 10.5658 21.9999 7C21.9999 5.4446 21.7536 4.08945 20.832 3.16789C19.9104 2.24633 18.5553 2 16.9999 2Z" fill="black"/>
</svg>
