<svg width="24" height="24" viewBox="0 0 24 24" fill="none" xmlns="http://www.w3.org/2000/svg">
<path d="M18.7574 3C17.7626 3 16.7969 3.28275 15.968 3.80365C15.5003 4.09749 15.3594 4.71478 15.6533 5.18241C15.9471 5.65004 16.5644 5.79092 17.032 5.49708C17.5449 5.17483 18.1421 5 18.7574 5C20.5482 5 22 6.45178 22 8.24264C22 9.10264 21.6584 9.92742 21.0503 10.5355L15.5355 16.0503C14.9274 16.6584 14.1026 17 13.2426 17C11.4518 17 10 15.5482 10 13.7574C10 12.8974 10.3416 12.0726 10.9497 11.4645L11.7071 10.7071C12.0976 10.3166 12.0976 9.68342 11.7071 9.29289C11.3166 8.90237 10.6834 8.90237 10.2929 9.29289L9.53553 10.0503C8.55235 11.0334 8 12.3669 8 13.7574C8 16.6528 10.3472 19 13.2426 19C14.6331 19 15.9666 18.4477 16.9497 17.4645L22.4645 11.9497C23.4477 10.9666 24 9.63307 24 8.24264C24 5.34721 21.6528 3 18.7574 3Z" fill="black"/>
<path d="M10.7574 5C9.36693 5 8.03344 5.55235 7.05025 6.53553L1.53553 12.0503C0.552347 13.0334 0 14.3669 0 15.7574C0 18.6528 2.34721 21 5.24264 21C6.23744 21 7.20306 20.7173 8.03204 20.1964C8.49967 19.9025 8.64056 19.2852 8.34672 18.8176C8.05288 18.35 7.43559 18.2091 6.96796 18.5029C6.45512 18.8252 5.85788 19 5.24264 19C3.45178 19 2 17.5482 2 15.7574C2 14.8974 2.34163 14.0726 2.94975 13.4645L8.46447 7.94975C9.07258 7.34163 9.89736 7 10.7574 7C12.5482 7 14 8.45178 14 10.2426C14 11.1026 13.6584 11.9274 13.0503 12.5355L12.2929 13.2929C11.9024 13.6834 11.9024 14.3166 12.2929 14.7071C12.6834 15.0976 13.3166 15.0976 13.7071 14.7071L14.4645 13.9497C15.4477 12.9666 16 11.6331 16 10.2426C16 7.34721 13.6528 5 10.7574 5Z" fill="black"/>
</svg>
