<svg width="24" height="24" viewBox="0 0 24 24" fill="none" xmlns="http://www.w3.org/2000/svg">
<path d="M7 4C7 3.65342 6.82055 3.33156 6.52573 3.14935C6.23092 2.96714 5.86278 2.95058 5.55279 3.10557L3.55279 4.10557C3.05881 4.35256 2.85859 4.95324 3.10557 5.44721C3.35256 5.94119 3.95324 6.14142 4.44722 5.89443L5 5.61804V10C5 10.5523 5.44772 11 6 11C6.55229 11 7 10.5523 7 10V4Z" fill="black"/>
<path d="M11 5C11 4.44772 11.4477 4 12 4H19C19.5523 4 20 4.44772 20 5C20 5.55229 19.5523 6 19 6H12C11.4477 6 11 5.55229 11 5Z" fill="black"/>
<path d="M11 12C11 11.4477 11.4477 11 12 11H19C19.5523 11 20 11.4477 20 12C20 12.5523 19.5523 13 19 13H12C11.4477 13 11 12.5523 11 12Z" fill="black"/>
<path d="M11 19C11 18.4477 11.4477 18 12 18H19C19.5523 18 20 18.4477 20 19C20 19.5523 19.5523 20 19 20H12C11.4477 20 11 19.5523 11 19Z" fill="black"/>
<path d="M3 14C3 13.4477 3.44772 13 4 13H5.54715C6.90182 13 8 14.0982 8 15.4528C8 16.5086 7.32441 17.446 6.32281 17.7798L5.30965 18.1175C5.12473 18.1792 5 18.3522 5 18.5472C5 18.7973 5.20275 19 5.45285 19H7C7.55229 19 8 19.4477 8 20C8 20.5523 7.55229 21 7 21H5.45285C4.09818 21 3 19.9018 3 18.5472C3 17.4914 3.67559 16.554 4.67719 16.2202L5.69036 15.8825C5.87527 15.8208 6 15.6478 6 15.4528C6 15.2027 5.79726 15 5.54715 15H4C3.44772 15 3 14.5523 3 14Z" fill="black"/>
</svg>
