<svg width="24" height="24" viewBox="0 0 24 24" fill="none" xmlns="http://www.w3.org/2000/svg">
<path d="M8 5C8 6.22222 7.22222 7 6 7C4.77778 7 4 6.22222 4 5C4 3.77778 4.77778 3 6 3C7.22222 3 8 3.77778 8 5Z" fill="black"/>
<path d="M6 14C7.22222 14 8 13.2222 8 12C8 10.7778 7.22222 10 6 10C4.77778 10 4 10.7778 4 12C4 13.2222 4.77778 14 6 14Z" fill="black"/>
<path d="M6 21C7.22222 21 8 20.2222 8 19C8 17.7778 7.22222 17 6 17C4.77778 17 4 17.7778 4 19C4 20.2222 4.77778 21 6 21Z" fill="black"/>
<path d="M12 4C11.4477 4 11 4.44772 11 5C11 5.55228 11.4477 6 12 6H19C19.5523 6 20 5.55228 20 5C20 4.44772 19.5523 4 19 4H12Z" fill="black"/>
<path d="M12 11C11.4477 11 11 11.4477 11 12C11 12.5523 11.4477 13 12 13H19C19.5523 13 20 12.5523 20 12C20 11.4477 19.5523 11 19 11H12Z" fill="black"/>
<path d="M12 18C11.4477 18 11 18.4477 11 19C11 19.5523 11.4477 20 12 20H19C19.5523 20 20 19.5523 20 19C20 18.4477 19.5523 18 19 18H12Z" fill="black"/>
</svg>
