<svg width="24" height="24" viewBox="0 0 24 24" fill="none" xmlns="http://www.w3.org/2000/svg">
<path fill-rule="evenodd" clip-rule="evenodd" d="M6.18873 4.18873C7.62401 2.75344 9.64564 2 12 2C14.3544 2 16.376 2.75344 17.8113 4.18873C19.2466 5.62401 20 7.64564 20 10C20 12.5988 18.9884 14.9745 17.819 16.8613C16.6455 18.7547 15.2687 20.2274 14.4338 21.0402C13.7626 21.6934 12.8752 22 12 22C11.1248 22 10.2374 21.6934 9.56625 21.0402C8.73127 20.2274 7.35447 18.7547 6.18098 16.8613C5.01159 14.9745 4 12.5988 4 10C4 7.64564 4.75344 5.62401 6.18873 4.18873ZM12 12.5C13.5278 12.5 14.5 11.5278 14.5 10C14.5 8.47222 13.5278 7.5 12 7.5C10.4722 7.5 9.5 8.47222 9.5 10C9.5 11.5278 10.4722 12.5 12 12.5Z" fill="black"/>
</svg>
