<svg width="24" height="24" viewBox="0 0 24 24" fill="none" xmlns="http://www.w3.org/2000/svg">
<path fill-rule="evenodd" clip-rule="evenodd" d="M7 7V8.46174C6.3954 8.67081 5.86113 8.97466 5.41789 9.41789C4.80089 10.0349 4.45398 10.8283 4.25685 11.7423C4.06215 12.645 4 13.7302 4 15C4 16.2698 4.06215 17.355 4.25685 18.2577C4.45398 19.1717 4.80089 19.9651 5.41789 20.5821C6.0349 21.1991 6.82834 21.546 7.74229 21.7431C8.64499 21.9378 9.73019 22 11 22H13C14.2698 22 15.355 21.9378 16.2577 21.7431C17.1717 21.546 17.9651 21.1991 18.5821 20.5821C19.1991 19.9651 19.546 19.1717 19.7431 18.2577C19.9378 17.355 20 16.2698 20 15C20 13.7302 19.9378 12.645 19.7431 11.7423C19.546 10.8283 19.1991 10.0349 18.5821 9.41789C18.1389 8.97466 17.6046 8.67081 17 8.46174V7C17 5.56231 16.5382 4.29068 15.6238 3.37623C14.7093 2.46177 13.4377 2 12 2C10.5623 2 9.29068 2.46177 8.37623 3.37623C7.46177 4.29068 7 5.56231 7 7ZM9.79044 4.79044C9.316 5.26488 9 5.99324 9 7V8.07434C9.60641 8.02038 10.2729 8 11 8H13C13.7271 8 14.3936 8.02038 15 8.07434V7C15 5.99324 14.684 5.26488 14.2096 4.79044C13.7351 4.316 13.0068 4 12 4C10.9932 4 10.2649 4.316 9.79044 4.79044ZM13 16.0208C13 15.8423 13.0983 15.6812 13.2384 15.5706C13.7023 15.2043 14 14.6369 14 14C14 12.8954 13.1046 12 12 12C10.8954 12 10 12.8954 10 14C10 14.6369 10.2977 15.2043 10.7616 15.5706C10.9017 15.6812 11 15.8423 11 16.0208V17C11 17.5523 11.4477 18 12 18C12.5523 18 13 17.5523 13 17V16.0208Z" fill="black"/>
</svg>
