<svg width="24" height="24" viewBox="0 0 24 24" fill="none" xmlns="http://www.w3.org/2000/svg">
<path d="M2.00003 12C2.00003 12.716 2.01362 13.4796 2.27349 14.1136C2.58433 14.872 3.17798 15.3234 3.97639 15.5778C4.70693 15.8106 5.68536 15.9055 6.93371 15.9524C8.19874 16 9.84965 16 11.9772 16H12.0224C14.1502 16 15.8013 16 17.0664 15.9524C18.3147 15.9055 19.2931 15.8106 20.0237 15.5778C20.8221 15.3233 21.4157 14.872 21.7266 14.1136C21.9864 13.4796 22 12.716 22 12C22 11.284 21.9864 10.5204 21.7266 9.88637C21.4157 9.128 20.8221 8.67667 20.0237 8.42222C19.2931 8.18939 18.3147 8.09453 17.0664 8.04758C15.8013 8 14.1503 8 12.0227 8H11.9771C9.84959 8 8.19872 8 6.93371 8.04758C5.68536 8.09453 4.70694 8.18938 3.9764 8.4222C3.17798 8.67665 2.58434 9.12798 2.27349 9.88635C2.01362 10.5204 2.00003 11.284 2.00003 12Z" fill="black"/>
</svg>
