<svg width="24" height="24" viewBox="0 0 24 24" fill="none" xmlns="http://www.w3.org/2000/svg">
<path d="M6.94868 1.6838C6.77404 1.15986 6.20772 0.876696 5.68377 1.05134C5.15983 1.22599 4.87667 1.79231 5.05132 2.31625L5.23509 2.86757C5.37193 3.27811 5.37193 3.72195 5.23509 4.13248L5.05132 4.6838C4.87667 5.20774 5.15983 5.77406 5.68377 5.94871C6.20772 6.12336 6.77404 5.8402 6.94868 5.31625L7.13246 4.76494C7.40614 3.94387 7.40614 3.05618 7.13246 2.23512L6.94868 1.6838Z" fill="black"/>
<path d="M10.9487 1.6838C10.774 1.15986 10.2077 0.876696 9.68377 1.05134C9.15983 1.22599 8.87667 1.79231 9.05132 2.31625L9.23509 2.86757C9.37193 3.27811 9.37193 3.72195 9.23509 4.13248L9.05132 4.6838C8.87667 5.20774 9.15983 5.77406 9.68377 5.94871C10.2077 6.12336 10.774 5.8402 10.9487 5.31625L11.1325 4.76494C11.4061 3.94387 11.4061 3.05618 11.1325 2.23512L10.9487 1.6838Z" fill="black"/>
<path d="M14.9487 1.6838C14.774 1.15986 14.2077 0.876696 13.6838 1.05134C13.1598 1.22599 12.8767 1.79231 13.0513 2.31625L13.2351 2.86757C13.3719 3.27811 13.3719 3.72195 13.2351 4.13248L13.0513 4.6838C12.8767 5.20774 13.1598 5.77406 13.6838 5.94871C14.2077 6.12336 14.774 5.8402 14.9487 5.31625L15.1325 4.76494C15.4061 3.94387 15.4061 3.05618 15.1325 2.23512L14.9487 1.6838Z" fill="black"/>
<path d="M5 8.00002C3.89543 8.00002 3 8.89546 3 10V14.8572C3 15.9484 3.05322 16.8907 3.22337 17.6796C3.39594 18.4797 3.70267 19.1883 4.25718 19.7428C4.81168 20.2973 5.5203 20.6041 6.32041 20.7766C7.10927 20.9468 8.05162 21 9.14286 21H10.8571C11.9484 21 12.8907 20.9468 13.6796 20.7766C14.4797 20.6041 15.1883 20.2973 15.7428 19.7428C16.2973 19.1883 16.6041 18.4797 16.7766 17.6796C16.9468 16.8907 17 15.9484 17 14.8572V10H18.5C19.3821 10 19.652 10.16 19.746 10.254C19.8401 10.3481 20 10.6179 20 11.5V12.5C20 13.1902 19.9019 13.5122 19.8099 13.6634C19.7552 13.7533 19.6601 13.8631 19.3009 13.9361C18.7597 14.046 18.4101 14.5739 18.52 15.1151C18.6299 15.6563 19.1578 16.006 19.6991 15.896C20.4447 15.7446 21.0995 15.3919 21.5187 14.7026C21.9005 14.0747 22 13.3009 22 12.5V11.5C22 10.5071 21.8474 9.527 21.1602 8.83981C20.473 8.15262 19.4929 8.00004 18.5 8.00004L15.0087 8.00004L15 8.00002H5Z" fill="black"/>
</svg>
