<svg width="24" height="24" viewBox="0 0 24 24" fill="none" xmlns="http://www.w3.org/2000/svg">
<path d="M22 4C22 2.89543 21.1046 2 20 2L19.9288 2.00254C14.493 2.39081 10.8201 3.37356 9.35844 3.82728C8.5164 4.08867 8 4.86542 8 5.693V8.97695C7.99964 8.99238 7.99964 9.00785 8 9.02334V14.3952C7.40425 14.1273 6.7214 14 6 14C4.91526 14 3.91769 14.2877 3.17232 14.9089C2.40757 15.5461 2 16.4607 2 17.5C2 18.5393 2.40757 19.4539 3.17232 20.0911C3.91769 20.7123 4.91526 21 6 21C7.08474 21 8.08231 20.7123 8.82768 20.0911C9.59243 19.4539 10 18.5393 10 17.5V9.72233C10.6934 9.50935 11.3959 9.32615 12.1022 9.16134C13.9182 8.73761 16.5913 8.25015 20 8.00259V12.3952C19.4042 12.1273 18.7214 12 18 12C16.9153 12 15.9177 12.2877 15.1723 12.9089C14.4076 13.5461 14 14.4607 14 15.5C14 16.5393 14.4076 17.4539 15.1723 18.0911C15.9177 18.7123 16.9153 19 18 19C19.0847 19 20.0823 18.7123 20.8277 18.0911C21.5924 17.4539 22 16.5393 22 15.5V4Z" fill="black"/>
</svg>
