<svg width="24" height="24" viewBox="0 0 24 24" fill="none" xmlns="http://www.w3.org/2000/svg">
<path fill-rule="evenodd" clip-rule="evenodd" d="M12 2C9.03453 2 6.5129 2.94789 4.73039 4.73039C2.94789 6.5129 2 9.03453 2 12C2 14.9655 2.94789 17.4871 4.73039 19.2696C6.5129 21.0521 9.03453 22 12 22C13.6569 22 15 20.6569 15 19V17C15 16.2988 15.2188 15.8204 15.5196 15.5196C15.8204 15.2188 16.2988 15 17 15H19C20.6569 15 22 13.6569 22 12C22 9.03453 21.0521 6.5129 19.2696 4.73039C17.4871 2.94789 14.9655 2 12 2ZM9 11.5C9 12.4167 8.41667 13 7.5 13C6.58333 13 6 12.4167 6 11.5C6 10.5833 6.58333 10 7.5 10C8.41667 10 9 10.5833 9 11.5ZM9.5 18C10.4167 18 11 17.4167 11 16.5C11 15.5833 10.4167 15 9.5 15C8.58333 15 8 15.5833 8 16.5C8 17.4167 8.58333 18 9.5 18ZM13 7.5C13 8.41667 12.4167 9 11.5 9C10.5833 9 10 8.41667 10 7.5C10 6.58333 10.5833 6 11.5 6C12.4167 6 13 6.58333 13 7.5ZM16.5 11C17.4167 11 18 10.4167 18 9.5C18 8.58333 17.4167 8 16.5 8C15.5833 8 15 8.58333 15 9.5C15 10.4167 15.5833 11 16.5 11Z" fill="black"/>
</svg>
