<svg width="24" height="24" viewBox="0 0 24 24" fill="none" xmlns="http://www.w3.org/2000/svg">
<path d="M11.9797 2C11.2898 1.99998 10.5396 1.99996 9.92394 2.22379C9.57626 2.3502 9.25452 2.54993 8.9848 2.85356C8.72245 3.1489 8.54766 3.49937 8.42464 3.87512C8.18891 4.59513 8.09442 5.57121 8.04757 6.82856C8.03404 7.19175 8.02435 7.58775 8.01742 8.01892C7.6282 8.02573 7.26752 8.03497 6.93371 8.04752C5.68536 8.09447 4.70694 8.18933 3.9764 8.42215C3.17798 8.6766 2.58434 9.12793 2.27349 9.8863C2.01362 10.5203 2.00003 11.284 2.00003 11.9999C2.00003 12.7159 2.01362 13.4796 2.27349 14.1136C2.58433 14.872 3.17798 15.3233 3.97639 15.5778C4.70693 15.8106 5.68536 15.9054 6.93371 15.9524C7.26752 15.9649 7.6282 15.9742 8.01743 15.981C8.02435 16.4122 8.03404 16.8082 8.04757 17.1714C8.09443 18.4288 8.18892 19.4049 8.42465 20.1249C8.54767 20.5006 8.72246 20.8511 8.98482 21.1464C9.25454 21.4501 9.57627 21.6498 9.92395 21.7762C10.5396 22 11.2898 22 11.9797 22H12.0204C12.7103 22 13.4605 22 14.0761 21.7762C14.4238 21.6498 14.7455 21.4501 15.0152 21.1464C15.2776 20.8511 15.4524 20.5006 15.5754 20.1249C15.8111 19.4049 15.9056 18.4288 15.9525 17.1714C15.966 16.8082 15.9757 16.4122 15.9826 15.981C16.3718 15.9742 16.7325 15.9649 17.0664 15.9524C18.3147 15.9054 19.2931 15.8106 20.0237 15.5777C20.8221 15.3233 21.4157 14.8719 21.7266 14.1136C21.9864 13.4796 22 12.7159 22 11.9999C22 11.284 21.9864 10.5203 21.7266 9.88631C21.4157 9.12794 20.8221 8.67661 20.0237 8.42216C19.2931 8.18934 18.3147 8.09448 17.0664 8.04753C16.7325 8.03497 16.3718 8.02573 15.9826 8.01892C15.9757 7.58775 15.966 7.19175 15.9525 6.82856C15.9056 5.57121 15.8111 4.59513 15.5754 3.87512C15.4524 3.49937 15.2776 3.14891 15.0152 2.85357C14.7455 2.54993 14.4238 2.3502 14.0761 2.22379C13.4605 1.99996 12.7103 1.99998 12.0204 2H11.9797Z" fill="black"/>
</svg>
