<svg width="24" height="24" viewBox="0 0 24 24" fill="none" xmlns="http://www.w3.org/2000/svg">
<path fill-rule="evenodd" clip-rule="evenodd" d="M10.9331 3.15725C11.1447 2.46939 11.7803 2 12.4999 2C13.2196 2 13.8552 2.46939 14.0668 3.15725L15.1941 6.82079C15.4862 7.77036 16.2296 8.5137 17.1791 8.80587L20.8427 9.93313C21.5306 10.1448 22 10.7803 22 11.5C22 12.2197 21.5306 12.8552 20.8427 13.0669L17.1792 14.1941C16.2296 14.4863 15.4862 15.2296 15.1941 16.1792L14.0668 19.8427C13.8552 20.5306 13.2196 21 12.4999 21C11.7803 21 11.1447 20.5306 10.9331 19.8427L9.80583 16.1792C9.51365 15.2296 8.77032 14.4863 7.82076 14.1941L4.15725 13.0669C3.46939 12.8552 3 12.2197 3 11.5C3 10.7803 3.46939 10.1448 4.15725 9.93312L7.82075 8.80588C8.77032 8.51371 9.51365 7.77037 9.80583 6.8208L10.9331 3.15725ZM12.4999 4.86564L11.7174 7.40897C11.2304 8.99159 9.99154 10.2305 8.40893 10.7174L5.86563 11.5L8.40893 12.2826C9.99154 12.7695 11.2304 14.0084 11.7174 15.591L12.4999 18.1344L13.2825 15.591C13.7695 14.0084 15.0084 12.7695 16.591 12.2826L19.1343 11.5L16.591 10.7174C15.0084 10.2305 13.7695 8.99158 13.2825 7.40896L12.4999 4.86564Z" fill="black"/>
<path fill-rule="evenodd" clip-rule="evenodd" d="M2.83456 16.8346C3.40179 16.2673 4.17342 16 5 16C5.82658 16 6.59821 16.2673 7.16544 16.8346C7.73267 17.4018 8 18.1734 8 19C8 19.8266 7.73267 20.5982 7.16544 21.1654C6.59821 21.7327 5.82658 22 5 22C4.17342 22 3.40179 21.7327 2.83456 21.1654C2.26733 20.5982 2 19.8266 2 19C2 18.1734 2.26733 17.4018 2.83456 16.8346ZM4.24877 18.2488C4.12156 18.376 4 18.6044 4 19C4 19.3956 4.12156 19.624 4.24877 19.7512C4.37599 19.8784 4.60436 20 5 20C5.39564 20 5.62401 19.8784 5.75123 19.7512C5.87844 19.624 6 19.3956 6 19C6 18.6044 5.87844 18.376 5.75123 18.2488C5.62401 18.1216 5.39564 18 5 18C4.60436 18 4.37599 18.1216 4.24877 18.2488Z" fill="black"/>
<path d="M18.5 5C19.3284 5 20 4.32843 20 3.5C20 2.67157 19.3284 2 18.5 2C17.6716 2 17 2.67157 17 3.5C17 4.32843 17.6716 5 18.5 5Z" fill="black"/>
<path d="M6 6C6 6.55228 5.55228 7 5 7C4.44772 7 4 6.55228 4 6C4 5.44772 4.44772 5 5 5C5.55228 5 6 5.44772 6 6Z" fill="black"/>
<path d="M19 18C19.5523 18 20 17.5523 20 17C20 16.4477 19.5523 16 19 16C18.4477 16 18 16.4477 18 17C18 17.5523 18.4477 18 19 18Z" fill="black"/>
</svg>
