<svg width="24" height="24" viewBox="0 0 24 24" fill="none" xmlns="http://www.w3.org/2000/svg">
<path d="M12 1C11.1985 1 10.4192 1.40685 9.99689 2.14543C9.51485 2.98839 8.6896 4.55775 8.0278 6.47013C8.01928 6.49477 7.99432 6.5129 7.96826 6.5134C5.94499 6.55185 4.19743 6.85174 3.24678 7.0497C2.41383 7.22314 1.7861 7.83851 1.53841 8.60083C1.29071 9.36315 1.43685 10.23 2.00878 10.8599C2.66152 11.5788 3.89905 12.8486 5.51332 14.069C5.53412 14.0847 5.54365 14.114 5.53607 14.139C4.94741 16.0751 4.69261 17.8298 4.5871 18.7951C4.49467 19.6409 4.88593 20.4281 5.5344 20.8992C6.18287 21.3703 7.05241 21.4992 7.82824 21.1499C8.71369 20.7513 10.3038 19.9667 11.9632 18.8086C11.9846 18.7937 12.0154 18.7937 12.0368 18.8086C13.6963 19.9667 15.2864 20.7513 16.1718 21.1499C16.9477 21.4992 17.8172 21.3703 18.4657 20.8992C19.1141 20.4281 19.5054 19.6409 19.413 18.7951C19.3075 17.8298 19.0527 16.0751 18.464 14.139C18.4564 14.114 18.4659 14.0847 18.4867 14.069C20.101 12.8486 21.3385 11.5788 21.9913 10.8599C22.5632 10.23 22.7094 9.36315 22.4617 8.60083C22.214 7.83851 21.5862 7.22314 20.7533 7.04969C19.8026 6.85174 18.0551 6.55184 16.0318 6.51339C16.0057 6.5129 15.9808 6.49476 15.9722 6.47013C15.3104 4.55775 14.4852 2.98839 14.0031 2.14543C13.5808 1.40685 12.8016 1 12 1Z" fill="black"/>
</svg>
