<svg width="24" height="24" viewBox="0 0 24 24" fill="none" xmlns="http://www.w3.org/2000/svg">
<path fill-rule="evenodd" clip-rule="evenodd" d="M2 13C2 14.2698 2.06215 15.355 2.25685 16.2577C2.45398 17.1717 2.80089 17.9651 3.41789 18.5821C4.0349 19.1991 4.82834 19.546 5.74229 19.7431C6.64499 19.9378 7.73019 20 9 20C10.2698 20 11.355 19.9378 12.2577 19.7431C13.1717 19.546 13.9651 19.1991 14.5821 18.5821C15.1991 17.9651 15.546 17.1717 15.7431 16.2577C15.9378 15.355 16 14.2698 16 13V11C16 9.73019 15.9378 8.64499 15.7431 7.74229C15.546 6.82834 15.1991 6.0349 14.5821 5.41789C13.9651 4.80089 13.1717 4.45398 12.2577 4.25685C11.355 4.06215 10.2698 4 9 4C7.73019 4 6.64499 4.06215 5.74229 4.25685C4.82834 4.45398 4.0349 4.80089 3.41789 5.41789C2.80089 6.0349 2.45398 6.82834 2.25685 7.74229C2.06215 8.64499 2 9.73019 2 11V13ZM9 18C7.76981 18 6.85501 17.9372 6.16396 17.7881C5.48416 17.6415 5.0901 17.4259 4.83211 17.1679C4.57411 16.9099 4.35852 16.5158 4.2119 15.836C4.06285 15.145 4 14.2302 4 13V11C4 9.76981 4.06285 8.85501 4.2119 8.16396C4.35852 7.48416 4.57411 7.0901 4.83211 6.83211C5.0901 6.57411 5.48416 6.35852 6.16396 6.2119C6.85501 6.06285 7.76981 6 9 6C10.2302 6 11.145 6.06285 11.836 6.2119C12.5158 6.35852 12.9099 6.57411 13.1679 6.83211C13.4259 7.0901 13.6415 7.48416 13.7881 8.16396C13.9372 8.85501 14 9.76981 14 11V13C14 14.2302 13.9372 15.145 13.7881 15.836C13.6415 16.5158 13.4259 16.9099 13.1679 17.1679C12.9099 17.4259 12.5158 17.6415 11.836 17.7881C11.145 17.9372 10.2302 18 9 18Z" fill="black"/>
<path d="M20.312 6C19.9979 6 19.6858 6.05064 19.3878 6.14996L17.9427 6.63168C17.4187 6.80633 17.1356 7.37265 17.3102 7.89659C17.4849 8.42054 18.0512 8.7037 18.5751 8.52905L20.0203 8.04733C20.1143 8.01598 20.2128 8 20.312 8C20.481 8 20.6009 8.05025 20.67 8.10272C20.7306 8.14881 20.7713 8.20864 20.7858 8.30376C20.8928 9.00501 21 10.1671 21 12C21 13.8329 20.8928 14.995 20.7858 15.6962C20.7713 15.7914 20.7306 15.8512 20.67 15.8973C20.6009 15.9498 20.481 16 20.312 16C20.2128 16 20.1143 15.984 20.0203 15.9527L18.5751 15.471C18.0512 15.2963 17.4849 15.5795 17.3102 16.1034C17.1356 16.6273 17.4187 17.1937 17.9427 17.3683L19.3878 17.85C19.6858 17.9494 19.9979 18 20.312 18C21.4254 18 22.5634 17.3063 22.763 15.9978C22.8888 15.1729 23 13.9065 23 12C23 10.0935 22.8888 8.82706 22.763 8.00225C22.5634 6.69373 21.4254 6 20.312 6Z" fill="black"/>
</svg>
