<svg width="24" height="24" viewBox="0 0 24 24" fill="none" xmlns="http://www.w3.org/2000/svg">
<path d="M12.0001 6.36787C12.7538 5.6373 13.4075 5.02891 13.984 4.54194C14.723 3.91775 15.3961 3.43962 16.0451 3.16974C16.7343 2.88313 17.4203 2.82258 18.1112 3.06328C18.7479 3.28513 19.2866 3.73015 19.7783 4.22182C20.2699 4.71348 20.7149 5.25215 20.9368 5.88891C21.1775 6.57981 21.1169 7.26575 20.8303 7.95494C20.5604 8.60393 20.0823 9.27707 19.4581 10.016C18.9712 10.5926 18.3628 11.2462 17.6322 12C18.3628 12.7538 18.9711 13.4074 19.4581 13.9839C20.0823 14.7229 20.5604 15.396 20.8303 16.045C21.1169 16.7342 21.1775 17.4202 20.9368 18.111C20.7149 18.7478 20.2699 19.2865 19.7782 19.7781C19.2866 20.2698 18.7479 20.7148 18.1112 20.9367C17.4203 21.1774 16.7343 21.1168 16.0451 20.8302C15.3961 20.5603 14.723 20.0822 13.984 19.458C13.4075 18.971 12.7538 18.3627 12.0001 17.6321C11.2463 18.3627 10.5926 18.9711 10.0161 19.458C9.27715 20.0822 8.60402 20.5603 7.95502 20.8302C7.26583 21.1168 6.57989 21.1774 5.889 20.9367C5.25224 20.7148 4.71357 20.2698 4.22191 19.7782C3.73025 19.2865 3.28523 18.7478 3.06339 18.1111C2.82268 17.4202 2.88324 16.7342 3.16984 16.0451C3.43972 15.3961 3.91785 14.7229 4.54204 13.9839C5.02901 13.4074 5.63739 12.7538 6.36797 12C5.63739 11.2462 5.029 10.5926 4.54203 10.016C3.91783 9.27705 3.4397 8.60391 3.16982 7.95492C2.88321 7.26572 2.82266 6.57978 3.06336 5.88888C3.28521 5.25212 3.73023 4.71345 4.2219 4.22178C4.71356 3.73012 5.25223 3.28509 5.88899 3.06325C6.57989 2.82255 7.26583 2.88311 7.95503 3.16972C8.60402 3.43961 9.27715 3.91773 10.0161 4.54193C10.5926 5.0289 11.2463 5.63729 12.0001 6.36787Z" fill="black"/>
</svg>
