<svg xmlns="http://www.w3.org/2000/svg" width="186" height="186" viewBox="0 0 186 186"><g fill="none" fill-rule="evenodd"><rect width="186" height="186" fill="#103257" opacity="0"/><path fill="#F6894C" d="M106.95,13.9672306 C106.95,19.1752428 104.10296,23.7175103 99.8823543,26.1190227 L130.2,48.8851296 L159.91784,39.4892184 C158.760743,37.4541707 158.1,35.0993755 158.1,32.5902046 C158.1,24.8763205 164.345703,18.6229741 172.05,18.6229741 C179.754297,18.6229741 186,24.8763205 186,32.5902046 C186,40.3040179 179.754297,46.5574352 172.05,46.5574352 C171.315566,46.5574352 170.594594,46.5006795 169.890983,46.39107 L137.151086,130.163238 C134.361086,137.302399 127.486526,142 119.830057,142 L66.1699429,142 C58.5134743,142 51.6389143,137.302399 48.8489143,130.163238 L16.1089463,46.39107 C15.4052994,46.5006795 14.6842926,46.5574352 13.95,46.5574352 C6.245632,46.5574352 0,40.3040179 0,32.5902046 C0,24.8763205 6.245632,18.6229741 13.95,18.6229741 C21.654368,18.6229741 27.9,24.8763205 27.9,32.5902046 C27.9,35.0993755 27.2391509,37.4541707 26.0822663,39.4892184 L55.8,48.8851296 L86.1176457,26.1190227 C81.89704,23.7175103 79.05,19.1752428 79.05,13.9672306 C79.05,6.25334639 85.2957029,0 93,0 C100.704297,0 106.95,6.25334639 106.95,13.9672306 Z" transform="translate(0 22)"/></g></svg>