<svg width="2500" height="2244" viewBox="0 0 2500 2244" fill="none" xmlns="http://www.w3.org/2000/svg">
<g clip-path="url(#clip0_12_1043)">
<rect width="2500" height="2244" rx="64" fill="#F2F2F4"/>
<rect width="2500" height="100" fill="#C8C9D1"/>
<circle cx="66" cy="50" r="18" fill="#70758A"/>
<circle cx="126" cy="50" r="18" fill="#70758A"/>
<circle cx="186" cy="50" r="18" fill="#70758A"/>
<rect x="64" y="164" width="2372" height="148" rx="32" fill="#80BAF8"/>
<path d="M1165.47 242.215C1165.47 238.314 1164.86 235.37 1163.62 233.383C1162.38 231.396 1160.54 230.402 1158.12 230.402C1155.68 230.402 1153.83 231.405 1152.57 233.41C1151.31 235.397 1150.68 238.332 1150.68 242.215C1150.68 246.079 1151.31 249.014 1152.57 251.02C1153.83 253.025 1155.68 254.027 1158.12 254.027C1160.54 254.027 1162.38 253.034 1163.62 251.047C1164.86 249.06 1165.47 246.116 1165.47 242.215ZM1150.68 230.785C1151.48 229.29 1152.59 228.142 1153.99 227.34C1155.41 226.538 1157.05 226.137 1158.91 226.137C1162.59 226.137 1165.49 227.559 1167.61 230.402C1169.72 233.228 1170.78 237.129 1170.78 242.105C1170.78 247.155 1169.71 251.12 1167.58 254C1165.47 256.862 1162.56 258.293 1158.86 258.293C1157.03 258.293 1155.42 257.901 1154.02 257.117C1152.63 256.315 1151.52 255.158 1150.68 253.645V257.5H1145.65V214.953H1150.68V230.785ZM1196.67 242.105H1195C1192.07 242.105 1189.85 242.625 1188.36 243.664C1186.88 244.685 1186.14 246.216 1186.14 248.258C1186.14 250.099 1186.7 251.53 1187.81 252.551C1188.92 253.572 1190.46 254.082 1192.43 254.082C1195.2 254.082 1197.38 253.125 1198.97 251.211C1200.55 249.279 1201.36 246.617 1201.37 243.227V242.105H1196.67ZM1206.43 240.027V257.5H1201.37V252.961C1200.3 254.784 1198.94 256.133 1197.3 257.008C1195.68 257.865 1193.7 258.293 1191.37 258.293C1188.25 258.293 1185.76 257.418 1183.9 255.668C1182.04 253.9 1181.11 251.539 1181.11 248.586C1181.11 245.177 1182.25 242.589 1184.53 240.82C1186.83 239.052 1190.19 238.168 1194.62 238.168H1201.37V237.375C1201.36 234.932 1200.74 233.164 1199.51 232.07C1198.29 230.958 1196.34 230.402 1193.66 230.402C1191.95 230.402 1190.22 230.648 1188.47 231.141C1186.72 231.633 1185.01 232.353 1183.35 233.301V228.27C1185.21 227.559 1186.99 227.03 1188.69 226.684C1190.4 226.319 1192.06 226.137 1193.66 226.137C1196.2 226.137 1198.36 226.51 1200.14 227.258C1201.95 228.005 1203.41 229.126 1204.52 230.621C1205.21 231.533 1205.7 232.663 1206 234.012C1206.29 235.342 1206.43 237.348 1206.43 240.027ZM1243.32 238.523V257.5H1238.26V238.523C1238.26 235.771 1237.77 233.747 1236.81 232.453C1235.84 231.159 1234.33 230.512 1232.27 230.512C1229.92 230.512 1228.1 231.35 1226.83 233.027C1225.57 234.686 1224.94 237.074 1224.94 240.191V257.5H1219.91V226.875H1224.94V231.469C1225.83 229.719 1227.05 228.397 1228.58 227.504C1230.11 226.592 1231.92 226.137 1234.02 226.137C1237.14 226.137 1239.46 227.167 1240.99 229.227C1242.54 231.268 1243.32 234.367 1243.32 238.523ZM1280.42 238.523V257.5H1275.36V238.523C1275.36 235.771 1274.88 233.747 1273.91 232.453C1272.94 231.159 1271.43 230.512 1269.37 230.512C1267.02 230.512 1265.21 231.35 1263.93 233.027C1262.67 234.686 1262.04 237.074 1262.04 240.191V257.5H1257.01V226.875H1262.04V231.469C1262.94 229.719 1264.15 228.397 1265.68 227.504C1267.21 226.592 1269.03 226.137 1271.12 226.137C1274.24 226.137 1276.56 227.167 1278.09 229.227C1279.64 231.268 1280.42 234.367 1280.42 238.523ZM1319.41 239.672V242.133H1297.61V242.297C1297.47 246.471 1298.26 249.47 1299.99 251.293C1301.74 253.116 1304.2 254.027 1307.38 254.027C1308.98 254.027 1310.66 253.772 1312.41 253.262C1314.16 252.751 1316.03 251.977 1318.01 250.938V255.941C1316.1 256.725 1314.25 257.309 1312.46 257.691C1310.69 258.092 1308.98 258.293 1307.32 258.293C1302.56 258.293 1298.84 256.871 1296.17 254.027C1293.49 251.165 1292.15 247.228 1292.15 242.215C1292.15 237.329 1293.46 233.428 1296.08 230.512C1298.71 227.595 1302.21 226.137 1306.58 226.137C1310.48 226.137 1313.56 227.458 1315.8 230.102C1318.06 232.745 1319.26 235.935 1319.41 239.672ZM1314.38 238.195C1314.16 236.081 1313.38 234.258 1312.05 232.727C1310.74 231.177 1308.84 230.402 1306.36 230.402C1303.94 230.402 1301.94 231.204 1300.38 232.809C1298.81 234.413 1297.95 236.217 1297.81 238.223L1314.38 238.195ZM1357.47 233.191C1356.39 232.353 1355.3 231.742 1354.19 231.359C1353.07 230.977 1351.85 230.785 1350.52 230.785C1347.39 230.785 1344.99 231.77 1343.33 233.738C1341.67 235.707 1340.84 238.551 1340.84 242.27V257.5H1335.78V226.875H1340.84V232.863C1341.68 230.694 1342.97 229.035 1344.7 227.887C1346.45 226.72 1348.52 226.137 1350.9 226.137C1352.14 226.137 1353.3 226.292 1354.38 226.602C1355.45 226.911 1356.48 227.395 1357.47 228.051V233.191Z" fill="#004693"/>
<rect x="64" y="360" width="2372" height="200" rx="32" fill="#80BAF8"/>
<path d="M1169.11 460.523V479.5H1164.05V460.523C1164.05 457.771 1163.57 455.747 1162.6 454.453C1161.64 453.159 1160.12 452.512 1158.06 452.512C1155.71 452.512 1153.9 453.35 1152.62 455.027C1151.37 456.686 1150.74 459.074 1150.74 462.191V479.5H1145.71V436.953H1150.74V453.469C1151.63 451.719 1152.84 450.397 1154.37 449.504C1155.9 448.592 1157.72 448.137 1159.81 448.137C1162.93 448.137 1165.26 449.167 1166.79 451.227C1168.34 453.268 1169.11 456.367 1169.11 460.523ZM1208.1 461.672V464.133H1186.31V464.297C1186.16 468.471 1186.95 471.47 1188.69 473.293C1190.44 475.116 1192.9 476.027 1196.07 476.027C1197.67 476.027 1199.35 475.772 1201.1 475.262C1202.85 474.751 1204.72 473.977 1206.71 472.938V477.941C1204.79 478.725 1202.94 479.309 1201.16 479.691C1199.39 480.092 1197.67 480.293 1196.01 480.293C1191.26 480.293 1187.54 478.871 1184.86 476.027C1182.18 473.165 1180.84 469.228 1180.84 464.215C1180.84 459.329 1182.15 455.428 1184.78 452.512C1187.4 449.595 1190.9 448.137 1195.28 448.137C1199.18 448.137 1202.25 449.458 1204.49 452.102C1206.75 454.745 1207.95 457.935 1208.1 461.672ZM1203.07 460.195C1202.85 458.081 1202.08 456.258 1200.75 454.727C1199.43 453.177 1197.54 452.402 1195.06 452.402C1192.63 452.402 1190.64 453.204 1189.07 454.809C1187.5 456.413 1186.64 458.217 1186.5 460.223L1203.07 460.195ZM1233.77 464.105H1232.11C1229.17 464.105 1226.96 464.625 1225.46 465.664C1223.98 466.685 1223.25 468.216 1223.25 470.258C1223.25 472.099 1223.8 473.53 1224.91 474.551C1226.03 475.572 1227.57 476.082 1229.53 476.082C1232.31 476.082 1234.48 475.125 1236.07 473.211C1237.66 471.279 1238.46 468.617 1238.48 465.227V464.105H1233.77ZM1243.53 462.027V479.5H1238.48V474.961C1237.4 476.784 1236.04 478.133 1234.4 479.008C1232.78 479.865 1230.8 480.293 1228.47 480.293C1225.35 480.293 1222.86 479.418 1221 477.668C1219.14 475.9 1218.21 473.539 1218.21 470.586C1218.21 467.177 1219.35 464.589 1221.63 462.82C1223.93 461.052 1227.29 460.168 1231.72 460.168H1238.48V459.375C1238.46 456.932 1237.84 455.164 1236.62 454.07C1235.4 452.958 1233.44 452.402 1230.77 452.402C1229.05 452.402 1227.32 452.648 1225.57 453.141C1223.82 453.633 1222.12 454.353 1220.46 455.301V450.27C1222.32 449.559 1224.09 449.03 1225.79 448.684C1227.5 448.319 1229.16 448.137 1230.77 448.137C1233.3 448.137 1235.46 448.51 1237.25 449.258C1239.05 450.005 1240.51 451.126 1241.62 452.621C1242.31 453.533 1242.81 454.663 1243.1 456.012C1243.39 457.342 1243.53 459.348 1243.53 462.027ZM1275.14 452.785V436.953H1280.17V479.5H1275.14V475.645C1274.3 477.158 1273.18 478.315 1271.78 479.117C1270.39 479.901 1268.79 480.293 1266.97 480.293C1263.26 480.293 1260.35 478.862 1258.22 476C1256.1 473.12 1255.04 469.155 1255.04 464.105C1255.04 459.129 1256.11 455.228 1258.24 452.402C1260.38 449.559 1263.28 448.137 1266.97 448.137C1268.81 448.137 1270.43 448.538 1271.83 449.34C1273.24 450.124 1274.34 451.272 1275.14 452.785ZM1260.35 464.215C1260.35 468.116 1260.97 471.06 1262.21 473.047C1263.45 475.034 1265.28 476.027 1267.7 476.027C1270.13 476.027 1271.97 475.025 1273.23 473.02C1274.5 471.014 1275.14 468.079 1275.14 464.215C1275.14 460.332 1274.5 457.397 1273.23 455.41C1271.97 453.405 1270.13 452.402 1267.7 452.402C1265.28 452.402 1263.45 453.396 1262.21 455.383C1260.97 457.37 1260.35 460.314 1260.35 464.215ZM1319.41 461.672V464.133H1297.61V464.297C1297.47 468.471 1298.26 471.47 1299.99 473.293C1301.74 475.116 1304.2 476.027 1307.38 476.027C1308.98 476.027 1310.66 475.772 1312.41 475.262C1314.16 474.751 1316.03 473.977 1318.01 472.938V477.941C1316.1 478.725 1314.25 479.309 1312.46 479.691C1310.69 480.092 1308.98 480.293 1307.32 480.293C1302.56 480.293 1298.84 478.871 1296.17 476.027C1293.49 473.165 1292.15 469.228 1292.15 464.215C1292.15 459.329 1293.46 455.428 1296.08 452.512C1298.71 449.595 1302.21 448.137 1306.58 448.137C1310.48 448.137 1313.56 449.458 1315.8 452.102C1318.06 454.745 1319.26 457.935 1319.41 461.672ZM1314.38 460.195C1314.16 458.081 1313.38 456.258 1312.05 454.727C1310.74 453.177 1308.84 452.402 1306.36 452.402C1303.94 452.402 1301.94 453.204 1300.38 454.809C1298.81 456.413 1297.95 458.217 1297.81 460.223L1314.38 460.195ZM1357.47 455.191C1356.39 454.353 1355.3 453.742 1354.19 453.359C1353.07 452.977 1351.85 452.785 1350.52 452.785C1347.39 452.785 1344.99 453.77 1343.33 455.738C1341.67 457.707 1340.84 460.551 1340.84 464.27V479.5H1335.78V448.875H1340.84V454.863C1341.68 452.694 1342.97 451.035 1344.7 449.887C1346.45 448.72 1348.52 448.137 1350.9 448.137C1352.14 448.137 1353.3 448.292 1354.38 448.602C1355.45 448.911 1356.48 449.395 1357.47 450.051V455.191Z" fill="#004693"/>
<rect x="64" y="608" width="345" height="1324" rx="32" fill="#80BAF8"/>
<path d="M182.46 1261.99C183.08 1260.68 183.864 1259.71 184.812 1259.09C185.778 1258.46 186.935 1258.14 188.284 1258.14C190.745 1258.14 192.477 1259.09 193.48 1261.01C194.5 1262.9 195.011 1266.49 195.011 1271.75V1289.5H190.417V1271.97C190.417 1267.65 190.171 1264.97 189.679 1263.93C189.205 1262.88 188.33 1262.35 187.054 1262.35C185.595 1262.35 184.593 1262.91 184.046 1264.04C183.517 1265.15 183.253 1267.8 183.253 1271.97V1289.5H178.659V1271.97C178.659 1267.6 178.395 1264.9 177.866 1263.88C177.356 1262.86 176.426 1262.35 175.077 1262.35C173.746 1262.35 172.817 1262.91 172.288 1264.04C171.778 1265.15 171.522 1267.8 171.522 1271.97V1289.5H166.956V1258.88H171.522V1261.5C172.124 1260.41 172.871 1259.58 173.765 1259.01C174.676 1258.43 175.706 1258.14 176.855 1258.14C178.24 1258.14 179.388 1258.46 180.3 1259.09C181.23 1259.73 181.95 1260.7 182.46 1261.99ZM231.703 1271.67V1274.13H209.91V1274.3C209.764 1278.47 210.557 1281.47 212.289 1283.29C214.039 1285.12 216.5 1286.03 219.672 1286.03C221.276 1286.03 222.953 1285.77 224.703 1285.26C226.453 1284.75 228.321 1283.98 230.308 1282.94V1287.94C228.394 1288.73 226.544 1289.31 224.757 1289.69C222.989 1290.09 221.276 1290.29 219.617 1290.29C214.859 1290.29 211.14 1288.87 208.461 1286.03C205.781 1283.17 204.441 1279.23 204.441 1274.21C204.441 1269.33 205.754 1265.43 208.379 1262.51C211.004 1259.6 214.504 1258.14 218.879 1258.14C222.78 1258.14 225.851 1259.46 228.093 1262.1C230.354 1264.74 231.557 1267.93 231.703 1271.67ZM226.672 1270.2C226.453 1268.08 225.678 1266.26 224.347 1264.73C223.035 1263.18 221.139 1262.4 218.66 1262.4C216.235 1262.4 214.239 1263.2 212.672 1264.81C211.104 1266.41 210.247 1268.22 210.101 1270.22L226.672 1270.2ZM266.918 1270.52V1289.5H261.86V1270.52C261.86 1267.77 261.377 1265.75 260.41 1264.45C259.444 1263.16 257.931 1262.51 255.871 1262.51C253.52 1262.51 251.706 1263.35 250.43 1265.03C249.172 1266.69 248.543 1269.07 248.543 1272.19V1289.5H243.512V1258.88H248.543V1263.47C249.437 1261.72 250.649 1260.4 252.18 1259.5C253.711 1258.59 255.525 1258.14 257.621 1258.14C260.739 1258.14 263.063 1259.17 264.594 1261.23C266.144 1263.27 266.918 1266.37 266.918 1270.52ZM280.614 1277.91V1258.93H285.645V1277.91C285.645 1280.66 286.129 1282.68 287.095 1283.98C288.079 1285.27 289.592 1285.92 291.634 1285.92C294.004 1285.92 295.817 1285.09 297.075 1283.43C298.333 1281.75 298.962 1279.36 298.962 1276.24V1258.93H304.02V1289.5H298.962V1284.91C298.069 1286.67 296.847 1288.01 295.298 1288.93C293.767 1289.84 291.971 1290.29 289.911 1290.29C286.776 1290.29 284.442 1289.27 282.911 1287.23C281.38 1285.17 280.614 1282.06 280.614 1277.91Z" fill="#004693"/>
<g clip-path="url(#clip1_12_1043)">
<rect x="457" y="608" width="1586" height="200" rx="32" fill="#80BAF8"/>
<path d="M1066.1 699.992C1066.72 698.68 1067.51 697.714 1068.45 697.094C1069.42 696.456 1070.58 696.137 1071.93 696.137C1074.39 696.137 1076.12 697.094 1077.12 699.008C1078.14 700.904 1078.65 704.486 1078.65 709.754V727.5H1074.06V709.973C1074.06 705.652 1073.81 702.973 1073.32 701.934C1072.85 700.876 1071.97 700.348 1070.7 700.348C1069.24 700.348 1068.24 700.913 1067.69 702.043C1067.16 703.155 1066.9 705.798 1066.9 709.973V727.5H1062.3V709.973C1062.3 705.598 1062.04 702.9 1061.51 701.879C1061 700.858 1060.07 700.348 1058.72 700.348C1057.39 700.348 1056.46 700.913 1055.93 702.043C1055.42 703.155 1055.16 705.798 1055.16 709.973V727.5H1050.6V696.875H1055.16V699.5C1055.77 698.406 1056.51 697.577 1057.41 697.012C1058.32 696.428 1059.35 696.137 1060.5 696.137C1061.88 696.137 1063.03 696.456 1063.94 697.094C1064.87 697.732 1065.59 698.698 1066.1 699.992ZM1103.92 712.105H1102.25C1099.31 712.105 1097.1 712.625 1095.6 713.664C1094.13 714.685 1093.39 716.216 1093.39 718.258C1093.39 720.099 1093.94 721.53 1095.06 722.551C1096.17 723.572 1097.71 724.082 1099.68 724.082C1102.45 724.082 1104.63 723.125 1106.21 721.211C1107.8 719.279 1108.6 716.617 1108.62 713.227V712.105H1103.92ZM1113.68 710.027V727.5H1108.62V722.961C1107.54 724.784 1106.18 726.133 1104.54 727.008C1102.92 727.865 1100.94 728.293 1098.61 728.293C1095.49 728.293 1093.01 727.418 1091.15 725.668C1089.29 723.9 1088.36 721.539 1088.36 718.586C1088.36 715.177 1089.5 712.589 1091.77 710.82C1094.07 709.052 1097.43 708.168 1101.86 708.168H1108.62V707.375C1108.6 704.932 1107.98 703.164 1106.76 702.07C1105.54 700.958 1103.59 700.402 1100.91 700.402C1099.19 700.402 1097.46 700.648 1095.71 701.141C1093.96 701.633 1092.26 702.353 1090.6 703.301V698.27C1092.46 697.559 1094.24 697.03 1095.93 696.684C1097.64 696.319 1099.3 696.137 1100.91 696.137C1103.44 696.137 1105.6 696.51 1107.39 697.258C1109.19 698.005 1110.65 699.126 1111.76 700.621C1112.46 701.533 1112.95 702.663 1113.24 704.012C1113.53 705.342 1113.68 707.348 1113.68 710.027ZM1130.46 696.984H1143.34V723.59H1153.32V727.5H1128.33V723.59H1138.31V700.895H1130.46V696.984ZM1138.31 685.09H1143.34V691.434H1138.31V685.09ZM1187.66 708.523V727.5H1182.6V708.523C1182.6 705.771 1182.12 703.747 1181.15 702.453C1180.19 701.159 1178.68 700.512 1176.62 700.512C1174.26 700.512 1172.45 701.35 1171.17 703.027C1169.92 704.686 1169.29 707.074 1169.29 710.191V727.5H1164.26V696.875H1169.29V701.469C1170.18 699.719 1171.39 698.397 1172.92 697.504C1174.46 696.592 1176.27 696.137 1178.37 696.137C1181.48 696.137 1183.81 697.167 1185.34 699.227C1186.89 701.268 1187.66 704.367 1187.66 708.523ZM1198.82 707.703H1227.8V712.324H1198.82V707.703ZM1261.87 708.523V727.5H1256.81V708.523C1256.81 705.771 1256.33 703.747 1255.36 702.453C1254.39 701.159 1252.88 700.512 1250.82 700.512C1248.47 700.512 1246.65 701.35 1245.38 703.027C1244.12 704.686 1243.49 707.074 1243.49 710.191V727.5H1238.46V684.953H1243.49V701.469C1244.39 699.719 1245.6 698.397 1247.13 697.504C1248.66 696.592 1250.47 696.137 1252.57 696.137C1255.69 696.137 1258.01 697.167 1259.54 699.227C1261.09 701.268 1261.87 704.367 1261.87 708.523ZM1300.86 709.672V712.133H1279.06V712.297C1278.92 716.471 1279.71 719.47 1281.44 721.293C1283.19 723.116 1285.65 724.027 1288.82 724.027C1290.43 724.027 1292.11 723.772 1293.86 723.262C1295.61 722.751 1297.47 721.977 1299.46 720.938V725.941C1297.55 726.725 1295.7 727.309 1293.91 727.691C1292.14 728.092 1290.43 728.293 1288.77 728.293C1284.01 728.293 1280.29 726.871 1277.61 724.027C1274.93 721.165 1273.59 717.228 1273.59 712.215C1273.59 707.329 1274.91 703.428 1277.53 700.512C1280.16 697.595 1283.66 696.137 1288.03 696.137C1291.93 696.137 1295 697.458 1297.25 700.102C1299.51 702.745 1300.71 705.935 1300.86 709.672ZM1295.82 708.195C1295.61 706.081 1294.83 704.258 1293.5 702.727C1292.19 701.177 1290.29 700.402 1287.81 700.402C1285.39 700.402 1283.39 701.204 1281.82 702.809C1280.26 704.413 1279.4 706.217 1279.25 708.223L1295.82 708.195ZM1326.53 712.105H1324.86C1321.93 712.105 1319.71 712.625 1318.22 713.664C1316.74 714.685 1316 716.216 1316 718.258C1316 720.099 1316.56 721.53 1317.67 722.551C1318.78 723.572 1320.32 724.082 1322.29 724.082C1325.06 724.082 1327.24 723.125 1328.83 721.211C1330.41 719.279 1331.21 716.617 1331.23 713.227V712.105H1326.53ZM1336.29 710.027V727.5H1331.23V722.961C1330.16 724.784 1328.8 726.133 1327.16 727.008C1325.54 727.865 1323.56 728.293 1321.22 728.293C1318.11 728.293 1315.62 727.418 1313.76 725.668C1311.9 723.9 1310.97 721.539 1310.97 718.586C1310.97 715.177 1312.11 712.589 1314.39 710.82C1316.68 709.052 1320.05 708.168 1324.48 708.168H1331.23V707.375C1331.21 704.932 1330.59 703.164 1329.37 702.07C1328.15 700.958 1326.2 700.402 1323.52 700.402C1321.81 700.402 1320.08 700.648 1318.33 701.141C1316.58 701.633 1314.87 702.353 1313.21 703.301V698.27C1315.07 697.559 1316.85 697.03 1318.54 696.684C1320.26 696.319 1321.92 696.137 1323.52 696.137C1326.05 696.137 1328.21 696.51 1330 697.258C1331.81 698.005 1333.26 699.126 1334.38 700.621C1335.07 701.533 1335.56 702.663 1335.85 704.012C1336.14 705.342 1336.29 707.348 1336.29 710.027ZM1367.9 700.785V684.953H1372.93V727.5H1367.9V723.645C1367.06 725.158 1365.94 726.315 1364.53 727.117C1363.15 727.901 1361.54 728.293 1359.72 728.293C1356.02 728.293 1353.1 726.862 1350.97 724C1348.86 721.12 1347.8 717.155 1347.8 712.105C1347.8 707.129 1348.87 703.228 1351 700.402C1353.13 697.559 1356.04 696.137 1359.72 696.137C1361.56 696.137 1363.18 696.538 1364.59 697.34C1365.99 698.124 1367.09 699.272 1367.9 700.785ZM1353.1 712.215C1353.1 716.116 1353.72 719.06 1354.96 721.047C1356.2 723.034 1358.03 724.027 1360.46 724.027C1362.88 724.027 1364.72 723.025 1365.98 721.02C1367.26 719.014 1367.9 716.079 1367.9 712.215C1367.9 708.332 1367.26 705.397 1365.98 703.41C1364.72 701.405 1362.88 700.402 1360.46 700.402C1358.03 700.402 1356.2 701.396 1354.96 703.383C1353.72 705.37 1353.1 708.314 1353.1 712.215ZM1412.16 709.672V712.133H1390.37V712.297C1390.22 716.471 1391.02 719.47 1392.75 721.293C1394.5 723.116 1396.96 724.027 1400.13 724.027C1401.74 724.027 1403.41 723.772 1405.16 723.262C1406.91 722.751 1408.78 721.977 1410.77 720.938V725.941C1408.85 726.725 1407 727.309 1405.22 727.691C1403.45 728.092 1401.74 728.293 1400.08 728.293C1395.32 728.293 1391.6 726.871 1388.92 724.027C1386.24 721.165 1384.9 717.228 1384.9 712.215C1384.9 707.329 1386.21 703.428 1388.84 700.512C1391.46 697.595 1394.96 696.137 1399.34 696.137C1403.24 696.137 1406.31 697.458 1408.55 700.102C1410.81 702.745 1412.02 705.935 1412.16 709.672ZM1407.13 708.195C1406.91 706.081 1406.14 704.258 1404.81 702.727C1403.49 701.177 1401.6 700.402 1399.12 700.402C1396.7 700.402 1394.7 701.204 1393.13 702.809C1391.56 704.413 1390.71 706.217 1390.56 708.223L1407.13 708.195ZM1450.22 703.191C1449.15 702.353 1448.05 701.742 1446.94 701.359C1445.83 700.977 1444.61 700.785 1443.28 700.785C1440.14 700.785 1437.74 701.77 1436.09 703.738C1434.43 705.707 1433.6 708.551 1433.6 712.27V727.5H1428.54V696.875H1433.6V702.863C1434.44 700.694 1435.72 699.035 1437.45 697.887C1439.2 696.72 1441.27 696.137 1443.66 696.137C1444.9 696.137 1446.06 696.292 1447.13 696.602C1448.21 696.911 1449.24 697.395 1450.22 698.051V703.191Z" fill="#004693"/>
<rect x="457" y="856" width="1586" height="828" rx="32" fill="#80BAF8"/>
<path d="M1195.96 1261.99C1196.58 1260.68 1197.36 1259.71 1198.31 1259.09C1199.28 1258.46 1200.44 1258.14 1201.78 1258.14C1204.25 1258.14 1205.98 1259.09 1206.98 1261.01C1208 1262.9 1208.51 1266.49 1208.51 1271.75V1289.5H1203.92V1271.97C1203.92 1267.65 1203.67 1264.97 1203.18 1263.93C1202.7 1262.88 1201.83 1262.35 1200.55 1262.35C1199.1 1262.35 1198.09 1262.91 1197.55 1264.04C1197.02 1265.15 1196.75 1267.8 1196.75 1271.97V1289.5H1192.16V1271.97C1192.16 1267.6 1191.89 1264.9 1191.37 1263.88C1190.86 1262.86 1189.93 1262.35 1188.58 1262.35C1187.25 1262.35 1186.32 1262.91 1185.79 1264.04C1185.28 1265.15 1185.02 1267.8 1185.02 1271.97V1289.5H1180.46V1258.88H1185.02V1261.5C1185.62 1260.41 1186.37 1259.58 1187.26 1259.01C1188.18 1258.43 1189.21 1258.14 1190.35 1258.14C1191.74 1258.14 1192.89 1258.46 1193.8 1259.09C1194.73 1259.73 1195.45 1260.7 1195.96 1261.99ZM1233.77 1274.11H1232.11C1229.17 1274.11 1226.96 1274.62 1225.46 1275.66C1223.98 1276.68 1223.25 1278.22 1223.25 1280.26C1223.25 1282.1 1223.8 1283.53 1224.91 1284.55C1226.03 1285.57 1227.57 1286.08 1229.53 1286.08C1232.31 1286.08 1234.48 1285.12 1236.07 1283.21C1237.66 1281.28 1238.46 1278.62 1238.48 1275.23V1274.11H1233.77ZM1243.53 1272.03V1289.5H1238.48V1284.96C1237.4 1286.78 1236.04 1288.13 1234.4 1289.01C1232.78 1289.86 1230.8 1290.29 1228.47 1290.29C1225.35 1290.29 1222.86 1289.42 1221 1287.67C1219.14 1285.9 1218.21 1283.54 1218.21 1280.59C1218.21 1277.18 1219.35 1274.59 1221.63 1272.82C1223.93 1271.05 1227.29 1270.17 1231.72 1270.17H1238.48V1269.38C1238.46 1266.93 1237.84 1265.16 1236.62 1264.07C1235.4 1262.96 1233.44 1262.4 1230.77 1262.4C1229.05 1262.4 1227.32 1262.65 1225.57 1263.14C1223.82 1263.63 1222.12 1264.35 1220.46 1265.3V1260.27C1222.32 1259.56 1224.09 1259.03 1225.79 1258.68C1227.5 1258.32 1229.16 1258.14 1230.77 1258.14C1233.3 1258.14 1235.46 1258.51 1237.25 1259.26C1239.05 1260.01 1240.51 1261.13 1241.62 1262.62C1242.31 1263.53 1242.81 1264.66 1243.1 1266.01C1243.39 1267.34 1243.53 1269.35 1243.53 1272.03ZM1260.32 1258.98H1273.2V1285.59H1283.18V1289.5H1258.19V1285.59H1268.17V1262.89H1260.32V1258.98ZM1268.17 1247.09H1273.2V1253.43H1268.17V1247.09ZM1317.52 1270.52V1289.5H1312.46V1270.52C1312.46 1267.77 1311.98 1265.75 1311.01 1264.45C1310.05 1263.16 1308.53 1262.51 1306.47 1262.51C1304.12 1262.51 1302.31 1263.35 1301.03 1265.03C1299.77 1266.69 1299.15 1269.07 1299.15 1272.19V1289.5H1294.11V1258.88H1299.15V1263.47C1300.04 1261.72 1301.25 1260.4 1302.78 1259.5C1304.31 1258.59 1306.13 1258.14 1308.22 1258.14C1311.34 1258.14 1313.67 1259.17 1315.2 1261.23C1316.75 1263.27 1317.52 1266.37 1317.52 1270.52Z" fill="#004693"/>
<rect x="457" y="1732" width="1586" height="200" rx="32" fill="#80BAF8"/>
<path d="M1066.1 1823.99C1066.72 1822.68 1067.51 1821.71 1068.45 1821.09C1069.42 1820.46 1070.58 1820.14 1071.93 1820.14C1074.39 1820.14 1076.12 1821.09 1077.12 1823.01C1078.14 1824.9 1078.65 1828.49 1078.65 1833.75V1851.5H1074.06V1833.97C1074.06 1829.65 1073.81 1826.97 1073.32 1825.93C1072.85 1824.88 1071.97 1824.35 1070.7 1824.35C1069.24 1824.35 1068.24 1824.91 1067.69 1826.04C1067.16 1827.15 1066.9 1829.8 1066.9 1833.97V1851.5H1062.3V1833.97C1062.3 1829.6 1062.04 1826.9 1061.51 1825.88C1061 1824.86 1060.07 1824.35 1058.72 1824.35C1057.39 1824.35 1056.46 1824.91 1055.93 1826.04C1055.42 1827.15 1055.16 1829.8 1055.16 1833.97V1851.5H1050.6V1820.88H1055.16V1823.5C1055.77 1822.41 1056.51 1821.58 1057.41 1821.01C1058.32 1820.43 1059.35 1820.14 1060.5 1820.14C1061.88 1820.14 1063.03 1820.46 1063.94 1821.09C1064.87 1821.73 1065.59 1822.7 1066.1 1823.99ZM1103.92 1836.11H1102.25C1099.31 1836.11 1097.1 1836.62 1095.6 1837.66C1094.13 1838.68 1093.39 1840.22 1093.39 1842.26C1093.39 1844.1 1093.94 1845.53 1095.06 1846.55C1096.17 1847.57 1097.71 1848.08 1099.68 1848.08C1102.45 1848.08 1104.63 1847.12 1106.21 1845.21C1107.8 1843.28 1108.6 1840.62 1108.62 1837.23V1836.11H1103.92ZM1113.68 1834.03V1851.5H1108.62V1846.96C1107.54 1848.78 1106.18 1850.13 1104.54 1851.01C1102.92 1851.86 1100.94 1852.29 1098.61 1852.29C1095.49 1852.29 1093.01 1851.42 1091.15 1849.67C1089.29 1847.9 1088.36 1845.54 1088.36 1842.59C1088.36 1839.18 1089.5 1836.59 1091.77 1834.82C1094.07 1833.05 1097.43 1832.17 1101.86 1832.17H1108.62V1831.38C1108.6 1828.93 1107.98 1827.16 1106.76 1826.07C1105.54 1824.96 1103.59 1824.4 1100.91 1824.4C1099.19 1824.4 1097.46 1824.65 1095.71 1825.14C1093.96 1825.63 1092.26 1826.35 1090.6 1827.3V1822.27C1092.46 1821.56 1094.24 1821.03 1095.93 1820.68C1097.64 1820.32 1099.3 1820.14 1100.91 1820.14C1103.44 1820.14 1105.6 1820.51 1107.39 1821.26C1109.19 1822.01 1110.65 1823.13 1111.76 1824.62C1112.46 1825.53 1112.95 1826.66 1113.24 1828.01C1113.53 1829.34 1113.68 1831.35 1113.68 1834.03ZM1130.46 1820.98H1143.34V1847.59H1153.32V1851.5H1128.33V1847.59H1138.31V1824.89H1130.46V1820.98ZM1138.31 1809.09H1143.34V1815.43H1138.31V1809.09ZM1187.66 1832.52V1851.5H1182.6V1832.52C1182.6 1829.77 1182.12 1827.75 1181.15 1826.45C1180.19 1825.16 1178.68 1824.51 1176.62 1824.51C1174.26 1824.51 1172.45 1825.35 1171.17 1827.03C1169.92 1828.69 1169.29 1831.07 1169.29 1834.19V1851.5H1164.26V1820.88H1169.29V1825.47C1170.18 1823.72 1171.39 1822.4 1172.92 1821.5C1174.46 1820.59 1176.27 1820.14 1178.37 1820.14C1181.48 1820.14 1183.81 1821.17 1185.34 1823.23C1186.89 1825.27 1187.66 1828.37 1187.66 1832.52ZM1198.82 1831.7H1227.8V1836.32H1198.82V1831.7ZM1262.2 1808.95V1813.14H1256.48C1254.68 1813.14 1253.42 1813.51 1252.71 1814.26C1252.01 1814.99 1251.67 1816.29 1251.67 1818.17V1820.88H1262.2V1824.79H1251.67V1851.5H1246.64V1824.79H1238.46V1820.88H1246.64V1818.74C1246.64 1815.39 1247.4 1812.92 1248.93 1811.33C1250.48 1809.75 1252.89 1808.95 1256.15 1808.95H1262.2ZM1287.07 1824.4C1284.52 1824.4 1282.59 1825.4 1281.28 1827.38C1279.97 1829.37 1279.31 1832.31 1279.31 1836.21C1279.31 1840.1 1279.97 1843.04 1281.28 1845.05C1282.59 1847.03 1284.52 1848.03 1287.07 1848.03C1289.65 1848.03 1291.59 1847.03 1292.9 1845.05C1294.21 1843.04 1294.87 1840.1 1294.87 1836.21C1294.87 1832.31 1294.21 1829.37 1292.9 1827.38C1291.59 1825.4 1289.65 1824.4 1287.07 1824.4ZM1287.07 1820.14C1291.32 1820.14 1294.57 1821.51 1296.81 1824.27C1299.07 1827.02 1300.2 1831 1300.2 1836.21C1300.2 1841.45 1299.08 1845.44 1296.84 1848.19C1294.59 1850.93 1291.34 1852.29 1287.07 1852.29C1282.83 1852.29 1279.58 1850.93 1277.34 1848.19C1275.1 1845.44 1273.98 1841.45 1273.98 1836.21C1273.98 1831 1275.1 1827.02 1277.34 1824.27C1279.58 1821.51 1282.83 1820.14 1287.07 1820.14ZM1324.18 1824.4C1321.62 1824.4 1319.69 1825.4 1318.38 1827.38C1317.07 1829.37 1316.41 1832.31 1316.41 1836.21C1316.41 1840.1 1317.07 1843.04 1318.38 1845.05C1319.69 1847.03 1321.62 1848.03 1324.18 1848.03C1326.75 1848.03 1328.69 1847.03 1330 1845.05C1331.31 1843.04 1331.97 1840.1 1331.97 1836.21C1331.97 1832.31 1331.31 1829.37 1330 1827.38C1328.69 1825.4 1326.75 1824.4 1324.18 1824.4ZM1324.18 1820.14C1328.42 1820.14 1331.67 1821.51 1333.91 1824.27C1336.17 1827.02 1337.3 1831 1337.3 1836.21C1337.3 1841.45 1336.18 1845.44 1333.94 1848.19C1331.7 1850.93 1328.44 1852.29 1324.18 1852.29C1319.93 1852.29 1316.68 1850.93 1314.44 1848.19C1312.2 1845.44 1311.08 1841.45 1311.08 1836.21C1311.08 1831 1312.2 1827.02 1314.44 1824.27C1316.68 1821.51 1319.93 1820.14 1324.18 1820.14ZM1361.22 1812.18V1820.88H1372.65V1824.79H1361.22V1841.41C1361.22 1843.67 1361.65 1845.25 1362.51 1846.14C1363.37 1847.03 1364.86 1847.48 1366.99 1847.48H1372.65V1851.5H1366.5C1362.73 1851.5 1360.07 1850.74 1358.52 1849.23C1356.97 1847.72 1356.19 1845.11 1356.19 1841.41V1824.79H1348.02V1820.88H1356.19V1812.18H1361.22ZM1412.16 1833.67V1836.13H1390.37V1836.3C1390.22 1840.47 1391.02 1843.47 1392.75 1845.29C1394.5 1847.12 1396.96 1848.03 1400.13 1848.03C1401.74 1848.03 1403.41 1847.77 1405.16 1847.26C1406.91 1846.75 1408.78 1845.98 1410.77 1844.94V1849.94C1408.85 1850.73 1407 1851.31 1405.22 1851.69C1403.45 1852.09 1401.74 1852.29 1400.08 1852.29C1395.32 1852.29 1391.6 1850.87 1388.92 1848.03C1386.24 1845.17 1384.9 1841.23 1384.9 1836.21C1384.9 1831.33 1386.21 1827.43 1388.84 1824.51C1391.46 1821.6 1394.96 1820.14 1399.34 1820.14C1403.24 1820.14 1406.31 1821.46 1408.55 1824.1C1410.81 1826.74 1412.02 1829.93 1412.16 1833.67ZM1407.13 1832.2C1406.91 1830.08 1406.14 1828.26 1404.81 1826.73C1403.49 1825.18 1401.6 1824.4 1399.12 1824.4C1396.7 1824.4 1394.7 1825.2 1393.13 1826.81C1391.56 1828.41 1390.71 1830.22 1390.56 1832.22L1407.13 1832.2ZM1450.22 1827.19C1449.15 1826.35 1448.05 1825.74 1446.94 1825.36C1445.83 1824.98 1444.61 1824.79 1443.28 1824.79C1440.14 1824.79 1437.74 1825.77 1436.09 1827.74C1434.43 1829.71 1433.6 1832.55 1433.6 1836.27V1851.5H1428.54V1820.88H1433.6V1826.86C1434.44 1824.69 1435.72 1823.04 1437.45 1821.89C1439.2 1820.72 1441.27 1820.14 1443.66 1820.14C1444.9 1820.14 1446.06 1820.29 1447.13 1820.6C1448.21 1820.91 1449.24 1821.39 1450.22 1822.05V1827.19Z" fill="#004693"/>
</g>
<rect x="2091" y="608" width="345" height="1324" rx="32" fill="#80BAF8"/>
<path d="M2191.62 1274.11H2189.95C2187.02 1274.11 2184.8 1274.62 2183.31 1275.66C2181.83 1276.68 2181.09 1278.22 2181.09 1280.26C2181.09 1282.1 2181.65 1283.53 2182.76 1284.55C2183.87 1285.57 2185.41 1286.08 2187.38 1286.08C2190.15 1286.08 2192.33 1285.12 2193.92 1283.21C2195.5 1281.28 2196.3 1278.62 2196.32 1275.23V1274.11H2191.62ZM2201.38 1272.03V1289.5H2196.32V1284.96C2195.25 1286.78 2193.89 1288.13 2192.25 1289.01C2190.63 1289.86 2188.65 1290.29 2186.32 1290.29C2183.2 1290.29 2180.71 1289.42 2178.85 1287.67C2176.99 1285.9 2176.06 1283.54 2176.06 1280.59C2176.06 1277.18 2177.2 1274.59 2179.48 1272.82C2181.78 1271.05 2185.14 1270.17 2189.57 1270.17H2196.32V1269.38C2196.3 1266.93 2195.68 1265.16 2194.46 1264.07C2193.24 1262.96 2191.29 1262.4 2188.61 1262.4C2186.9 1262.4 2185.17 1262.65 2183.42 1263.14C2181.67 1263.63 2179.96 1264.35 2178.3 1265.3V1260.27C2180.16 1259.56 2181.94 1259.03 2183.64 1258.68C2185.35 1258.32 2187.01 1258.14 2188.61 1258.14C2191.15 1258.14 2193.31 1258.51 2195.09 1259.26C2196.9 1260.01 2198.36 1261.13 2199.47 1262.62C2200.16 1263.53 2200.65 1264.66 2200.94 1266.01C2201.24 1267.34 2201.38 1269.35 2201.38 1272.03ZM2236.13 1259.94V1264.86C2234.69 1264.02 2233.24 1263.4 2231.78 1262.98C2230.33 1262.56 2228.84 1262.35 2227.33 1262.35C2225.05 1262.35 2223.34 1262.72 2222.21 1263.47C2221.1 1264.2 2220.55 1265.32 2220.55 1266.83C2220.55 1268.2 2220.97 1269.22 2221.8 1269.89C2222.64 1270.57 2224.73 1271.23 2228.07 1271.86L2230.09 1272.25C2232.59 1272.72 2234.47 1273.67 2235.75 1275.09C2237.04 1276.51 2237.69 1278.36 2237.69 1280.64C2237.69 1283.67 2236.62 1286.04 2234.46 1287.75C2232.31 1289.45 2229.32 1290.29 2225.5 1290.29C2223.98 1290.29 2222.4 1290.13 2220.74 1289.8C2219.08 1289.49 2217.28 1289.02 2215.35 1288.38V1283.18C2217.23 1284.15 2219.02 1284.88 2220.74 1285.37C2222.45 1285.85 2224.07 1286.08 2225.6 1286.08C2227.83 1286.08 2229.55 1285.64 2230.77 1284.74C2231.99 1283.83 2232.6 1282.56 2232.6 1280.94C2232.6 1278.61 2230.37 1276.99 2225.91 1276.1L2225.69 1276.05L2223.8 1275.66C2220.9 1275.1 2218.79 1274.15 2217.46 1272.82C2216.13 1271.47 2215.46 1269.64 2215.46 1267.32C2215.46 1264.39 2216.45 1262.13 2218.44 1260.54C2220.43 1258.94 2223.26 1258.14 2226.94 1258.14C2228.59 1258.14 2230.16 1258.29 2231.68 1258.6C2233.19 1258.89 2234.67 1259.34 2236.13 1259.94ZM2255.27 1258.98H2268.15V1285.59H2278.13V1289.5H2253.14V1285.59H2263.12V1262.89H2255.27V1258.98ZM2263.12 1247.09H2268.15V1253.43H2263.12V1247.09ZM2307.19 1262.79V1246.95H2312.22V1289.5H2307.19V1285.64C2306.35 1287.16 2305.23 1288.32 2303.83 1289.12C2302.44 1289.9 2300.84 1290.29 2299.02 1290.29C2295.32 1290.29 2292.4 1288.86 2290.27 1286C2288.15 1283.12 2287.09 1279.15 2287.09 1274.11C2287.09 1269.13 2288.16 1265.23 2290.29 1262.4C2292.43 1259.56 2295.33 1258.14 2299.02 1258.14C2300.86 1258.14 2302.48 1258.54 2303.88 1259.34C2305.29 1260.12 2306.39 1261.27 2307.19 1262.79ZM2292.4 1274.21C2292.4 1278.12 2293.02 1281.06 2294.26 1283.05C2295.5 1285.03 2297.33 1286.03 2299.75 1286.03C2302.18 1286.03 2304.02 1285.02 2305.28 1283.02C2306.55 1281.01 2307.19 1278.08 2307.19 1274.21C2307.19 1270.33 2306.55 1267.4 2305.28 1265.41C2304.02 1263.4 2302.18 1262.4 2299.75 1262.4C2297.33 1262.4 2295.5 1263.4 2294.26 1265.38C2293.02 1267.37 2292.4 1270.31 2292.4 1274.21ZM2351.46 1271.67V1274.13H2329.67V1274.3C2329.52 1278.47 2330.31 1281.47 2332.04 1283.29C2333.79 1285.12 2336.26 1286.03 2339.43 1286.03C2341.03 1286.03 2342.71 1285.77 2344.46 1285.26C2346.21 1284.75 2348.08 1283.98 2350.06 1282.94V1287.94C2348.15 1288.73 2346.3 1289.31 2344.51 1289.69C2342.74 1290.09 2341.03 1290.29 2339.37 1290.29C2334.61 1290.29 2330.9 1288.87 2328.22 1286.03C2325.54 1283.17 2324.2 1279.23 2324.2 1274.21C2324.2 1269.33 2325.51 1265.43 2328.13 1262.51C2330.76 1259.6 2334.26 1258.14 2338.63 1258.14C2342.54 1258.14 2345.61 1259.46 2347.85 1262.1C2350.11 1264.74 2351.31 1267.93 2351.46 1271.67ZM2346.43 1270.2C2346.21 1268.08 2345.43 1266.26 2344.1 1264.73C2342.79 1263.18 2340.89 1262.4 2338.42 1262.4C2335.99 1262.4 2333.99 1263.2 2332.43 1264.81C2330.86 1266.41 2330 1268.22 2329.86 1270.22L2346.43 1270.2Z" fill="#004693"/>
<rect x="64" y="1980" width="2372" height="200" rx="32" fill="#80BAF8"/>
<path d="M1169.44 2056.95V2061.14H1163.72C1161.92 2061.14 1160.66 2061.51 1159.95 2062.26C1159.26 2062.99 1158.91 2064.29 1158.91 2066.17V2068.88H1169.44V2072.79H1158.91V2099.5H1153.88V2072.79H1145.71V2068.88H1153.88V2066.74C1153.88 2063.39 1154.65 2060.92 1156.18 2059.33C1157.73 2057.75 1160.13 2056.95 1163.4 2056.95H1169.44ZM1194.32 2072.4C1191.77 2072.4 1189.83 2073.4 1188.52 2075.38C1187.21 2077.37 1186.55 2080.31 1186.55 2084.21C1186.55 2088.1 1187.21 2091.04 1188.52 2093.05C1189.83 2095.03 1191.77 2096.03 1194.32 2096.03C1196.89 2096.03 1198.83 2095.03 1200.14 2093.05C1201.46 2091.04 1202.11 2088.1 1202.11 2084.21C1202.11 2080.31 1201.46 2077.37 1200.14 2075.38C1198.83 2073.4 1196.89 2072.4 1194.32 2072.4ZM1194.32 2068.14C1198.57 2068.14 1201.81 2069.51 1204.05 2072.27C1206.31 2075.02 1207.44 2079 1207.44 2084.21C1207.44 2089.45 1206.32 2093.44 1204.08 2096.19C1201.84 2098.93 1198.58 2100.29 1194.32 2100.29C1190.07 2100.29 1186.83 2098.93 1184.58 2096.19C1182.34 2093.44 1181.22 2089.45 1181.22 2084.21C1181.22 2079 1182.34 2075.02 1184.58 2072.27C1186.83 2069.51 1190.07 2068.14 1194.32 2068.14ZM1231.42 2072.4C1228.87 2072.4 1226.94 2073.4 1225.62 2075.38C1224.31 2077.37 1223.66 2080.31 1223.66 2084.21C1223.66 2088.1 1224.31 2091.04 1225.62 2093.05C1226.94 2095.03 1228.87 2096.03 1231.42 2096.03C1233.99 2096.03 1235.93 2095.03 1237.25 2093.05C1238.56 2091.04 1239.21 2088.1 1239.21 2084.21C1239.21 2080.31 1238.56 2077.37 1237.25 2075.38C1235.93 2073.4 1233.99 2072.4 1231.42 2072.4ZM1231.42 2068.14C1235.67 2068.14 1238.91 2069.51 1241.16 2072.27C1243.42 2075.02 1244.55 2079 1244.55 2084.21C1244.55 2089.45 1243.43 2093.44 1241.18 2096.19C1238.94 2098.93 1235.69 2100.29 1231.42 2100.29C1227.17 2100.29 1223.93 2098.93 1221.69 2096.19C1219.44 2093.44 1218.32 2089.45 1218.32 2084.21C1218.32 2079 1219.44 2075.02 1221.69 2072.27C1223.93 2069.51 1227.17 2068.14 1231.42 2068.14ZM1268.47 2060.18V2068.88H1279.9V2072.79H1268.47V2089.41C1268.47 2091.67 1268.9 2093.25 1269.75 2094.14C1270.61 2095.03 1272.11 2095.48 1274.24 2095.48H1279.9V2099.5H1273.75C1269.97 2099.5 1267.31 2098.74 1265.76 2097.23C1264.21 2095.72 1263.44 2093.11 1263.44 2089.41V2072.79H1255.26V2068.88H1263.44V2060.18H1268.47ZM1319.41 2081.67V2084.13H1297.61V2084.3C1297.47 2088.47 1298.26 2091.47 1299.99 2093.29C1301.74 2095.12 1304.2 2096.03 1307.38 2096.03C1308.98 2096.03 1310.66 2095.77 1312.41 2095.26C1314.16 2094.75 1316.03 2093.98 1318.01 2092.94V2097.94C1316.1 2098.73 1314.25 2099.31 1312.46 2099.69C1310.69 2100.09 1308.98 2100.29 1307.32 2100.29C1302.56 2100.29 1298.84 2098.87 1296.17 2096.03C1293.49 2093.17 1292.15 2089.23 1292.15 2084.21C1292.15 2079.33 1293.46 2075.43 1296.08 2072.51C1298.71 2069.6 1302.21 2068.14 1306.58 2068.14C1310.48 2068.14 1313.56 2069.46 1315.8 2072.1C1318.06 2074.74 1319.26 2077.93 1319.41 2081.67ZM1314.38 2080.2C1314.16 2078.08 1313.38 2076.26 1312.05 2074.73C1310.74 2073.18 1308.84 2072.4 1306.36 2072.4C1303.94 2072.4 1301.94 2073.2 1300.38 2074.81C1298.81 2076.41 1297.95 2078.22 1297.81 2080.22L1314.38 2080.2ZM1357.47 2075.19C1356.39 2074.35 1355.3 2073.74 1354.19 2073.36C1353.07 2072.98 1351.85 2072.79 1350.52 2072.79C1347.39 2072.79 1344.99 2073.77 1343.33 2075.74C1341.67 2077.71 1340.84 2080.55 1340.84 2084.27V2099.5H1335.78V2068.88H1340.84V2074.86C1341.68 2072.69 1342.97 2071.04 1344.7 2069.89C1346.45 2068.72 1348.52 2068.14 1350.9 2068.14C1352.14 2068.14 1353.3 2068.29 1354.38 2068.6C1355.45 2068.91 1356.48 2069.39 1357.47 2070.05V2075.19Z" fill="#004693"/>
</g>
<defs>
<clipPath id="clip0_12_1043">
<rect width="2500" height="2244" rx="64" fill="white"/>
</clipPath>
<clipPath id="clip1_12_1043">
<rect x="457" y="608" width="1586" height="1324" rx="16" fill="white"/>
</clipPath>
</defs>
</svg>
