<svg width="105" height="16" viewBox="0 0 105 16" fill="none" xmlns="http://www.w3.org/2000/svg">
<path d="M78.0517 11.8597C78.464 12.2456 79.2272 12.5 79.8675 12.5C81.0605 12.5 81.9903 11.8333 81.9903 10.693C81.9903 9.84215 81.4727 9.35093 80.5078 8.94743L79.8412 8.66674C79.4815 8.51762 79.3412 8.41235 79.3412 8.19306C79.3412 7.92991 79.5605 7.82465 79.8587 7.82465C80.169 7.82465 80.3376 7.95507 80.4921 8.07458C80.5297 8.1037 80.5665 8.1322 80.6043 8.15797C80.7359 8.25446 80.8675 8.28955 80.9903 8.28955C81.3236 8.28955 81.6657 8.00008 81.6657 7.61413C81.6657 7.47378 81.6219 7.31589 81.4903 7.16677C81.3499 7.0001 80.8587 6.49134 79.8412 6.50011C78.6921 6.50011 77.8149 7.17554 77.8149 8.2106C77.8149 9.02638 78.3588 9.55268 79.2798 9.95618L79.8763 10.2193C80.2798 10.3948 80.464 10.4825 80.464 10.7544C80.464 11.0351 80.271 11.1755 79.8675 11.1755C79.3642 11.1755 79.0247 10.8964 78.8489 10.752C78.8133 10.7228 78.7844 10.699 78.7623 10.6842C78.657 10.6141 78.5342 10.579 78.4202 10.579C78.0781 10.579 77.7535 10.8421 77.7447 11.2456C77.7447 11.4737 77.8588 11.6754 78.0517 11.8597Z" fill="currentColor"/>
<path d="M97.9115 7.2808C97.9115 6.83344 97.5957 6.50012 97.1572 6.50011C96.8502 6.50011 96.6396 6.64923 96.394 7.05274L94.9642 9.35094L93.5344 7.05274C93.2888 6.64923 93.0783 6.50011 92.7713 6.50011C92.3327 6.50011 92.0169 6.83344 92.0169 7.2808V11.7369C92.0169 12.1754 92.3415 12.5 92.7713 12.5C93.2011 12.5 93.5257 12.1754 93.5257 11.7369V9.71058L94.28 10.9123C94.4906 11.2456 94.6835 11.3772 94.9642 11.3772C95.2449 11.3772 95.4379 11.2456 95.6484 10.9123L96.4028 9.71058V11.7369C96.4028 12.1754 96.7273 12.5 97.1572 12.5C97.587 12.5 97.9115 12.1754 97.9115 11.7369L97.9115 7.2808Z" fill="currentColor"/>
<path d="M100.516 11.6316C100.516 12.0702 100.84 12.3947 101.279 12.3947L104.033 12.3947C104.428 12.3947 104.726 12.1053 104.726 11.7105C104.726 11.3246 104.437 11.0351 104.033 11.0351L102.024 11.0351V10.0264L103.235 10.0264C103.603 10.0264 103.875 9.75445 103.875 9.3948C103.875 9.03516 103.603 8.76324 103.235 8.76324L102.024 8.76324V7.96501L103.928 7.96501C104.323 7.96501 104.621 7.67554 104.621 7.28081C104.621 6.89485 104.331 6.60539 103.928 6.60539L101.279 6.60538C100.84 6.60538 100.516 6.92994 100.516 7.36853V11.6316Z" fill="currentColor"/>
<path fill-rule="evenodd" clip-rule="evenodd" d="M86.8778 6.50011C88.6322 6.50011 90.0094 7.82465 90.0094 9.50006C90.0094 11.1842 88.6322 12.5 86.8778 12.5C85.1235 12.5 83.7639 11.1842 83.7639 9.50006C83.7639 7.81588 85.1323 6.50011 86.8778 6.50011ZM86.8866 7.88605C85.948 7.88605 85.3077 8.54393 85.3077 9.50006C85.3077 10.4649 85.9393 11.1141 86.8866 11.1141C87.8164 11.1141 88.4655 10.4474 88.4655 9.50006C88.4655 8.56148 87.8076 7.88605 86.8866 7.88605Z" fill="currentColor"/>
<path d="M72.1721 12.3947C71.7335 12.3947 71.4089 12.0702 71.4089 11.6316V7.36852C71.4089 6.92993 71.7335 6.60538 72.1721 6.60538L74.8211 6.60538C75.2246 6.60538 75.5141 6.89485 75.5141 7.2808C75.5141 7.67553 75.2159 7.965 74.8211 7.965L72.9177 7.965V8.76323L74.1282 8.76323C74.4966 8.76323 74.7685 9.03515 74.7685 9.3948C74.7685 9.75444 74.4966 10.0264 74.1282 10.0264L72.9177 10.0264V11.0351L74.9264 11.0351C75.3299 11.0351 75.6194 11.3246 75.6194 11.7105C75.6194 12.1053 75.3211 12.3947 74.9264 12.3947L72.1721 12.3947Z" fill="currentColor"/>
<path d="M69.4429 7.23694C69.443 6.83344 69.1009 6.50012 68.6886 6.50012C68.364 6.50012 68.1009 6.68432 67.9868 7.00011L66.943 9.8597L65.9781 7.07028C65.8465 6.70187 65.5834 6.50011 65.2325 6.50011C64.8816 6.50011 64.6185 6.70187 64.4869 7.07028L63.522 9.8597L62.4694 6.97379C62.3641 6.67555 62.101 6.50011 61.7764 6.50011C61.3642 6.50011 61.0221 6.83344 61.0221 7.23694C61.0221 7.3422 61.0396 7.43869 61.101 7.57904L62.8115 11.9912C62.9343 12.3246 63.1799 12.5 63.5132 12.5C63.8378 12.5 64.0834 12.3246 64.2062 11.9912L65.2325 9.21059L66.2588 11.9912C66.3816 12.3246 66.6272 12.5 66.9518 12.5C67.2851 12.5 67.5307 12.3246 67.6535 11.9912L69.364 7.57904C69.4166 7.44747 69.4429 7.35098 69.4429 7.23694Z" fill="currentColor"/>
<path fill-rule="evenodd" clip-rule="evenodd" d="M60.0269 11.4123C60.0795 11.5439 60.1058 11.6755 60.1058 11.7807C60.1058 12.193 59.7901 12.5 59.3602 12.5C59.0357 12.5 58.7901 12.3158 58.6497 11.9561L58.5269 11.6491L56.4568 11.6491L56.334 11.9561C56.1936 12.3158 55.948 12.5 55.6235 12.5C55.1936 12.5 54.8779 12.193 54.8779 11.7807C54.8779 11.6755 54.9042 11.5439 54.9568 11.4123L56.7726 7.0001C56.9041 6.67555 57.1498 6.50011 57.4919 6.50011C57.834 6.50011 58.0796 6.67555 58.2111 7.00011L60.0269 11.4123ZM57.4919 8.74568L56.9041 10.4386L58.0796 10.4386L57.4919 8.74568Z" fill="currentColor"/>
<path d="M35.6665 6.50013C36.0788 6.50013 36.4209 6.83346 36.4209 7.23696C36.4209 7.35099 36.3946 7.44748 36.3419 7.57906L34.6314 11.9912C34.5086 12.3246 34.263 12.5 33.9297 12.5C33.6051 12.5 33.3595 12.3246 33.2367 11.9912L32.2104 9.2106L31.1841 11.9912C31.0613 12.3246 30.8157 12.5 30.4912 12.5C30.1578 12.5 29.9122 12.3246 29.7894 11.9912L28.0789 7.57906C28.0175 7.43871 28 7.34222 28 7.23696C28 6.83346 28.3421 6.50013 28.7544 6.50013C29.0789 6.50013 29.3421 6.67557 29.4473 6.97381L30.4999 9.85971L31.4648 7.07029C31.5964 6.70188 31.8596 6.50013 32.2104 6.50013C32.5613 6.50013 32.8245 6.70188 32.956 7.07029L33.9209 9.85971L34.9648 7.00012C35.0788 6.68434 35.3419 6.50013 35.6665 6.50013Z" fill="currentColor"/>
<path d="M38.3868 11.6316C38.3868 12.0702 38.7114 12.3947 39.15 12.3947H41.9043C42.299 12.3947 42.5973 12.1052 42.5973 11.7105C42.5973 11.3246 42.3078 11.0351 41.9043 11.0351H39.8956V10.0263H41.1061C41.4745 10.0263 41.7464 9.75442 41.7464 9.39478C41.7464 9.03514 41.4745 8.76321 41.1061 8.76321H39.8956V7.96498H41.799C42.1938 7.96498 42.492 7.67552 42.492 7.28079C42.492 6.89483 42.2025 6.60536 41.799 6.60536H39.15C38.7114 6.60536 38.3868 6.92992 38.3868 7.36851V11.6316Z" fill="currentColor"/>
<path fill-rule="evenodd" clip-rule="evenodd" d="M49.5021 10.6754C49.5021 10.0176 49.1425 9.53512 48.5372 9.28952C48.7653 9.03514 48.8881 8.70181 48.8881 8.31585C48.8881 7.31587 48.0723 6.60536 46.932 6.60536H45.6075C45.1689 6.60536 44.8443 6.92992 44.8443 7.36851V11.6316C44.8443 12.0702 45.1689 12.3947 45.6075 12.3947H47.546C48.6776 12.3947 49.5021 11.6754 49.5021 10.6754ZM46.2917 7.87727H46.8355C47.1864 7.87727 47.4145 8.07024 47.4145 8.38603C47.4145 8.70181 47.1864 8.89479 46.8355 8.89479H46.2917V7.87727ZM48.0285 10.614C48.0285 10.9386 47.818 11.1228 47.4496 11.1228H46.2917V10.1053H47.4496C47.818 10.1053 48.0285 10.2895 48.0285 10.614Z" fill="currentColor"/>
<path d="M11.63 1.625C11.63 2.27911 11.2435 2.84296 10.6865 3.10064L14 6L17.2622 5.34755C17.0968 5.10642 17 4.81452 17 4.5C17 3.67157 17.6716 3 18.5 3C19.3284 3 20 3.67157 20 4.5C20 5.31157 19.3555 5.9726 18.5504 5.99917L15.0307 13.8207C14.7077 14.5384 13.9939 15 13.2068 15H6.79317C6.00615 15 5.29229 14.5384 4.96933 13.8207L1.44963 5.99917C0.64452 5.9726 0 5.31157 0 4.5C0 3.67157 0.671573 3 1.5 3C2.32843 3 3 3.67157 3 4.5C3 4.81452 2.9032 5.10642 2.73777 5.34755L6 6L9.31702 3.09761C8.76346 2.83855 8.38 2.27656 8.38 1.625C8.38 0.727537 9.10754 0 10.005 0C10.9025 0 11.63 0.727537 11.63 1.625Z" fill="var(--wa-brand-orange, #F36944)"/>
</svg>
