<svg width="24" height="24" viewBox="0 0 24 24" fill="none" xmlns="http://www.w3.org/2000/svg">
<path d="M9.79044 3.79044C9.316 4.26488 9 4.99324 9 6C9 6.55228 8.55228 7 8 7C7.44771 7 7 6.55228 7 6C7 4.56231 7.46177 3.29068 8.37622 2.37623C9.29067 1.46177 10.5623 1 12 1C13.4377 1 14.7093 1.46177 15.6238 2.37623C16.5382 3.29068 17 4.56231 17 6C17 6.55228 16.5523 7 16 7C15.4477 7 15 6.55228 15 6C15 4.99324 14.684 4.26488 14.2096 3.79044C13.7351 3.316 13.0068 3 12 3C10.9932 3 10.2649 3.316 9.79044 3.79044Z" fill="black"/>
<path d="M6.50081 8.88422C7.44285 8.72713 9.27609 8.5 12 8.5C14.7239 8.5 16.5571 8.72713 17.4992 8.88422C18.3696 9.02936 18.9732 9.73303 19.081 10.5411L19.9912 17.3678C20.0171 17.5617 20 17.7637 20 17.9586C20 19.9052 18.5795 21.616 16.5661 21.7955C15.3473 21.9041 13.7702 22 12 22C10.2298 22 8.65272 21.9041 7.43389 21.7955C5.42048 21.616 4 19.9052 4 17.9586C4 17.7637 3.98291 17.5617 4.00877 17.3678L4.919 10.5411C5.02674 9.73303 5.63044 9.02936 6.50081 8.88422Z" fill="black"/>
</svg>
