<svg width="24" height="24" viewBox="0 0 24 24" fill="none" xmlns="http://www.w3.org/2000/svg">
<path d="M8.99999 3.99997C8.44771 3.99997 7.99999 4.44769 7.99999 4.99997C7.99999 5.55226 8.44771 5.99997 8.99999 5.99997H20C20.5523 5.99997 21 5.55226 21 4.99997C21 4.44769 20.5523 3.99997 20 3.99997H8.99999Z" fill="black"/>
<path d="M8.99999 11C8.44771 11 7.99999 11.4477 7.99999 12C7.99999 12.5523 8.44771 13 8.99999 13H20C20.5523 13 21 12.5523 21 12C21 11.4477 20.5523 11 20 11H8.99999Z" fill="black"/>
<path d="M8.99999 18C8.44771 18 7.99999 18.4477 7.99999 19C7.99999 19.5523 8.44771 20 8.99999 20H20C20.5523 20 21 19.5523 21 19C21 18.4477 20.5523 18 20 18H8.99999Z" fill="black"/>
<path d="M5.24668 6.51236C5.18352 5.73866 5.12035 5.08323 5.0729 4.6206C5.04767 4.37464 5.02177 4.12872 4.99314 3.88313C4.92861 3.33463 4.43165 2.94229 3.88315 3.00682C3.33466 3.07135 2.94238 3.56871 3.00688 4.11719C3.03433 4.35279 3.05913 4.58871 3.08333 4.82466C3.12964 5.27609 3.19147 5.91753 3.25331 6.67509C3.3773 8.19398 3.49999 10.1637 3.49999 12C3.49999 13.8363 3.3773 15.806 3.25331 17.3249C3.19146 18.0824 3.12963 18.7239 3.08333 19.1753C3.05912 19.4114 3.0343 19.6474 3.00683 19.8832C2.94233 20.4317 3.33466 20.9286 3.88315 20.9931C4.43165 21.0577 4.92863 20.6652 4.99316 20.1167C5.02178 19.8711 5.04767 19.6253 5.0729 19.3793C5.12035 18.9167 5.18352 18.2613 5.24667 17.4876C5.37268 15.944 5.49999 13.9137 5.49999 12C5.49999 10.0863 5.37268 8.05597 5.24668 6.51236Z" fill="black"/>
</svg>
