<svg width="24" height="24" viewBox="0 0 24 24" fill="none" xmlns="http://www.w3.org/2000/svg">
<path d="M8.44525 2.16806C8.90478 1.8617 9.52565 1.98588 9.832 2.44541L10.3893 3.28128C10.8832 3.09333 11.4275 3.00011 11.9999 3.00011C12.5724 3.00011 13.1167 3.09333 13.6106 3.28128L14.1679 2.44541C14.4743 1.98588 15.0951 1.8617 15.5546 2.16806C16.0142 2.47441 16.1384 3.09528 15.832 3.55481L15.2174 4.47674C15.7414 5.17171 15.9999 6.04673 15.9999 7.00011C15.9999 8.13224 15.6354 9.15387 14.8946 9.89471L14.8891 9.90012C15.2957 10.4886 15.4999 11.2152 15.4999 12.0001C15.4999 12.7317 15.3225 13.4126 14.9692 13.9783C15.0697 14.0606 15.1664 14.1482 15.2591 14.2409C16.0868 15.0686 16.4999 16.2152 16.4999 17.5001C16.4999 18.785 16.0868 19.9317 15.2591 20.7593C14.4315 21.5869 13.2849 22.0001 11.9999 22.0001C10.715 22.0001 9.5684 21.5869 8.74076 20.7593C7.91311 19.9317 7.49995 18.785 7.49995 17.5001C7.49995 16.2152 7.91311 15.0686 8.74076 14.2409C8.8335 14.1482 8.93024 14.0606 9.03074 13.9783C8.67741 13.4126 8.49995 12.7317 8.49995 12.0001C8.49995 11.2152 8.70421 10.4886 9.11076 9.90012L9.10534 9.89471C8.3645 9.15387 7.99995 8.13224 7.99995 7.00011C7.99995 6.04673 8.25847 5.17171 8.78252 4.47674L8.1679 3.55481C7.86155 3.09528 7.98572 2.47441 8.44525 2.16806Z" fill="black"/>
<path d="M4.99995 4.00011C5.55223 4.00011 5.99995 4.44782 5.99995 5.00011V8.35863C5.99995 8.96163 6.35506 9.50806 6.90609 9.75296C7.41077 9.97727 7.63806 10.5682 7.41376 11.0729C7.18946 11.5776 6.59849 11.8049 6.09381 11.5806C4.82053 11.0147 3.99995 9.752 3.99995 8.35863V5.00011C3.99995 4.44782 4.44766 4.00011 4.99995 4.00011Z" fill="black"/>
<path d="M17.9999 5.00011C17.9999 4.44782 18.4477 4.00011 18.9999 4.00011C19.5522 4.00011 19.9999 4.44782 19.9999 5.00011V8.35863C19.9999 9.752 19.1794 11.0147 17.9061 11.5806C17.4014 11.8049 16.8104 11.5776 16.5861 11.0729C16.3618 10.5682 16.5891 9.97727 17.0938 9.75296C17.6448 9.50806 17.9999 8.96163 17.9999 8.35863V5.00011Z" fill="black"/>
<path d="M3.80383 19.9807C3.26227 19.8724 2.91106 19.3456 3.01937 18.804L3.71487 15.3265C3.96949 14.0534 4.8262 12.983 6.01264 12.4557L6.09381 12.4196C6.59849 12.1953 7.18946 12.4226 7.41376 12.9273C7.63806 13.432 7.41077 14.0229 6.90609 14.2473L6.82491 14.2833C6.2317 14.547 5.80334 15.0822 5.67603 15.7187L4.98053 19.1962C4.87222 19.7378 4.34539 20.089 3.80383 19.9807Z" fill="black"/>
<path d="M20.9805 18.804C21.0888 19.3456 20.7376 19.8724 20.1961 19.9807C19.6545 20.089 19.1277 19.7378 19.0194 19.1962L18.3239 15.7187C18.1966 15.0822 17.7682 14.547 17.175 14.2833L17.0938 14.2473C16.5891 14.0229 16.3618 13.432 16.5861 12.9273C16.8104 12.4226 17.4014 12.1953 17.9061 12.4196L17.9873 12.4557C19.1737 12.983 20.0304 14.0534 20.285 15.3265L20.9805 18.804Z" fill="black"/>
</svg>
