<svg width="24" height="24" viewBox="0 0 24 24" fill="none" xmlns="http://www.w3.org/2000/svg">
<path d="M10 3C10 2.44772 9.55228 2 9 2C8.44772 2 8 2.44772 8 3V4.07434C7.54731 4.11463 7.12813 4.17363 6.74229 4.25685C5.82834 4.45398 5.0349 4.80089 4.41789 5.41789C3.80089 6.0349 3.45398 6.82834 3.25685 7.74229C3.19655 8.02189 3.14896 8.319 3.11199 8.63368C3.0492 9.1682 3.45718 9.63299 3.99373 9.67517C4.31096 9.70011 4.66249 9.72622 5.04389 9.75234C6.85372 9.87629 9.32991 10 12 10C14.6701 10 17.1463 9.87629 18.9561 9.75234C19.3375 9.72622 19.689 9.70011 20.0063 9.67517C20.5428 9.63299 20.9508 9.16821 20.888 8.63368C20.851 8.319 20.8035 8.02189 20.7431 7.74229C20.546 6.82834 20.1991 6.0349 19.5821 5.41789C18.9651 4.80089 18.1717 4.45398 17.2577 4.25685C16.8719 4.17363 16.4527 4.11463 16 4.07434V3C16 2.44772 15.5523 2 15 2C14.4477 2 14 2.44772 14 3V4H10L10 3Z" fill="black"/>
<path d="M3 14C3 15.2698 3.06215 16.355 3.25685 17.2577C3.45398 18.1717 3.80089 18.9651 4.41789 19.5821C5.0349 20.1991 5.82834 20.546 6.74229 20.7431C7.64499 20.9378 8.73019 21 10 21H14C15.2698 21 16.355 20.9378 17.2577 20.7431C18.1717 20.546 18.9651 20.1991 19.5821 19.5821C20.1991 18.9651 20.546 18.1717 20.7431 17.2577C20.9378 16.355 21 15.2698 21 14V12.6909C21 12.1042 20.4974 11.6439 19.9124 11.6884C19.6574 11.7078 19.3835 11.7278 19.0928 11.7477C17.2522 11.8737 14.7284 12 12 12C9.27158 12 6.74777 11.8737 4.90723 11.7477C4.61649 11.7278 4.34264 11.7078 4.08757 11.6884C3.50261 11.6439 3 12.1042 3 12.6909V14Z" fill="black"/>
</svg>
