<svg width="24" height="24" viewBox="0 0 24 24" fill="none" xmlns="http://www.w3.org/2000/svg">
<path fill-rule="evenodd" clip-rule="evenodd" d="M5.50391 4.91637L4.50122 8.55775C4.15023 8.6915 3.83008 8.85675 3.54376 9.06127C2.24726 9.98734 2 11.4406 2 13C2 14.5594 2.24726 16.0127 3.54376 16.9387C3.71567 17.0615 3.89978 17.1702 4.09543 17.2663C4.17483 18.0257 4.28832 18.7942 4.37411 19.3342C4.52888 20.3083 5.37102 21 6.33458 21H7.27924C8.13001 21 8.94425 20.4478 9.16473 19.5432C9.26211 19.1437 9.37489 18.6005 9.44169 18L14.5583 18C14.6251 18.6005 14.7379 19.1437 14.8353 19.5432C15.0557 20.4478 15.87 21 16.7208 21H17.6654C18.629 21 19.4711 20.3083 19.6259 19.3342C19.7117 18.7942 19.8252 18.0257 19.9046 17.2663C20.1002 17.1702 20.2843 17.0615 20.4562 16.9387C21.7527 16.0127 22 14.5594 22 13C22 11.4406 21.7527 9.98734 20.4562 9.06127C20.1699 8.85675 19.8498 8.69149 19.4988 8.55774L18.4961 4.91637C18.0682 3.36248 16.7302 2.18296 15.062 2.08665C14.2372 2.03904 13.1963 2 12 2C10.8036 2 9.76281 2.03904 8.93802 2.08665C7.26982 2.18296 5.9318 3.36248 5.50391 4.91637ZM12 4C10.8467 4 9.84461 4.03764 9.05329 4.08333C8.29954 4.12684 7.64832 4.66229 7.43215 5.44733L6.7032 8.09456C7.37861 8.02859 8.14185 8 9 8H15C15.8581 8 16.6214 8.02859 17.2968 8.09456L16.5678 5.44734C16.3517 4.66229 15.7004 4.12684 14.9467 4.08333C14.1554 4.03764 13.1533 4 12 4ZM7.5 14.5C8.32843 14.5 9 13.8284 9 13C9 12.1716 8.32843 11.5 7.5 11.5C6.67157 11.5 6 12.1716 6 13C6 13.8284 6.67157 14.5 7.5 14.5ZM16.5 14.5C17.3284 14.5 18 13.8284 18 13C18 12.1716 17.3284 11.5 16.5 11.5C15.6716 11.5 15 12.1716 15 13C15 13.8284 15.6716 14.5 16.5 14.5Z" fill="black"/>
</svg>
