<svg width="24" height="24" viewBox="0 0 24 24" fill="none" xmlns="http://www.w3.org/2000/svg">
<path d="M2 3C1.44772 3 1 3.44772 1 4C1 4.55228 1.44772 5 2 5C2.6631 5 3.22848 5.48056 3.33533 6.135L4.71084 14.56C4.95566 16.0595 6.06041 17.3628 7.67164 17.6256C8.8391 17.816 10.4878 18 12.5 18C14.7923 18 16.323 17.7611 17.2595 17.5345C18.2712 17.2896 18.9644 16.5518 19.3459 15.7569L21.6609 10.9341C21.8841 10.469 22 9.95974 22 9.44385C22 7.54186 20.4581 6 18.5561 6H5.33977L5.3092 5.81273C5.04441 4.19092 3.64328 3 2 3Z" fill="black"/>
<path d="M9 20.5C9 21.3284 8.32843 22 7.5 22C6.67157 22 6 21.3284 6 20.5C6 19.6716 6.67157 19 7.5 19C8.32843 19 9 19.6716 9 20.5Z" fill="black"/>
<path d="M16.5 22C17.3284 22 18 21.3284 18 20.5C18 19.6716 17.3284 19 16.5 19C15.6716 19 15 19.6716 15 20.5C15 21.3284 15.6716 22 16.5 22Z" fill="black"/>
</svg>
