<svg width="24" height="24" viewBox="0 0 24 24" fill="none" xmlns="http://www.w3.org/2000/svg">
<path d="M16.645 3.53197C18.1542 2.5887 20.131 2.92823 21.239 4.32103C22.347 5.71383 22.2333 7.71636 20.9748 8.97484C18.9225 11.0272 16.9262 13.6 15.4106 15.7219C14.6616 16.7706 14.0477 17.6841 13.623 18.3323C13.4056 18.6642 13.1895 18.9972 12.9808 19.3347C12.4196 20.2464 11.4718 20.8516 10.4082 20.9765C9.34456 21.1013 8.28232 20.7324 7.52509 19.9751L3.02509 15.4749C1.75275 14.2025 1.65254 12.1726 2.79337 10.7811C3.93419 9.38954 5.94428 9.08977 7.44149 10.0879L9.0948 11.1901L9.09768 11.1901C9.10016 11.1896 9.10253 11.1887 9.10441 11.1876C9.10441 11.1876 9.10771 11.1853 9.11027 11.1819C9.38614 10.8131 9.68427 10.4232 10.0008 10.0215C11.6454 7.93407 14.0882 5.12997 16.645 3.53197Z" fill="black"/>
</svg>
