<svg width="24" height="24" viewBox="0 0 24 24" fill="none" xmlns="http://www.w3.org/2000/svg">
<path d="M22 14.8222C22 14.3751 21.8392 13.9356 21.5331 13.5927C21.0489 13.0502 19.8094 11.6945 18.249 10.2399C16.7015 8.79718 14.7812 7.20251 12.9379 6.2293C12.6376 6.07076 12.3142 6 12 6C11.6858 6 11.3624 6.07076 11.0621 6.2293C9.21883 7.20251 7.29845 8.79718 5.75098 10.2399C4.19064 11.6945 2.95113 13.0502 2.46693 13.5927C2.16084 13.9356 2 14.3751 2 14.8222C2 16.0853 3.20484 16.9499 4.37065 16.6687C5.85831 16.3097 8.7097 15.75 12 15.75C15.2903 15.75 18.1417 16.3097 19.6293 16.6687C20.7952 16.9499 22 16.0853 22 14.8222Z" fill="black"/>
</svg>
