<svg width="24" height="24" viewBox="0 0 24 24" fill="none" xmlns="http://www.w3.org/2000/svg">
<path d="M22 9.17783C22 9.62491 21.8392 10.0644 21.5331 10.4073C21.0489 10.9498 19.8094 12.3055 18.249 13.7601C16.7015 15.2028 14.7812 16.7975 12.9379 17.7707C12.6376 17.9292 12.3142 18 12 18C11.6858 18 11.3624 17.9292 11.0621 17.7707C9.21883 16.7975 7.29845 15.2028 5.75098 13.7601C4.19064 12.3055 2.95113 10.9498 2.46693 10.4073C2.16084 10.0644 2 9.62491 2 9.17783C2 7.91473 3.20484 7.05006 4.37065 7.33133C5.85831 7.69025 8.7097 8.25 12 8.25C15.2903 8.25 18.1417 7.69025 19.6293 7.33133C20.7952 7.05005 22 7.91473 22 9.17783Z" fill="black"/>
</svg>
