<svg width="24" height="24" viewBox="0 0 24 24" fill="none" xmlns="http://www.w3.org/2000/svg">
<path fill-rule="evenodd" clip-rule="evenodd" d="M4.73039 4.73039C6.5129 2.94789 9.03453 2 12 2C14.9655 2 17.4871 2.94789 19.2696 4.73039C21.0521 6.5129 22 9.03453 22 12C22 14.9655 21.0521 17.4871 19.2696 19.2696C17.4871 21.0521 14.9655 22 12 22C9.03453 22 6.5129 21.0521 4.73039 19.2696C2.94789 17.4871 2 14.9655 2 12C2 9.03453 2.94789 6.5129 4.73039 4.73039ZM13 7C13 6.44772 12.5523 6 12 6C11.4477 6 11 6.44772 11 7V11.1716C11 11.9672 11.3161 12.7303 11.8787 13.2929L14.2929 15.7071C14.6834 16.0976 15.3166 16.0976 15.7071 15.7071C16.0976 15.3166 16.0976 14.6834 15.7071 14.2929L13.2929 11.8787C13.1054 11.6911 13 11.4368 13 11.1716V7Z" fill="black"/>
</svg>
