<svg width="24" height="24" viewBox="0 0 24 24" fill="none" xmlns="http://www.w3.org/2000/svg">
<path d="M14.9762 3.21702C15.096 2.67789 14.7561 2.14371 14.2169 2.02391C13.6778 1.9041 13.1436 2.24403 13.0238 2.78316L9.02381 20.7832C8.904 21.3223 9.24393 21.8565 9.78306 21.9763C10.3222 22.0961 10.8564 21.7562 10.9762 21.217L14.9762 3.21702Z" fill="black"/>
<path d="M5.28551 7.49797C5.81101 6.94735 6.27511 6.51411 6.60552 6.22041C6.77292 6.0716 6.94196 5.92407 7.11737 5.78472C7.55108 5.44339 7.62663 4.81487 7.28558 4.38081C6.94437 3.94653 6.31491 3.87173 5.88064 4.21294C5.67384 4.37627 5.47365 4.5506 5.27677 4.72561C4.91224 5.04964 4.40775 5.52087 3.83868 6.11714C2.70549 7.30449 1.29192 9.01286 0.225659 11.0644C0.0723306 11.3595 -0.000738621 11.6814 -0.000738621 11.9986C-0.000738621 12.3156 0.0720558 12.6373 0.225509 12.9325C1.57371 15.5267 3.48031 17.5773 4.68227 18.7237C5.08193 19.1049 5.71491 19.0899 6.09609 18.6903C6.47727 18.2906 6.46229 17.6576 6.06263 17.2765C4.93856 16.2044 3.20572 14.3296 2.00067 12.0112C2.00067 12.0112 1.99926 12.006 1.99926 11.9986C1.99926 11.991 2.00077 11.9859 2.00077 11.9859C2.95039 10.159 4.22972 8.60421 5.28551 7.49797Z" fill="black"/>
<path d="M17.9381 6.72367C17.5385 6.34244 17.5236 5.70945 17.9048 5.30984C18.2861 4.91024 18.919 4.89535 19.3186 5.27658C20.5207 6.42338 22.4257 8.47301 23.773 11.0655C23.9265 11.3608 23.9993 11.6825 23.9993 11.9994C23.9993 12.3166 23.9262 12.6386 23.7729 12.9336C22.7066 14.9852 21.293 16.6935 20.1598 17.8809C19.5908 18.4772 19.0863 18.9484 18.7217 19.2724C18.5249 19.4474 18.3258 19.6209 18.119 19.7842C17.6847 20.1254 17.0542 20.0515 16.7129 19.6172C16.3718 19.183 16.4474 18.5543 16.8814 18.2131C17.0567 18.0737 17.2257 17.9263 17.393 17.7776C17.7234 17.4839 18.1875 17.0507 18.713 16.5001C19.7688 15.3938 21.0481 13.839 21.9978 12.0122L21.9982 12.0107C21.9986 12.0087 21.9993 12.005 21.9993 11.9994C21.9993 11.9875 21.9965 11.9843 21.9984 11.9878C20.7941 9.67055 19.0624 7.7963 17.9381 6.72367Z" fill="black"/>
</svg>
