<svg width="24" height="24" viewBox="0 0 24 24" fill="none" xmlns="http://www.w3.org/2000/svg">
<path d="M1.83456 9.83456C2.40179 9.26733 3.17342 9 4 9C4.82658 9 5.59821 9.26733 6.16544 9.83456C6.73267 10.4018 7 11.1734 7 12C7 12.8266 6.73267 13.5982 6.16544 14.1654C5.59821 14.7327 4.82658 15 4 15C3.17342 15 2.40179 14.7327 1.83456 14.1654C1.26733 13.5982 1 12.8266 1 12C1 11.1734 1.26733 10.4018 1.83456 9.83456Z" fill="black"/>
<path d="M12 9C11.1734 9 10.4018 9.26733 9.83456 9.83456C9.26733 10.4018 9 11.1734 9 12C9 12.8266 9.26733 13.5982 9.83456 14.1654C10.4018 14.7327 11.1734 15 12 15C12.8266 15 13.5982 14.7327 14.1654 14.1654C14.7327 13.5982 15 12.8266 15 12C15 11.1734 14.7327 10.4018 14.1654 9.83456C13.5982 9.26733 12.8266 9 12 9Z" fill="black"/>
<path d="M17.8346 9.83456C18.4018 9.26733 19.1734 9 20 9C20.8266 9 21.5982 9.26733 22.1654 9.83456C22.7327 10.4018 23 11.1734 23 12C23 12.8266 22.7327 13.5982 22.1654 14.1654C21.5982 14.7327 20.8266 15 20 15C19.1734 15 18.4018 14.7327 17.8346 14.1654C17.2673 13.5982 17 12.8266 17 12C17 11.1734 17.2673 10.4018 17.8346 9.83456Z" fill="black"/>
</svg>
