<svg width="24" height="24" viewBox="0 0 24 24" fill="none" xmlns="http://www.w3.org/2000/svg">
<path d="M16.7292 13.1679C17.1888 13.4742 17.313 14.0951 17.0067 14.5546C15.943 16.1505 14.1449 17 12 17C11.1634 17 10.3772 16.8719 9.66239 16.6155C9.14253 16.4291 8.87226 15.8565 9.05871 15.3366C9.24517 14.8168 9.81775 14.5465 10.3376 14.733C10.8121 14.9032 11.367 15 12 15C13.6012 15 14.7141 14.3882 15.3425 13.4454C15.6488 12.9858 16.2697 12.8616 16.7292 13.1679Z" fill="black"/>
<path d="M9 9C9 8.44772 8.55228 8 8 8C7.44772 8 7 8.44772 7 9V11C7 11.5523 7.44772 12 8 12C8.55228 12 9 11.5523 9 11V9Z" fill="black"/>
<path d="M14 9C14 8.44772 13.5523 8 13 8C12.4477 8 12 8.44772 12 9V11C12 11.5523 12.4477 12 13 12C13.5523 12 14 11.5523 14 11V9Z" fill="black"/>
<path fill-rule="evenodd" clip-rule="evenodd" d="M4.73039 4.73039C6.5129 2.94789 9.03453 2 12 2C14.9655 2 17.4871 2.94789 19.2696 4.73039C21.0521 6.5129 22 9.03453 22 12C22 14.9655 21.0521 17.4871 19.2696 19.2696C17.4871 21.0521 14.9655 22 12 22C9.03453 22 6.5129 21.0521 4.73039 19.2696C2.94789 17.4871 2 14.9655 2 12C2 9.03453 2.94789 6.5129 4.73039 4.73039ZM6.14461 6.14461C4.80211 7.4871 4 9.46547 4 12C4 14.5345 4.80211 16.5129 6.14461 17.8554C7.4871 19.1979 9.46547 20 12 20C14.5345 20 16.5129 19.1979 17.8554 17.8554C19.1979 16.5129 20 14.5345 20 12C20 9.46547 19.1979 7.4871 17.8554 6.14461C16.5129 4.80211 14.5345 4 12 4C9.46547 4 7.4871 4.80211 6.14461 6.14461Z" fill="black"/>
</svg>
