<svg width="24" height="24" viewBox="0 0 24 24" fill="none" xmlns="http://www.w3.org/2000/svg">
<path d="M22 8.57656C22 7.87666 21.6427 7.2197 21.0389 6.84561C19.7546 6.04983 16.1425 3.84697 12.924 2.21959C12.6347 2.07333 12.3182 2 12 2C11.6818 2 11.3653 2.07333 11.0761 2.21959C7.8576 3.84697 4.24549 6.04983 2.96112 6.84561C2.35736 7.2197 2.00003 7.87666 2.00003 8.57656C2.00003 9.60497 2.76834 10.4901 3.8173 10.5949C5.29797 10.7428 8.39033 11 12 11C15.6097 11 18.7021 10.7428 20.1828 10.5949C21.2317 10.4901 22 9.60497 22 8.57656Z" fill="black"/>
<path d="M5.00003 18.8456C4.51413 18.8252 4.1041 18.806 3.78784 18.7903C3.54477 18.7782 3.30172 18.7657 3.05875 18.7517C2.50743 18.7193 2.03419 19.14 2.00176 19.6913C1.96932 20.2426 2.38998 20.7158 2.94131 20.7483C3.19006 20.7626 3.43993 20.7755 3.68879 20.7878C4.16484 20.8114 4.8485 20.8429 5.68107 20.8743C7.34539 20.9371 9.60865 21 12 21C14.3914 21 16.6547 20.9371 18.319 20.8743C19.1516 20.8429 19.8352 20.8114 20.3113 20.7878C20.5605 20.7755 20.8097 20.7626 21.0588 20.7483C21.6101 20.7158 22.0307 20.2426 21.9983 19.6913C21.9659 19.14 21.4921 18.7193 20.9408 18.7518C20.698 18.7657 20.4551 18.7782 20.2122 18.7903C19.896 18.806 19.4859 18.8252 19 18.8456V13.75C19 13.1977 18.5523 12.75 18 12.75C17.4477 12.75 17 13.1977 17 13.75V18.9184C16.3793 18.9377 15.7071 18.9553 15 18.9693V14C15 13.4477 14.5523 13 14 13C13.4477 13 13 13.4477 13 14V18.9964C12.6701 18.9987 12.3363 19 12 19C11.6638 19 11.33 18.9987 11 18.9964V14C11 13.4477 10.5523 13 10 13C9.44775 13 9.00003 13.4477 9.00003 14V18.9693C8.29291 18.9553 7.6208 18.9377 7.00003 18.9184V13.75C7.00003 13.1977 6.55232 12.75 6.00003 12.75C5.44775 12.75 5.00003 13.1977 5.00003 13.75V18.8456Z" fill="black"/>
</svg>
