<svg width="24" height="24" viewBox="0 0 24 24" fill="none" xmlns="http://www.w3.org/2000/svg">
<path fill-rule="evenodd" clip-rule="evenodd" d="M9 2C6.9512 2 5.17957 2.65622 3.91789 3.91789C2.65622 5.17957 2 6.9512 2 9C2 11.0488 2.65622 12.8204 3.91789 14.0821C5.17957 15.3438 6.9512 16 9 16C11.0488 16 12.8204 15.3438 14.0821 14.0821C15.3438 12.8204 16 11.0488 16 9C16 6.9512 15.3438 5.17957 14.0821 3.91789C12.8204 2.65622 11.0488 2 9 2ZM8 9C8 8.60436 8.12156 8.37599 8.24877 8.24877C8.37599 8.12156 8.60436 8 9 8C9.55228 8 10 7.55228 10 7C10 6.44772 9.55228 6 9 6C8.17342 6 7.40179 6.26733 6.83456 6.83456C6.26733 7.40179 6 8.17342 6 9C6 9.55228 6.44772 10 7 10C7.55228 10 8 9.55228 8 9Z" fill="black"/>
<path d="M17.214 13.7094C17.4738 13.6533 17.7452 13.7029 17.9684 13.8473L20.36 15.3948C21.3826 16.0565 22 17.1914 22 18.4094C22 20.3924 20.3924 22 18.4094 22C17.1914 22 16.0565 21.3826 15.3948 20.36L13.8473 17.9684C13.7029 17.7452 13.6533 17.4738 13.7094 17.214C13.7655 16.9542 13.9228 16.7274 14.1464 16.5838C14.6269 16.2751 15.0791 15.9136 15.4963 15.4963C15.9136 15.0791 16.2751 14.6269 16.5838 14.1464C16.7274 13.9228 16.9542 13.7655 17.214 13.7094Z" fill="black"/>
</svg>
