<svg width="24" height="24" viewBox="0 0 24 24" fill="none" xmlns="http://www.w3.org/2000/svg">
<path fill-rule="evenodd" clip-rule="evenodd" d="M12 2C10.5623 2 9.29068 2.46177 8.37623 3.37623C7.46177 4.29068 7 5.56231 7 7V10C7 11.4377 7.46177 12.7093 8.37623 13.6238C9.29068 14.5382 10.5623 15 12 15C13.4377 15 14.7093 14.5382 15.6238 13.6238C16.5382 12.7093 17 11.4377 17 10V7C17 5.56231 16.5382 4.29068 15.6238 3.37623C14.7093 2.46177 13.4377 2 12 2ZM9 7C9 5.99324 9.316 5.26488 9.79044 4.79044C10.2649 4.316 10.9932 4 12 4C13.0068 4 13.7351 4.316 14.2096 4.79044C14.684 5.26488 15 5.99324 15 7V10C15 11.0068 14.684 11.7351 14.2096 12.2096C13.7351 12.684 13.0068 13 12 13C10.9932 13 10.2649 12.684 9.79044 12.2096C9.316 11.7351 9 11.0068 9 10V7Z" fill="black"/>
<path d="M5 10C5 9.44772 4.55228 9 4 9C3.44772 9 3 9.44772 3 10C3 12.6599 3.85066 14.9315 5.45956 16.5404C6.86288 17.9438 8.7704 18.7702 11 18.9585V21C11 21.5523 11.4477 22 12 22C12.5523 22 13 21.5523 13 21V18.9585C15.2296 18.7702 17.1371 17.9438 18.5404 16.5404C20.1493 14.9315 21 12.6599 21 10C21 9.44772 20.5523 9 20 9C19.4477 9 19 9.44772 19 10C19 12.229 18.2951 13.9573 17.1262 15.1262C15.9573 16.2951 14.229 17 12 17C9.77102 17 8.04265 16.2951 6.87377 15.1262C5.70489 13.9573 5 12.229 5 10Z" fill="black"/>
</svg>
