<svg width="24" height="24" viewBox="0 0 24 24" fill="none" xmlns="http://www.w3.org/2000/svg">
<path d="M5.71489 20.9046C5.49436 20.9713 5.27711 21 5.06118 21C3.78475 21 2.75 19.9653 2.75 18.6888C2.75 18.0674 2.89361 17.4827 3.27822 16.9807C3.67838 16.4584 4.38337 15.4995 4.98361 14.4866C5.1411 14.2209 5.32371 13.9248 5.49034 13.6133C5.68354 13.2521 6.04873 13 6.45839 13H12C12.5523 13 13 12.5523 13 12C13 11.4477 12.5523 11 12 11H6.45838C6.04873 11 5.68354 10.7479 5.49034 10.3867C5.32371 10.0752 5.1411 9.7791 4.98361 9.51336C4.38337 8.50054 3.67838 7.5416 3.27822 7.0193C2.89361 6.5173 2.75 5.9326 2.75 5.31118C2.75 4.03475 3.78475 3 5.06118 3C5.27711 3 5.49436 3.02867 5.71489 3.09536C6.47003 3.32371 9.49966 4.26129 12.7577 5.56903C14.3863 6.22273 16.0875 6.9751 17.597 7.78439C19.09 8.58482 20.466 9.47761 21.3882 10.4311C21.8257 10.8833 22 11.4669 22 12C22 12.5331 21.8257 13.1167 21.3882 13.5689C20.466 14.5224 19.09 15.4152 17.597 16.2156C16.0875 17.0249 14.3863 17.7773 12.7577 18.431C9.49966 19.7387 6.47003 20.6763 5.71489 20.9046Z" fill="black"/>
</svg>
