<svg width="24" height="24" viewBox="0 0 24 24" fill="none" xmlns="http://www.w3.org/2000/svg">
<path d="M4 3C2.89543 3 2 3.89543 2 5V7.27924C2 8.1401 2.55086 8.90438 3.36754 9.17661L5 9.72076V14.8571C5 15.9484 5.05323 16.8907 5.22337 17.6796C5.39594 18.4797 5.70267 19.1883 6.25718 19.7428C6.81168 20.2973 7.5203 20.6041 8.32041 20.7766C9.10927 20.9468 10.0516 21 11.1429 21H12.8571C13.9484 21 14.8907 20.9468 15.6796 20.7766C16.4797 20.6041 17.1883 20.2973 17.7428 19.7428C18.2973 19.1883 18.6041 18.4797 18.7766 17.6796C18.9468 16.8907 19 15.9484 19 14.8571V9.72076L20.6325 9.17661C21.4491 8.90438 22 8.1401 22 7.27924V5C22 3.89543 21.1046 3 20 3H15.474C14.9628 3 14.534 3.38547 14.4796 3.89371C14.404 4.60113 14.1274 5.10622 13.7451 5.43804C13.3597 5.7725 12.7867 6 12 6C11.2133 6 10.6403 5.7725 10.2549 5.43804C9.87257 5.10622 9.59599 4.60113 9.52037 3.89371C9.46605 3.38547 9.03718 3 8.52604 3H4Z" fill="black"/>
</svg>
