<svg width="24" height="24" viewBox="0 0 24 24" fill="none" xmlns="http://www.w3.org/2000/svg">
<path d="M20 16C20 15.4477 19.5523 15 19 15C18.4477 15 18 15.4477 18 16C18 17.1912 17.4867 18.1437 16.5229 18.8321C15.5276 19.543 14.0024 20 12 20C8.92544 20 7.04786 18.9416 6.34969 17.5513C6.10186 17.0577 5.50084 16.8585 5.00729 17.1063C4.51373 17.3542 4.31454 17.9552 4.56237 18.4487C5.75053 20.8149 8.57638 22 12 22C14.2754 22 16.2501 21.4848 17.6854 20.4596C19.1522 19.4118 20 17.8643 20 16Z" fill="black"/>
<path d="M7.47706 5.1679C6.51332 5.85629 5.99999 6.80877 5.99999 8C5.99999 8.61129 6.13445 9.05301 6.34153 9.38624C6.54926 9.7205 6.87093 10.0113 7.34914 10.2545C8.34467 10.7608 9.89534 11 12 11C14.7211 11 17.1973 10.8763 18.9937 10.7524C19.8914 10.6905 20.618 10.6286 21.119 10.5824C21.3753 10.5587 21.6338 10.5341 21.8896 10.5061C22.4385 10.4452 22.9329 10.8407 22.9939 11.3896C23.0549 11.9385 22.6591 12.4329 22.1102 12.4939C21.8414 12.5234 21.5721 12.549 21.3028 12.5739C20.7883 12.6214 20.0461 12.6845 19.1313 12.7476C17.3027 12.8737 14.7789 13 12 13C9.22112 13 6.69731 12.8737 4.86869 12.7476C3.95386 12.6845 3.21173 12.6214 2.69714 12.5739C2.42779 12.549 2.15845 12.5234 1.88956 12.4939C1.34065 12.4329 0.945119 11.9385 1.00611 11.3896C1.0671 10.8407 1.56185 10.4452 2.11072 10.5061C2.36719 10.5343 2.62407 10.5586 2.88097 10.5824C3.35232 10.6259 4.02331 10.6832 4.84854 10.7414C4.77599 10.6455 4.70733 10.5457 4.64283 10.4419C4.20581 9.73866 3.99999 8.91649 3.99999 8C3.99999 6.13568 4.84777 4.58816 6.31459 3.54043C7.74987 2.51524 9.72461 2 12 2C15.4236 2 18.2495 3.18506 19.4376 5.55126C19.6855 6.04481 19.4863 6.64583 18.9927 6.89366C18.4991 7.14149 17.8981 6.9423 17.6503 6.44874C16.9521 5.05836 15.0745 4 12 4C9.9976 4 8.47234 4.45699 7.47706 5.1679Z" fill="black"/>
</svg>
