<svg width="24" height="24" viewBox="0 0 24 24" fill="none" xmlns="http://www.w3.org/2000/svg">
<path d="M9.99996 18C9.44767 18 8.99996 18.4477 8.99996 19C8.99996 19.5523 9.44767 20 9.99996 20H21C21.5522 20 22 19.5523 22 19C22 18.4477 21.5522 18 21 18H9.99996Z" fill="black"/>
<path d="M2.21368 4.38222C1.87264 4.81628 1.94788 5.44457 2.38159 5.7859C2.55714 5.92528 2.72625 6.07294 2.89374 6.22182C3.22415 6.51553 3.68825 6.94876 4.21376 7.49938C5.26955 8.60563 6.54887 10.1604 7.4985 11.9873V12.0128C6.54887 13.8397 5.26955 15.3945 4.21376 16.5007C3.68825 17.0513 3.22415 17.4846 2.89374 17.7783C2.72635 17.9271 2.55731 18.0746 2.38189 18.214C1.94787 18.5552 1.87254 19.1837 2.21368 19.6179C2.55489 20.0521 3.1886 20.1236 3.62288 19.7824C3.82822 19.6193 4.02656 19.4472 4.22249 19.2731C4.58702 18.949 5.09151 18.4778 5.66058 17.8815C6.79378 16.6942 8.20734 14.9858 9.2736 12.9342C9.42693 12.6392 9.5 12.3173 9.5 12C9.5 11.6828 9.42693 11.3609 9.2736 11.0659C8.20734 9.01427 6.79378 7.3059 5.66058 6.11855C5.09151 5.52228 4.58702 5.05106 4.22249 4.72702C4.02516 4.55161 3.82526 4.37718 3.61782 4.21372C3.18355 3.87251 2.5549 3.94795 2.21368 4.38222Z" fill="black"/>
</svg>
