<svg width="24" height="24" viewBox="0 0 24 24" fill="none" xmlns="http://www.w3.org/2000/svg">
<path d="M12 2C10.5623 2 9.29068 2.46177 8.37622 3.37623C7.46177 4.29068 7 5.56231 7 7C7 8.43769 7.46177 9.70932 8.37622 10.6238C9.29068 11.5382 10.5623 12 12 12C13.4377 12 14.7093 11.5382 15.6238 10.6238C16.5382 9.70932 17 8.43769 17 7C17 5.56231 16.5382 4.29068 15.6238 3.37623C14.7093 2.46177 13.4377 2 12 2Z" fill="black"/>
<path d="M11 14C9.80435 14 8.77971 14.0553 7.91871 14.2145C7.05515 14.3741 6.29357 14.649 5.67492 15.1333C4.39576 16.1345 4.07526 17.743 4.01225 19.6864C3.98154 20.6334 4.64517 21.4821 5.61891 21.6282C6.6602 21.7845 8.69532 22 12 22C15.3047 22 17.3398 21.7845 18.3811 21.6282C19.3548 21.4821 20.0185 20.6334 19.9878 19.6864C19.9247 17.743 19.6042 16.1345 18.3251 15.1333C17.7064 14.649 16.9448 14.3741 16.0813 14.2145C15.2203 14.0553 14.1956 14 13 14H11Z" fill="black"/>
</svg>
