<svg width="20" height="20" viewBox="0 0 20 20" fill="none" xmlns="http://www.w3.org/2000/svg">
<path fill-rule="evenodd" clip-rule="evenodd" d="M10 4C6.68629 4 4 6.68629 4 10C4 13.3137 6.68629 16 10 16H11V18H10C5.58172 18 2 14.4183 2 10C2 5.58172 5.58172 2 10 2C14.4183 2 18 5.58172 18 10V11C18 12.6569 16.6569 14 15 14C14.0831 14 13.2622 13.5886 12.7119 12.9404C11.9991 13.5982 11.0465 14 10 14C7.79086 14 6 12.2091 6 10C6 7.79086 7.79086 6 10 6C12.2091 6 14 7.79086 14 10V11C14 11.5523 14.4477 12 15 12C15.5523 12 16 11.5523 16 11V10C16 6.68629 13.3137 4 10 4ZM12 10C12 8.89543 11.1046 8 10 8C8.89543 8 8 8.89543 8 10C8 11.1046 8.89543 12 10 12C11.1046 12 12 11.1046 12 10Z" fill="black"/>
</svg>
