<svg width="20" height="20" viewBox="0 0 20 20" fill="none" xmlns="http://www.w3.org/2000/svg">
<path fill-rule="evenodd" clip-rule="evenodd" d="M2 3H1V14C1 15.1148 1.89796 15.9767 2.96054 16.0185C5.54494 16.1201 7.86551 16.6491 9.4 17.8L10 18.25L10.6 17.8C12.1345 16.6491 14.4551 16.1201 17.0395 16.0185C18.102 15.9767 19 15.1148 19 14V3H18C15.2021 3 12.223 3.41822 10 4.79152C7.77701 3.41822 4.79786 3 2 3ZM3 14V5.02009C5.40427 5.11886 7.59606 5.58961 9.125 6.60587V15.3165C7.31701 14.4565 5.1516 14.1031 3.03909 14.02C3.02353 14.0194 3.01174 14.0133 3.00412 14.0056C3.00172 14.0031 3.00051 14.0009 3 14ZM10.875 15.3165C12.683 14.4565 14.8484 14.1031 16.9609 14.02C16.9765 14.0194 16.9883 14.0133 16.9959 14.0056C16.9983 14.0031 16.9995 14.0013 17 14.0004L17 5.02009C14.5957 5.11886 12.4039 5.58961 10.875 6.60587V15.3165Z" fill="black"/>
</svg>
