<svg width="20" height="20" viewBox="0 0 20 20" fill="none" xmlns="http://www.w3.org/2000/svg">
<path fill-rule="evenodd" clip-rule="evenodd" d="M18 10C18 5.58172 14.4183 2 10 2C5.58172 2 2 5.58172 2 10C2 14.4183 5.58172 18 10 18C14.4183 18 18 14.4183 18 10ZM10 16C10.1651 16 10.3286 15.9933 10.4904 15.9803C10.707 15.7839 10.9765 15.4475 11.2632 14.8742C11.7553 13.89 12.1243 12.4978 12.2235 10.875H7.77653C7.87575 12.4978 8.24471 13.89 8.73682 14.8742C9.02347 15.4475 9.29296 15.7839 9.50964 15.9803C9.67136 15.9933 9.8349 16 10 16ZM7.77653 9.125C7.87575 7.50223 8.24471 6.10999 8.73682 5.12577C9.02347 4.55247 9.29296 4.21612 9.50963 4.01975C9.67136 4.00667 9.8349 4 10 4C10.1651 4 10.3286 4.00667 10.4904 4.01975C10.707 4.21612 10.9765 4.55247 11.2632 5.12577C11.7553 6.10999 12.1243 7.50223 12.2235 9.125H7.77653ZM13.9763 10.875C13.8879 12.5011 13.5558 13.9809 13.0546 15.1653C14.5794 14.2617 15.6697 12.702 15.9367 10.875H13.9763ZM15.9367 9.125H13.9763C13.8879 7.49887 13.5558 6.01906 13.0546 4.83465C14.5794 5.73834 15.6697 7.29804 15.9367 9.125ZM6.02365 9.125H4.06334C4.33029 7.29804 5.42056 5.73834 6.94542 4.83465C6.4442 6.01906 6.1121 7.49887 6.02365 9.125ZM4.06334 10.875H6.02365C6.1121 12.5011 6.4442 13.9809 6.94542 15.1653C5.42056 14.2617 4.33029 12.702 4.06334 10.875Z" fill="black"/>
</svg>
