<svg width="20" height="20" viewBox="0 0 20 20" fill="none" xmlns="http://www.w3.org/2000/svg">
<path d="M10 9.25C10.6904 9.25 11.25 8.69036 11.25 8C11.25 7.30964 10.6904 6.75 10 6.75C9.30964 6.75 8.75 7.30964 8.75 8C8.75 8.69036 9.30964 9.25 10 9.25Z" fill="black"/>
<path fill-rule="evenodd" clip-rule="evenodd" d="M14.8 11.6L10 18L5.2 11.6C4.42107 10.5614 4 9.29822 4 8C4 4.68629 6.68629 2 10 2C13.3137 2 16 4.68629 16 8C16 9.29822 15.5789 10.5614 14.8 11.6ZM13.2 10.4L10 14.6667L6.8 10.4C6.28071 9.70761 6 8.86548 6 8C6 5.79086 7.79086 4 10 4C12.2091 4 14 5.79086 14 8C14 8.86548 13.7193 9.70761 13.2 10.4Z" fill="black"/>
</svg>
