<svg width="20" height="20" viewBox="0 0 20 20" fill="none" xmlns="http://www.w3.org/2000/svg">
<path fill-rule="evenodd" clip-rule="evenodd" d="M10 2C8.34315 2 7 3.34315 7 5V9C7 10.6569 8.34315 12 10 12C11.6569 12 13 10.6569 13 9V5C13 3.34315 11.6569 2 10 2ZM11 9V5C11 4.44772 10.5523 4 10 4C9.44772 4 9 4.44772 9 5V9C9 9.55228 9.44772 10 10 10C10.5523 10 11 9.55228 11 9Z" fill="black"/>
<path d="M5 8V9C5 11.7614 7.23858 14 10 14C12.7614 14 15 11.7614 15 9V8H17V9C17 12.5265 14.3923 15.4439 11 15.9291V18H9V15.9291C5.60771 15.4439 3 12.5265 3 9V8H5Z" fill="black"/>
</svg>
