<svg width="20" height="20" viewBox="0 0 20 20" fill="none" xmlns="http://www.w3.org/2000/svg">
<path d="M4.125 1.67157V1H5.875V1.67157C5.875 1.96994 5.99353 2.25609 6.2045 2.46707L7.03293 3.2955C7.5721 3.83466 7.875 4.56593 7.875 5.32843V6H6.125V5.32843C6.125 5.03006 6.00647 4.74391 5.7955 4.53293L4.96707 3.7045C4.4279 3.16534 4.125 2.43407 4.125 1.67157Z" fill="black"/>
<path fill-rule="evenodd" clip-rule="evenodd" d="M3 8V14C3 16.2091 4.79086 18 7 18H11C12.8638 18 14.4299 16.7252 14.874 15H15.5C17.433 15 19 13.433 19 11.5C19 9.567 17.433 8 15.5 8H3ZM15 10V13H15.5C16.3284 13 17 12.3284 17 11.5C17 10.6716 16.3284 10 15.5 10H15ZM5 14V10H13V14C13 15.1046 12.1046 16 11 16H7C5.89543 16 5 15.1046 5 14Z" fill="black"/>
<path d="M8.125 1V1.67157C8.125 2.43407 8.4279 3.16534 8.96707 3.7045L9.7955 4.53293C10.0065 4.74391 10.125 5.03006 10.125 5.32843V6H11.875V5.32843C11.875 4.56593 11.5721 3.83466 11.0329 3.2955L10.2045 2.46707C9.99353 2.25609 9.875 1.96994 9.875 1.67157V1H8.125Z" fill="black"/>
</svg>
