<svg width="20" height="20" viewBox="0 0 20 20" fill="none" xmlns="http://www.w3.org/2000/svg">
<path d="M10 8.25C10.6904 8.25 11.25 7.69036 11.25 7C11.25 6.30964 10.6904 5.75 10 5.75C9.30964 5.75 8.75 6.30964 8.75 7C8.75 7.69036 9.30964 8.25 10 8.25Z" fill="black"/>
<path d="M14.25 9C14.25 9.69036 13.6904 10.25 13 10.25C12.3096 10.25 11.75 9.69036 11.75 9C11.75 8.30964 12.3096 7.75 13 7.75C13.6904 7.75 14.25 8.30964 14.25 9Z" fill="black"/>
<path d="M7 10.5C7.69036 10.5 8.25 9.94036 8.25 9.25C8.25 8.55964 7.69036 8 7 8C6.30964 8 5.75 8.55964 5.75 9.25C5.75 9.94036 6.30964 10.5 7 10.5Z" fill="black"/>
<path fill-rule="evenodd" clip-rule="evenodd" d="M10 2C5.58172 2 2 5.58172 2 10C2 14.0323 4.9823 17.3663 8.8618 17.9195C10.107 18.0971 11 17.0595 11 16V15C11 14.4477 11.4477 14 12 14H16.9584L17.2296 13.4291C17.7239 12.3886 18 11.2251 18 10C18 5.58172 14.4183 2 10 2ZM4 10C4 6.68629 6.68629 4 10 4C13.3137 4 16 6.68629 16 10C16 10.7025 15.8797 11.3753 15.6589 12H12C10.3431 12 9 13.3431 9 15V15.9172C6.16259 15.4417 4 12.9726 4 10Z" fill="black"/>
</svg>
