<svg width="20" height="20" viewBox="0 0 20 20" fill="none" xmlns="http://www.w3.org/2000/svg">
<path d="M3.125 7V4.875H1V3.125H3.125V1H4.875V3.125H7V4.875H4.875V7H3.125Z" fill="black"/>
<path d="M15.125 15.125V13H16.875V15.125H19V16.875H16.875V19H15.125V16.875H13V15.125H15.125Z" fill="black"/>
<path fill-rule="evenodd" clip-rule="evenodd" d="M10 1.7639L7.40372 6.95647C7.30695 7.15 7.15003 7.30692 6.9565 7.40368L1.76393 9.99997L6.9565 12.5963C7.15003 12.693 7.30695 12.8499 7.40372 13.0435L10 18.236L12.5963 13.0435C12.693 12.8499 12.85 12.693 13.0435 12.5963L18.2361 9.99997L13.0435 7.40368C12.85 7.30692 12.693 7.15 12.5963 6.95647L10 1.7639ZM9.19257 7.8509L10 6.23604L10.8074 7.8509C11.0977 8.43148 11.5685 8.90225 12.1491 9.19254L13.7639 9.99997L12.1491 10.8074C11.5685 11.0977 11.0977 11.5685 10.8074 12.149L10 13.7639L9.19257 12.149C8.90228 11.5685 8.43151 11.0977 7.85093 10.8074L6.23607 9.99997L7.85093 9.19254C8.43151 8.90225 8.90228 8.43148 9.19257 7.8509Z" fill="black"/>
</svg>
