<svg width="20" height="20" viewBox="0 0 20 20" fill="none" xmlns="http://www.w3.org/2000/svg">
<path d="M6 13C6 14.1046 6.89543 15 8 15H12.2525C13.2176 15 14 14.2176 14 13.2525C14 13.1669 13.9938 13.0826 13.9818 13H15.9916C15.9972 13.0835 16 13.1677 16 13.2525C16 15.3222 14.3222 17 12.2525 17H8C5.79086 17 4 15.2091 4 13H6Z" fill="black"/>
<path d="M3 11V9H4.75244C4.27729 8.36838 4 7.58527 4 6.74755C4 4.67783 5.67783 3 7.74755 3H12C14.2091 3 16 4.79086 16 7L14 7C14 5.89543 13.1046 5 12 5L7.74755 5C6.7824 5 6 5.7824 6 6.74755C6 7.58057 6.58798 8.29779 7.40483 8.46116L10.099 9L17 9V11L3 11Z" fill="black"/>
</svg>
