<svg width="20" height="20" viewBox="0 0 20 20" fill="none" xmlns="http://www.w3.org/2000/svg">
<mask id="path-1-inside-1_411_10667" fill="white">
<path fill-rule="evenodd" clip-rule="evenodd" d="M14 6C14 8.20914 12.2091 10 10 10C7.79086 10 6 8.20914 6 6C6 3.79086 7.79086 2 10 2C12.2091 2 14 3.79086 14 6ZM12 6C12 7.10457 11.1046 8 10 8C8.89543 8 8 7.10457 8 6C8 4.89543 8.89543 4 10 4C11.1046 4 12 4.89543 12 6Z"/>
<path d="M5 16C5 14.8954 5.89543 14 7 14H13C14.1046 14 15 14.8954 15 16V18H17V16C17 13.7909 15.2091 12 13 12H7C4.79086 12 3 13.7909 3 16V18H5V16Z"/>
</mask>
<path d="M15 18H13V20H15V18ZM17 18V20H19V18H17ZM3 18H1V20H3V18ZM5 18V20H7V18H5ZM10 10C12.2091 10 14 8.20914 14 6H10V10ZM6 6C6 8.20914 7.79086 10 10 10V6H6ZM10 2C7.79086 2 6 3.79086 6 6H10V2ZM14 6C14 3.79086 12.2091 2 10 2V6H14ZM10 12C13.3137 12 16 9.31371 16 6H12C12 7.10457 11.1046 8 10 8V12ZM4 6C4 9.31371 6.68629 12 10 12V8C8.89543 8 8 7.10457 8 6H4ZM10 0C6.68629 0 4 2.68629 4 6H8C8 4.89543 8.89543 4 10 4V0ZM16 6C16 2.68629 13.3137 0 10 0V4C11.1046 4 12 4.89543 12 6H16ZM7 12C4.79086 12 3 13.7909 3 16H7V12ZM13 12H7V16H13V12ZM17 16C17 13.7909 15.2091 12 13 12V16H17ZM17 16H15V20H17V16ZM13 14C14.1046 14 15 14.8954 15 16H19C19 12.6863 16.3137 10 13 10V14ZM7 14H13V10H7V14ZM5 16C5 14.8954 5.89543 14 7 14V10C3.68629 10 1 12.6863 1 16H5ZM5 16H3V20H5V16ZM17 18V16H13V18H17ZM15 16V18H19V16H15ZM5 18V16H1V18H5ZM3 16V18H7V16H3Z" fill="black" mask="url(#path-1-inside-1_411_10667)"/>
</svg>
