<svg width="20" height="20" viewBox="0 0 20 20" fill="none" xmlns="http://www.w3.org/2000/svg">
<path fill-rule="evenodd" clip-rule="evenodd" d="M6.83205 1.44531L8.11384 3.36799C8.69588 3.13074 9.33267 3.00001 10 3.00001C10.6673 3.00001 11.3041 3.13074 11.8862 3.36799L13.1679 1.44531L14.8321 2.55471L13.5495 4.47852C13.9819 4.91437 14.3347 5.42943 14.584 6.00001H17V8.00001H15V10H17V12H15V13C15 13.3425 14.9656 13.6769 14.9 14H17V16H14.0004C13.0882 17.2145 11.6358 18 10 18C8.36418 18 6.91184 17.2145 5.99963 16H3V14H5.10002C5.03443 13.6769 5 13.3425 5 13V12H3V10H5V8.00001H3V6.00001H5.41604C5.66534 5.42943 6.01805 4.91437 6.45048 4.47852L5.16795 2.55471L6.83205 1.44531ZM13 13V9.00001H7V13C7 14.6569 8.34315 16 10 16C11.6569 16 13 14.6569 13 13ZM12.8293 7.00001C12.4175 5.83482 11.3062 5.00001 10 5.00001C8.69378 5.00001 7.58254 5.83482 7.17071 7.00001H12.8293Z" fill="black"/>
</svg>
