<svg width="20" height="20" viewBox="0 0 20 20" fill="none" xmlns="http://www.w3.org/2000/svg">
<path d="M7 12C7 12.5523 6.55228 13 6 13C5.44772 13 5 12.5523 5 12C5 11.4477 5.44772 11 6 11C6.55228 11 7 11.4477 7 12Z" fill="black"/>
<path d="M15 12C15 12.5523 14.5523 13 14 13C13.4477 13 13 12.5523 13 12C13 11.4477 13.4477 11 14 11C14.5523 11 15 11.4477 15 12Z" fill="black"/>
<path fill-rule="evenodd" clip-rule="evenodd" d="M16.7537 9.09873L15.6325 5.73509C15.088 4.10172 13.5594 3 11.8377 3H8.16228C6.44056 3 4.912 4.10172 4.36754 5.73509L3.24633 9.09873C2.47867 9.82757 2 10.8579 2 12V18H4V16H16V18H18V12C18 10.8579 17.5213 9.82758 16.7537 9.09873ZM8.16228 5C7.30142 5 6.53714 5.55086 6.26491 6.36754L5.71748 8.00982C5.81081 8.00331 5.90502 8 6 8H14C14.095 8 14.1892 8.00331 14.2825 8.00982L13.7351 6.36754C13.4629 5.55086 12.6986 5 11.8377 5H8.16228ZM15.0438 10.2936L15.0513 10.3162L15.07 10.31C15.629 10.6647 16 11.289 16 12V14H4V12C4 11.289 4.37101 10.6647 4.92999 10.31L4.94868 10.3162L4.95621 10.2936C5.26006 10.1074 5.61749 10 6 10H14C14.3825 10 14.7399 10.1074 15.0438 10.2936Z" fill="black"/>
</svg>
