<svg width="20" height="20" viewBox="0 0 20 20" fill="none" xmlns="http://www.w3.org/2000/svg">
<path fill-rule="evenodd" clip-rule="evenodd" d="M0 2H3.8198L4.2198 4H15.7192C17.0204 4 17.9751 5.22278 17.6595 6.48507L16.3489 11.7276C16.015 13.0631 14.8151 14 13.4384 14H6.63961C5.20956 14 3.97832 12.9906 3.69787 11.5883L2.1802 4H0V2ZM4.6198 6L5.65903 11.1961C5.75251 11.6635 6.16293 12 6.63961 12H13.4384C13.8973 12 14.2973 11.6877 14.4086 11.2425L15.7192 6H4.6198Z" fill="black"/>
<path d="M8 16.5C8 17.3284 7.32843 18 6.5 18C5.67157 18 5 17.3284 5 16.5C5 15.6716 5.67157 15 6.5 15C7.32843 15 8 15.6716 8 16.5Z" fill="black"/>
<path d="M13.5 18C14.3284 18 15 17.3284 15 16.5C15 15.6716 14.3284 15 13.5 15C12.6716 15 12 15.6716 12 16.5C12 17.3284 12.6716 18 13.5 18Z" fill="black"/>
</svg>
