<svg width="20" height="20" viewBox="0 0 20 20" fill="none" xmlns="http://www.w3.org/2000/svg">
<path d="M8.125 12.125V13.875H11.875V12.125H10.875V9.125H8.125V10.875H9.125V12.125H8.125Z" fill="black"/>
<path d="M10 8.25C10.6904 8.25 11.25 7.69036 11.25 7C11.25 6.30964 10.6904 5.75 10 5.75C9.30964 5.75 8.75 6.30964 8.75 7C8.75 7.69036 9.30964 8.25 10 8.25Z" fill="black"/>
<path fill-rule="evenodd" clip-rule="evenodd" d="M18 10C18 14.4183 14.4183 18 10 18C5.58172 18 2 14.4183 2 10C2 5.58172 5.58172 2 10 2C14.4183 2 18 5.58172 18 10ZM16 10C16 13.3137 13.3137 16 10 16C6.68629 16 4 13.3137 4 10C4 6.68629 6.68629 4 10 4C13.3137 4 16 6.68629 16 10Z" fill="black"/>
</svg>
