<svg width="20" height="20" viewBox="0 0 20 20" fill="none" xmlns="http://www.w3.org/2000/svg">
<path fill-rule="evenodd" clip-rule="evenodd" d="M18 3L16.2895 14.9735C16.1307 16.085 15.0883 16.848 13.9808 16.6635L11.9728 16.3288C10.6666 16.1111 9.3334 16.1111 8.02721 16.3288L6.0192 16.6635C4.9117 16.848 3.86929 16.085 3.7105 14.9735L2 3L6.5 6L10 3L13.5 6L18 3ZM13.3488 8.50452L10 5.63416L6.65124 8.50452L4.6125 7.14537L5.6904 14.6907L7.69841 14.356C9.2223 14.102 10.7777 14.102 12.3016 14.356L14.3096 14.6907L15.3875 7.14537L13.3488 8.50452Z" fill="black"/>
</svg>
