<svg width="20" height="20" viewBox="0 0 20 20" fill="none" xmlns="http://www.w3.org/2000/svg">
<path fill-rule="evenodd" clip-rule="evenodd" d="M5 3V2H3V18H5L5 13H6.58579C7.49129 13 8.35971 13.3597 9 14C9.64029 14.6403 10.5087 15 11.4142 15H15C16.1046 15 17 14.1046 17 13V7C17 5.89543 16.1046 5 15 5H13.4142C12.5087 5 11.6403 4.64029 11 4C10.3597 3.35971 9.49129 3 8.58579 3H5ZM5 5L5 11H6.58579C8.02172 11 9.39885 11.5704 10.4142 12.5858C10.6794 12.851 11.0391 13 11.4142 13H15V7H13.4142C11.9783 7 10.6011 6.42958 9.58579 5.41421C9.32057 5.149 8.96086 5 8.58579 5H5Z" fill="black"/>
</svg>
