<svg width="20" height="20" viewBox="0 0 20 20" fill="none" xmlns="http://www.w3.org/2000/svg">
<path fill-rule="evenodd" clip-rule="evenodd" d="M3 12V15H4V17H0V15H1V7.5C1 5.01472 3.01472 3 5.5 3C7.98528 3 10 5.01472 10 7.5V15H11V17H7V15H8V12H3ZM3 7.5C3 6.11929 4.11929 5 5.5 5C6.88071 5 8 6.11929 8 7.5V10H3V7.5Z" fill="black"/>
<path fill-rule="evenodd" clip-rule="evenodd" d="M13 6H17C18.6569 6 20 7.34315 20 9V17H18V16.8293C17.6872 16.9398 17.3506 17 17 17H15C13.3431 17 12 15.6569 12 14V13C12 11.3431 13.3431 10 15 10H18V9C18 8.44772 17.5523 8 17 8H13V6ZM18 14V12H15C14.4477 12 14 12.4477 14 13V14C14 14.5523 14.4477 15 15 15H17C17.5523 15 18 14.5523 18 14Z" fill="black"/>
</svg>
