<svg width="20" height="20" viewBox="0 0 20 20" fill="none" xmlns="http://www.w3.org/2000/svg">
<path d="M17.5 5V4.5H17H3H2.5V5L2.5 15V15.5H3H17H17.5V15V5ZM1.5 5C1.5 4.17157 2.17157 3.5 3 3.5H17C17.8284 3.5 18.5 4.17157 18.5 5V15C18.5 15.8284 17.8284 16.5 17 16.5H3C2.17157 16.5 1.5 15.8284 1.5 15V5ZM6.5 13.375V12.625H13.5V13.375H6.5ZM5 10.5V9.5H6V10.5H5ZM8 9.5H9V10.5H8V9.5ZM11 10.5V9.5H12V10.5H11ZM14 9.5H15V10.5H14V9.5ZM5 7.5V6.5H6V7.5H5ZM8 6.5H9V7.5H8V6.5ZM11 7.5V6.5H12V7.5H11ZM14 6.5H15V7.5H14V6.5Z" fill="black" stroke="black"/>
</svg>
