<svg width="20" height="20" viewBox="0 0 20 20" fill="none" xmlns="http://www.w3.org/2000/svg">
<path fill-rule="evenodd" clip-rule="evenodd" d="M10.0004 0.84845L2.63022 5.05998C2.24075 5.28254 2.0004 5.69672 2.0004 6.14529V6.75021C2.0004 7.35485 2.4297 7.85922 3.00012 7.97515V14.0001H5.00012V8.00021H7.00012V14.0001H9.00012V8.00021H11.0001V14.0001H13.0001V8.00021H15.0001V14.0001H17.0001V7.97524C17.5708 7.85947 18.0004 7.35486 18.0003 6.74998L18.0002 6.14507C18.0001 5.69659 17.7598 5.28252 17.3704 5.06L10.0004 0.84845ZM10.0004 3.15196L5.01595 6.00021H14.9846L10.0004 3.15196Z" fill="black"/>
<path d="M2.00024 16V18H18.0002V16H2.00024Z" fill="black"/>
</svg>
