<svg width="20" height="20" viewBox="0 0 20 20" fill="none" xmlns="http://www.w3.org/2000/svg">
<path fill-rule="evenodd" clip-rule="evenodd" d="M17.0001 3L16.4467 10.7478C16.195 14.2706 13.2637 17 9.73193 17C8.23373 17 6.84983 16.5106 5.73141 15.6829L3.70718 17.7071L2.29297 16.2929L4.3172 14.2687C3.48951 13.1502 3.00009 11.7663 3.0001 10.2681C3.00011 6.73636 5.72951 3.80504 9.25231 3.55341L17.0001 3ZM7.16827 14.246L11.7072 9.70711L10.293 8.29289L5.75407 12.8318C5.27699 12.0931 5.00009 11.2129 5.0001 10.2681C5.0001 7.78563 6.91861 5.7252 9.3948 5.54833L14.8407 5.15933L14.4517 10.6053C14.2749 13.0815 12.2144 15 9.73193 15C8.78713 15 7.907 14.7231 7.16827 14.246Z" fill="black"/>
</svg>
