<svg width="20" height="20" viewBox="0 0 20 20" fill="none" xmlns="http://www.w3.org/2000/svg">
<path d="M20 8.44445C20 10.7723 18.2539 12.6924 16 12.9665V10.9394C17.1443 10.6858 18 9.66505 18 8.44444V8C18 6.34315 16.6569 5 15 5L11 5C9.34315 5 8 6.34315 8 8V8.44444C8 9.66505 8.85574 10.6858 10 10.9394V12.9665C7.74607 12.6924 6 10.7723 6 8.44444V8C6 5.23858 8.23858 3 11 3H15C17.7614 3 20 5.23858 20 8V8.44445Z" fill="black"/>
<path d="M0 11.5557C0 9.22783 1.74607 7.30774 4 7.03371V9.06073C2.85574 9.31439 2 10.3351 2 11.5557V12.0002C2 13.657 3.34314 15.0002 5 15.0002H9C10.6569 15.0002 12 13.657 12 12.0002V11.5557C12 10.3351 11.1443 9.31439 10 9.06073V7.03371C12.2539 7.30775 14 9.22783 14 11.5557V12.0002C14 14.7616 11.7614 17.0002 9 17.0002L5 17.0002C2.23857 17.0002 0 14.7616 0 12.0002V11.5557Z" fill="black"/>
</svg>
