<svg width="20" height="20" viewBox="0 0 20 20" fill="none" xmlns="http://www.w3.org/2000/svg">
<path fill-rule="evenodd" clip-rule="evenodd" d="M17 4.38746C17 3.02235 15.6626 2.0584 14.3675 2.49009L7.36754 4.82343C6.55086 5.09565 6 5.85993 6 6.72079V12.1707C5.68722 12.0601 5.35064 12 5 12C3.34315 12 2 13.3431 2 15C2 16.6568 3.34315 18 5 18C6.65684 18 7.99997 16.6569 8 15C8 15 8 15.0001 8 15V10.7208L15 8.38746V11.1708C14.6872 11.0602 14.3506 11.0001 14 11.0001C12.3431 11.0001 11 12.3432 11 14.0001C11 15.6569 12.3431 17.0001 14 17.0001C15.6569 17.0001 17 15.6569 17 14.0001C17 14 17 14.0001 17 14.0001V4.38746ZM15 13.9999C14.9999 13.4477 14.5522 13.0001 14 13.0001C13.4477 13.0001 13 13.4478 13 14.0001C13 14.5523 13.4477 15.0001 14 15.0001C14.5523 15.0001 15 14.5522 15 13.9999C15 13.9999 15 14 15 13.9999ZM6 15C6 14.4477 5.55228 14 5 14C4.44772 14 4 14.4477 4 15C4 15.5523 4.44772 16 5 16C5.55227 16 5.99997 15.5522 6 15C6 15 6 15 6 15ZM15 6.27927L8 8.61261V6.72079L15 4.38746L15 6.27927Z" fill="black"/>
</svg>
