<svg width="20" height="20" viewBox="0 0 20 20" fill="none" xmlns="http://www.w3.org/2000/svg">
<path fill-rule="evenodd" clip-rule="evenodd" d="M7.50688 2C7.05952 2 6.61533 2.07505 6.1928 2.22201L0.176514 4.31463L0.859921 11.1487L4.00004 10.6656V16C4.00004 17.1046 4.89547 18 6.00004 18H14C15.1046 18 16 17.1046 16 16V10.6656L19.1402 11.1487L19.8236 4.31463L13.8073 2.22201C13.3847 2.07505 12.9406 2 12.4932 2H7.50688ZM8.75004 4C8.75004 4.69036 9.30968 5.25 10 5.25C10.6904 5.25 11.25 4.69036 11.25 4H8.75004ZM12.9993 4.06511C12.9647 5.6919 11.6351 7 10 7C8.36494 7 7.03537 5.6919 7.00073 4.06511C6.94991 4.0784 6.89958 4.09371 6.84984 4.11101L2.32356 5.68537L2.64015 8.85129L6.00004 8.33439V16H14V8.33439L17.3599 8.85129L17.6765 5.68536L13.1502 4.11101C13.1005 4.09371 13.0502 4.0784 12.9993 4.06511Z" fill="black"/>
</svg>
