<svg width="20" height="20" viewBox="0 0 20 20" fill="none" xmlns="http://www.w3.org/2000/svg">
<path d="M5.76256 4.00001L7 2.76257L9.61872 5.38129C9.96043 5.723 9.96043 6.27702 9.61872 6.61873L7 9.23745L5.76256 8.00001L7.76256 6.00001L5.76256 4.00001Z" fill="black"/>
<path d="M3 2.76257L4.23744 4.00001L2.23744 6.00001L4.23744 8.00001L3 9.23745L0.381282 6.61873C0.0395727 6.27702 0.0395727 5.723 0.381282 5.38129L3 2.76257Z" fill="black"/>
<path d="M3 15V11H5V15H17V5.00001H12V3.00001H17C18.1046 3.00001 19 3.89544 19 5.00001V15C19 16.1046 18.1046 17 17 17H5C3.89543 17 3 16.1046 3 15Z" fill="black"/>
</svg>
