<svg width="16" height="16" viewBox="0 0 16 16" fill="none" xmlns="http://www.w3.org/2000/svg">
<path d="M13.1718 9.82842L12.0002 8.65686C10.9393 7.59599 9.50048 7 8.00019 7C6.4999 7 5.06106 7.59599 4.00019 8.65685L2.82861 9.82843L3.88927 10.8891L5.06085 9.71751C5.84041 8.93795 6.89772 8.5 8.00019 8.5C9.10265 8.5 10.16 8.93795 10.9395 9.71752L12.1111 10.8891L13.1718 9.82842Z" fill="black"/>
<path d="M10.3433 12.6568L9.17177 11.4853C8.86105 11.1746 8.43962 11 8.00019 11C7.56077 11 7.13934 11.1746 6.82862 11.4853L5.65704 12.6569L6.7177 13.7175L7.88929 12.5459C7.9187 12.5165 7.95859 12.5 8.00019 12.5C8.04179 12.5 8.08169 12.5165 8.11111 12.5459L9.28267 13.7175L10.3433 12.6568Z" fill="black"/>
</svg>
