<svg width="16" height="16" viewBox="0 0 16 16" fill="none" xmlns="http://www.w3.org/2000/svg">
<path d="M1.13024 4.1303L4.13024 1.1303L3.06958 0.0696411L0.0695801 3.06964L1.13024 4.1303Z" fill="black"/>
<path d="M7.24993 5H8.74994V8.68933L10.5303 10.4697L9.4696 11.5303L7.24993 9.31066V5Z" fill="black"/>
<path fill-rule="evenodd" clip-rule="evenodd" d="M13.3101 12.2495C14.0596 11.1901 14.4999 9.89645 14.4999 8.5C14.4999 4.91014 11.5898 2 7.99993 2C4.41008 2 1.49993 4.91014 1.49993 8.5C1.49993 9.89645 1.94031 11.1901 2.68975 12.2495L0.469604 14.4697L1.53026 15.5303L3.69257 13.368C4.83939 14.3835 6.34767 15 7.99993 15C9.6522 15 11.1605 14.3835 12.3073 13.368L14.4696 15.5303L15.5303 14.4697L13.3101 12.2495ZM7.99993 13.5C10.7614 13.5 12.9999 11.2614 12.9999 8.5C12.9999 5.73857 10.7614 3.5 7.99993 3.5C5.23851 3.5 2.99993 5.73857 2.99993 8.5C2.99993 11.2614 5.23851 13.5 7.99993 13.5Z" fill="black"/>
<path d="M11.8696 1.1303L14.8696 4.1303L15.9303 3.06964L12.9303 0.0696411L11.8696 1.1303Z" fill="black"/>
</svg>
