<svg width="16" height="16" viewBox="0 0 16 16" fill="none" xmlns="http://www.w3.org/2000/svg">
<path fill-rule="evenodd" clip-rule="evenodd" d="M9 4.5L9.7197 5.2197L11.4697 3.46967L12.5304 4.53033L10.7804 6.28036L11.5 7H16V7.50002C16 7.83907 15.9775 8.17287 15.9339 8.5C15.4886 11.8422 12.8422 14.4886 9.5 14.9339C9.17778 14.9769 8.8491 14.9993 8.51529 15L8.5 15L8 15V10.5L7.28035 9.78035L1.28039 15.7803L0.219727 14.7196L6.21969 8.71969L5.5 8H1V7.50002C1 7.16095 1.0225 6.82714 1.06609 6.5C1.51141 3.15779 4.15779 0.511407 7.5 0.0661012C7.82714 0.0225144 8.16094 1.52588e-05 8.5 1.52588e-05H9V4.5ZM7.28035 7.65903L6.12132 6.5H2.58296C3.00449 3.98751 4.98751 2.00449 7.5 1.58297V5.12132L8.65903 6.28035L7.28035 7.65903ZM8.34101 8.71969L9.5 9.87868V13.4171C12.0125 12.9955 13.9955 11.0125 14.417 8.5H10.8787L9.71969 7.34101L8.34101 8.71969Z" fill="black"/>
</svg>
