<svg width="16" height="16" viewBox="0 0 16 16" fill="none" xmlns="http://www.w3.org/2000/svg">
<path fill-rule="evenodd" clip-rule="evenodd" d="M15 10L13 8V5C13 2.23858 10.7614 0 8 0C5.23858 0 3 2.23858 3 5V8L1 10V12H15V10ZM4.5 8.62132V5C4.5 3.067 6.067 1.5 8 1.5C9.933 1.5 11.5 3.067 11.5 5V8.62132L13.3787 10.5H2.62132L4.5 8.62132Z" fill="black"/>
<path d="M8.00002 16C6.51353 16 5.27954 14.9189 5.0415 13.5H6.58538C6.7913 14.0826 7.34692 14.5 8.00002 14.5C8.65313 14.5 9.20875 14.0826 9.41467 13.5H10.9585C10.7205 14.9189 9.48652 16 8.00002 16Z" fill="black"/>
</svg>
