<svg width="16" height="16" viewBox="0 0 16 16" fill="none" xmlns="http://www.w3.org/2000/svg">
<path fill-rule="evenodd" clip-rule="evenodd" d="M2.41761 4.67065C4.23395 1.62307 8.16793 0.591259 11.2502 2.37083L12.0002 1.07179C8.17389 -1.13735 3.28117 0.173652 1.07203 3.99999C0.343942 5.26108 -0.0022451 6.64018 -0.00097307 8.0007L0.00023631 8.0007C0.000614465 9.93337 1.56747 11.5 3.50024 11.5C5.43323 11.5 7.00024 9.93299 7.00024 8C7.00024 6.067 5.43323 4.5 3.50024 4.5C3.12239 4.5 2.75852 4.55987 2.41761 4.67065ZM3.50024 10C4.60481 10 5.50024 9.10456 5.50024 8C5.50024 6.89543 4.60481 6 3.50024 6C2.39567 6 1.50024 6.89543 1.50024 8C1.50024 9.10456 2.39567 10 3.50024 10Z" fill="black"/>
<path fill-rule="evenodd" clip-rule="evenodd" d="M13.5828 11.3293C13.2419 11.4401 12.8781 11.5 12.5002 11.5C10.5672 11.5 9.00024 9.93299 9.00024 8C9.00024 6.067 10.5672 4.5 12.5002 4.5C14.433 4.5 15.9999 6.06662 16.0002 7.9993L16.0014 7.99929C16.0027 9.35981 15.6565 10.7389 14.9284 12C12.7193 15.8263 7.82657 17.1373 4.00023 14.9282L4.75023 13.6292C7.83254 15.4087 11.7665 14.3769 13.5828 11.3293ZM12.5002 10C13.6048 10 14.5002 9.10456 14.5002 8C14.5002 6.89543 13.6048 6 12.5002 6C11.3957 6 10.5002 6.89543 10.5002 8C10.5002 9.10456 11.3957 10 12.5002 10Z" fill="black"/>
</svg>
