<svg width="16" height="16" viewBox="0 0 16 16" fill="none" xmlns="http://www.w3.org/2000/svg">
<path d="M5.5 5.5H4C2.61929 5.5 1.5 6.61929 1.5 8V9H0V8C0 5.79086 1.79086 4 4 4C4 1.79086 5.79086 0 8 0C10.2091 0 12 1.79086 12 4V5C14.2091 5 16 6.79086 16 9H14.5C14.5 7.61929 13.3807 6.5 12 6.5H10.5V4C10.5 2.61929 9.38071 1.5 8 1.5C6.61929 1.5 5.5 2.61929 5.5 4V5.5Z" fill="black"/>
<path d="M4 11H2.5V12.25C2.5 12.6642 2.83579 13 3.25 13C3.66421 13 4 12.6642 4 12.25V11Z" fill="black"/>
<path d="M8.75 11V12.25C8.75 12.6642 8.41421 13 8 13C7.58579 13 7.25 12.6642 7.25 12.25V11H8.75Z" fill="black"/>
<path d="M6.5 14H5V15.25C5 15.6642 5.33579 16 5.75 16C6.16421 16 6.5 15.6642 6.5 15.25V14Z" fill="black"/>
<path d="M9.5 14H11V15.25C11 15.6642 10.6642 16 10.25 16C9.83579 16 9.5 15.6642 9.5 15.25V14Z" fill="black"/>
<path d="M13.5 11H12V12.25C12 12.6642 12.3358 13 12.75 13C13.1642 13 13.5 12.6642 13.5 12.25V11Z" fill="black"/>
</svg>
