<svg width="16" height="16" viewBox="0 0 16 16" fill="none" xmlns="http://www.w3.org/2000/svg">
<path d="M6.93926 5.52516C7.32978 5.91568 7.96294 5.91568 8.35347 5.52516C8.74399 5.13463 8.74399 4.50147 8.35347 4.11095C7.96294 3.72042 7.32978 3.72042 6.93926 4.11095C6.54873 4.50147 6.54873 5.13463 6.93926 5.52516Z" fill="black"/>
<path d="M11.889 9.56071C11.4985 9.95124 10.8653 9.95124 10.4748 9.56071C10.0843 9.17019 10.0843 8.53702 10.4748 8.1465C10.8653 7.75597 11.4985 7.75597 11.889 8.1465C12.2795 8.53702 12.2795 9.17019 11.889 9.56071Z" fill="black"/>
<path d="M5.17145 10.8284C4.00418 9.66117 3.70915 7.95195 4.28636 6.51072L5.6073 7.27337C5.34871 8.12746 5.55698 9.09266 6.23211 9.76778C6.72041 10.2561 7.35891 10.5 7.99988 10.5C9.10444 10.5 9.99988 11.3954 9.99988 12.5V13H8.49988V12.5C8.49988 12.2239 8.27602 12 7.99988 12C6.97735 12 5.95235 11.6093 5.17145 10.8284Z" fill="black"/>
<path fill-rule="evenodd" clip-rule="evenodd" d="M15.9999 13L14.7106 12.3554C14.7857 12.2395 14.8582 12.121 14.9281 12.0001C15.1116 11.6821 15.2709 11.3568 15.4064 11.0263C16.902 7.37912 15.5083 3.09742 11.9999 1.07185C8.17353 -1.13729 3.28081 0.173713 1.07167 4.00005C-0.214208 6.22726 -0.307437 8.81576 0.593825 11.026C0.782271 11.4882 1.01419 11.9338 1.28778 12.3561L-0.00010952 13V16H7.84567C7.94359 16.0018 8.04144 16.0018 8.13917 16H15.9999V13ZM13.4517 11.5399L12.54 12.9472L14.4999 13.9271V14.5H8.1254L8.11163 14.5003C8.03224 14.5018 7.95275 14.5018 7.87322 14.5003L7.85944 14.5H1.49989V13.9271L3.4584 12.9478L2.54669 11.5405C1.259 9.55284 1.10856 6.93616 2.37071 4.75005C4.16563 1.64115 8.14097 0.575963 11.2499 2.37089C14.3588 4.16581 15.424 8.14115 13.629 11.25C13.572 11.3488 13.5129 11.4454 13.4517 11.5399Z" fill="black"/>
</svg>
