<svg width="16" height="16" viewBox="0 0 16 16" fill="none" xmlns="http://www.w3.org/2000/svg">
<path fill-rule="evenodd" clip-rule="evenodd" d="M6.31463 12.8317C5.71724 14.5243 3.86084 15.4121 2.16824 14.8147C0.475646 14.2174 -0.412197 12.361 0.185191 10.6684L3.18519 2.16837C3.78258 0.475769 5.63898 -0.412075 7.33157 0.185313C9.02417 0.7827 9.91201 2.6391 9.31463 4.3317L6.31463 12.8317ZM1.59968 11.1676L2.85006 7.62484L6.15053 8.78971L4.90014 12.3325C4.57847 13.2439 3.57887 13.7219 2.66747 13.4003C1.75608 13.0786 1.27801 12.079 1.59968 11.1676ZM7.90014 3.83247L6.64976 7.37522L3.34929 6.21035L4.59968 2.6676C4.92135 1.7562 5.92095 1.27813 6.83234 1.5998C7.74374 1.92147 8.22181 2.92107 7.90014 3.83247Z" fill="black"/>
<path fill-rule="evenodd" clip-rule="evenodd" d="M15.9999 11.5C15.9999 13.433 14.4329 15 12.4999 15C10.5669 15 8.99988 13.433 8.99988 11.5C8.99988 9.567 10.5669 8 12.4999 8C14.4329 8 15.9999 9.567 15.9999 11.5ZM14.4999 11.5C14.4999 12.6046 13.6044 13.5 12.4999 13.5C11.3953 13.5 10.4999 12.6046 10.4999 11.5C10.4999 10.3954 11.3953 9.5 12.4999 9.5C13.6044 9.5 14.4999 10.3954 14.4999 11.5Z" fill="black"/>
</svg>
