<svg width="16" height="16" viewBox="0 0 16 16" fill="none" xmlns="http://www.w3.org/2000/svg">
<path fill-rule="evenodd" clip-rule="evenodd" d="M0 4L3 1H13L16 4V6C16 6 14 7 12 7C10 7 8 6 8 6C8 6 6 7 4 7C2 7 0 6 0 6V4ZM1.5 4.99935C1.57139 5.02496 1.6463 5.05096 1.72434 5.07697C2.39947 5.30202 3.22688 5.5 4 5.5C4.77312 5.5 5.60053 5.30202 6.27566 5.07697C6.60424 4.96745 6.87742 4.85808 7.06537 4.77753C7.38397 4.64099 7.69014 4.47788 8 4.32295C8.3099 4.4779 8.616 4.64098 8.93463 4.77753C9.12258 4.85808 9.39576 4.96745 9.72434 5.07697C10.3995 5.30202 11.2269 5.5 12 5.5C12.7731 5.5 13.6005 5.30202 14.2757 5.07697C14.3537 5.05096 14.4286 5.02496 14.5 4.99935V4.62132L12.3787 2.5H3.62132L1.5 4.62132V4.99935Z" fill="black"/>
<path d="M1 8.51868V15H5.5V10.5H7.5V15H15V8.51868C14.5615 8.65069 14.0515 8.77969 13.5 8.87085V13.5H9V8.99998L4 8.99998V13.5H2.5V8.87085C1.94855 8.77969 1.43849 8.65069 1 8.51868Z" fill="black"/>
<path d="M12 11.5V9H10.5V11.5H12Z" fill="black"/>
</svg>
