<svg width="16" height="16" viewBox="0 0 16 16" fill="none" xmlns="http://www.w3.org/2000/svg">
<path fill-rule="evenodd" clip-rule="evenodd" d="M10.0801 0.0196533L15.9803 5.9196L14.9197 6.98029L13.9697 6.0303L12 7.99995L12.7929 8.79284C13.2456 9.24559 13.5 9.85966 13.5 10.4999C13.5 11.1402 13.2456 11.7543 12.7929 12.2071L10.5 14.4999L7.72223 11.7222L1 16L0 15L4.27779 8.27773L1.5 5.49995L3.79289 3.20705C4.24565 2.7543 4.85971 2.49995 5.5 2.49995C6.14001 2.49995 6.75381 2.75408 7.20651 3.20646L8 3.99995L9.96957 2.03038L9.01949 1.08034L10.0801 0.0196533ZM5.36432 9.36427L3.1394 12.8606L6.6357 10.6356L5.36432 9.36427ZM9.87868 7.99995L12.8787 4.99995L11 3.12127L8 6.12127L6.14645 4.26771C5.975 4.09626 5.74247 3.99995 5.5 3.99995C5.25754 3.99995 5.025 4.09626 4.85355 4.26771L3.62132 5.49995L10.5 12.3786L11.7322 11.1464C11.9037 10.9749 12 10.7424 12 10.4999C12 10.2575 11.9037 10.0249 11.7322 9.8535L9.87868 7.99995Z" fill="black"/>
</svg>
