<svg width="16" height="16" viewBox="0 0 16 16" fill="none" xmlns="http://www.w3.org/2000/svg">
<path fill-rule="evenodd" clip-rule="evenodd" d="M10.4999 2C10.4999 3.10457 9.60445 4 8.49988 4C7.39531 4 6.49988 3.10457 6.49988 2C6.49988 0.895431 7.39531 0 8.49988 0C9.60445 0 10.4999 0.895431 10.4999 2ZM8.99988 2C8.99988 2.27614 8.77602 2.5 8.49988 2.5C8.22374 2.5 7.99988 2.27614 7.99988 2C7.99988 1.72386 8.22374 1.5 8.49988 1.5C8.77602 1.5 8.99988 1.72386 8.99988 2Z" fill="black"/>
<path d="M4.51805 4.5C3.72522 4.5 3.03143 5.03302 2.82714 5.79909L2.24023 8H3.79265L4.2765 6.18558C4.30568 6.07615 4.40479 6 4.51805 6H6.27357L5.5251 8.80675L5.52217 8.8181L3.72669 16H5.27286L6.75062 10.0889L9.19688 11.3121C9.30169 11.3645 9.35603 11.4826 9.32761 11.5963L8.22669 16H9.77286L10.7828 11.9601C10.9818 11.1644 10.6013 10.3373 9.8677 9.97044L7.13197 8.60257L7.74479 6.30449L9.79467 7.2506C10.2313 7.4521 10.7315 7.46508 11.178 7.2865L13.2783 6.44636L12.7212 5.05364L10.6209 5.89379C10.5571 5.9193 10.4856 5.91744 10.4233 5.88866L7.4145 4.5H4.51805Z" fill="black"/>
</svg>
